<?xml version="1.0" encoding="utf-8"?>
<!-- Generator: Adobe Illustrator 23.0.5, SVG Export Plug-In . SVG Version: 6.00 Build 0)  -->
<svg version="1.1" id="e6c7a302-1d79-4c46-b758-a00a31f9e26b"
	 xmlns="http://www.w3.org/2000/svg" xmlns:xlink="http://www.w3.org/1999/xlink" x="0px" y="0px" viewBox="0 0 482 313.8"
	 style="enable-background:new 0 0 482 313.8;" xml:space="preserve">
<style type="text/css">
	.st0{fill:url(#SVGID_1_);}
	.st1{fill:#FFFFFF;}
	.st2{opacity:0.6;}
	.st3{fill:#6C63FF;}
	.st4{fill:url(#SVGID_2_);}
	.st5{fill:url(#SVGID_3_);}
	.st6{fill:#47E6B1;}
	.st7{fill:url(#SVGID_4_);}
	.st8{fill:#F55F44;}
	.st9{fill:url(#SVGID_5_);}
	.st10{fill:url(#SVGID_6_);}
	.st11{fill:url(#SVGID_7_);}
	.st12{fill:url(#SVGID_8_);}
	.st13{fill:url(#SVGID_9_);}
	.st14{fill:url(#SVGID_10_);}
	.st15{fill:url(#SVGID_11_);}
	.st16{fill:url(#SVGID_12_);}
	.st17{opacity:0.25;fill:#535461;enable-background:new    ;}
	.st18{fill:none;stroke:url(#SVGID_13_);stroke-width:2;stroke-miterlimit:10;}
	.st19{fill:none;stroke:#535461;stroke-width:2;stroke-miterlimit:10;}
	.st20{fill:none;stroke:url(#SVGID_14_);stroke-width:2;stroke-miterlimit:10;}
	.st21{fill:none;stroke:url(#SVGID_15_);stroke-width:2;stroke-miterlimit:10;}
	.st22{opacity:0.7;}
	.st23{fill:url(#SVGID_16_);}
	.st24{fill:#535461;}
	.st25{opacity:0.1;fill:#FFFFFF;enable-background:new    ;}
	.st26{fill:#4D8AF0;}
	.st27{fill:#3AD29F;}
	.st28{fill:url(#SVGID_17_);}
	.st29{fill:#EEEEEE;}
</style>
<title>sm-message</title>
<linearGradient id="SVGID_1_" gradientUnits="userSpaceOnUse" x1="-3172.4487" y1="-861.0515" x2="-3172.4487" y2="-831.2015" gradientTransform="matrix(-0.96 0.29 -0.29 -0.96 -3059.9202 311.57)">
	<stop  offset="0" style="stop-color:#808080;stop-opacity:0.25"/>
	<stop  offset="0.54" style="stop-color:#808080;stop-opacity:0.12"/>
	<stop  offset="1" style="stop-color:#808080;stop-opacity:0.1"/>
</linearGradient>
<polygon class="st0" points="202,201.1 253,188.7 262.3,214.4 211.4,226.8 "/>
<polygon class="st1" points="202.9,201.6 252.1,189.6 260.9,213.5 211.5,225.6 "/>
<g class="st2">
	<polygon class="st3" points="213.4,205.1 207.1,206.7 205.7,202.8 212,201.4 	"/>
	<polygon class="st3" points="238.9,206.9 214.9,212.8 214.5,211.6 238.5,205.7 	"/>
	<polygon class="st3" points="239.9,209.6 222.4,213.9 222.1,213.1 239.7,208.8 	"/>
</g>
<linearGradient id="SVGID_2_" gradientUnits="userSpaceOnUse" x1="-3574.7063" y1="81.8943" x2="-3574.7063" y2="110.6543" gradientTransform="matrix(-0.98 -0.19 0.19 -0.98 -3165.6401 -442.07)">
	<stop  offset="0" style="stop-color:#808080;stop-opacity:0.25"/>
	<stop  offset="0.54" style="stop-color:#808080;stop-opacity:0.12"/>
	<stop  offset="1" style="stop-color:#808080;stop-opacity:0.1"/>
</linearGradient>
<polygon class="st4" points="326.2,154.1 332.4,127.8 384.6,136.2 378.3,162.5 "/>
<polygon class="st1" points="326.3,153.5 332,129 382.4,137 376.6,161.5 "/>
<g class="st2">
	<polygon class="st3" points="340.1,135.8 333.7,134.7 334.6,130.9 341.1,131.8 	"/>
	<polygon class="st3" points="361.8,147 337.1,143.1 337.5,141.8 362.1,145.8 	"/>
	<polygon class="st3" points="361.2,149.8 343.2,146.9 343.4,146.1 361.3,149 	"/>
</g>
<linearGradient id="SVGID_3_" gradientUnits="userSpaceOnUse" x1="-3086.9766" y1="1442.5909" x2="-3086.9766" y2="1477.851" gradientTransform="matrix(-0.4 -0.92 0.92 -0.4 -2215.6301 -2051.8301)">
	<stop  offset="0" style="stop-color:#808080;stop-opacity:0.25"/>
	<stop  offset="0.54" style="stop-color:#808080;stop-opacity:0.12"/>
	<stop  offset="1" style="stop-color:#808080;stop-opacity:0.1"/>
</linearGradient>
<polygon class="st5" points="334.9,190.4 364.9,179.8 386,219.7 356,230.4 "/>
<polygon class="st1" points="336.4,190.4 364.4,180.5 384.8,219.1 356.9,229 "/>
<g class="st2">
	<polygon class="st6" points="361.3,189.4 358.7,184.5 363.1,182.9 365.7,187.9 	"/>
	<polygon class="st6" points="362.2,210.5 352.2,191.6 353.6,191.1 363.6,210 	"/>
	<polygon class="st6" points="359.1,211.6 351.8,197.8 352.8,197.5 360,211.2 	"/>
</g>
<linearGradient id="SVGID_4_" gradientUnits="userSpaceOnUse" x1="-3176.6301" y1="-730.4515" x2="-3176.6301" y2="-700.6014" gradientTransform="matrix(-0.96 0.29 -0.29 -0.96 -3059.9202 311.55)">
	<stop  offset="0" style="stop-color:#808080;stop-opacity:0.25"/>
	<stop  offset="0.54" style="stop-color:#808080;stop-opacity:0.12"/>
	<stop  offset="1" style="stop-color:#808080;stop-opacity:0.1"/>
</linearGradient>
<polygon class="st7" points="168.3,74.9 219.2,62.4 228.6,88.1 177.7,100.6 "/>
<polygon class="st1" points="169.2,75.4 218.4,63.4 227.1,87.3 177.8,99.3 "/>
<g class="st2">
	<polygon class="st8" points="179.6,78.9 173.3,80.4 171.9,76.7 178.2,75.1 	"/>
	<polygon class="st8" points="205.2,80.7 181.1,86.5 180.7,85.3 204.8,79.5 	"/>
	<polygon class="st8" points="206.1,83.3 188.6,87.7 188.3,86.8 205.9,82.5 	"/>
</g>
<linearGradient id="SVGID_5_" gradientUnits="userSpaceOnUse" x1="-3517.4009" y1="199.3543" x2="-3517.4009" y2="228.1614" gradientTransform="matrix(-0.98 -0.19 0.19 -0.98 -3165.6401 -442.07)">
	<stop  offset="0" style="stop-color:#808080;stop-opacity:0.25"/>
	<stop  offset="0.54" style="stop-color:#808080;stop-opacity:0.12"/>
	<stop  offset="1" style="stop-color:#808080;stop-opacity:0.1"/>
</linearGradient>
<polygon class="st9" points="292.4,27.9 298.7,1.6 350.8,9.9 344.6,36.2 "/>
<polygon class="st1" points="293.3,26.9 299.1,2.4 349.6,10.4 343.7,35 "/>
<g class="st2">
	<polygon class="st3" points="306.4,9.5 300,8.5 300.9,4.6 307.3,5.6 	"/>
	<polygon class="st3" points="328,20.8 303.4,16.9 303.7,15.6 328.4,19.5 	"/>
	<polygon class="st3" points="327.4,23.5 309.5,20.7 309.6,19.8 327.6,22.7 	"/>
</g>
<linearGradient id="SVGID_6_" gradientUnits="userSpaceOnUse" x1="-2958.2029" y1="1461.951" x2="-2958.2029" y2="1497.181" gradientTransform="matrix(-0.4 -0.92 0.92 -0.4 -2215.6301 -2051.8201)">
	<stop  offset="0" style="stop-color:#808080;stop-opacity:0.25"/>
	<stop  offset="0.54" style="stop-color:#808080;stop-opacity:0.12"/>
	<stop  offset="1" style="stop-color:#808080;stop-opacity:0.1"/>
</linearGradient>
<polygon class="st10" points="301.1,64.1 331.1,53.5 352.3,93.5 322.3,104.1 "/>
<polygon class="st1" points="302.6,64.2 330.6,54.3 351.1,92.8 323.1,102.8 "/>
<g class="st2">
	<polygon class="st6" points="327.5,63.2 324.9,58.3 329.4,56.7 331.9,61.6 	"/>
	<polygon class="st6" points="328.5,84.2 318.4,65.4 319.9,64.9 329.8,83.7 	"/>
	<polygon class="st6" points="325.3,85.3 318,71.6 319,71.3 326.3,85 	"/>
</g>
<linearGradient id="SVGID_7_" gradientUnits="userSpaceOnUse" x1="-3012.5701" y1="-780.6014" x2="-3012.5701" y2="-750.7515" gradientTransform="matrix(-0.96 0.29 -0.29 -0.96 -3059.9202 311.56)">
	<stop  offset="0" style="stop-color:#808080;stop-opacity:0.25"/>
	<stop  offset="0.54" style="stop-color:#808080;stop-opacity:0.12"/>
	<stop  offset="1" style="stop-color:#808080;stop-opacity:0.1"/>
</linearGradient>
<polygon class="st11" points="25.1,169.9 76.1,157.4 85.4,183.1 34.4,195.6 "/>
<polygon class="st1" points="25.9,170.4 75.2,158.4 83.9,182.3 34.7,194.3 "/>
<g class="st2">
	<polygon class="st3" points="36.4,173.9 30.1,175.5 28.8,171.7 35.1,170.1 	"/>
	<polygon class="st3" points="62,175.8 38,181.6 37.5,180.4 61.6,174.5 	"/>
	<polygon class="st3" points="63,178.4 45.5,182.6 45.2,181.8 62.8,177.5 	"/>
</g>
<linearGradient id="SVGID_8_" gradientUnits="userSpaceOnUse" x1="-3394.7573" y1="78.7543" x2="-3394.7573" y2="107.5633" gradientTransform="matrix(-0.98 -0.19 0.19 -0.98 -3165.6401 -442.06)">
	<stop  offset="0" style="stop-color:#808080;stop-opacity:0.25"/>
	<stop  offset="0.54" style="stop-color:#808080;stop-opacity:0.12"/>
	<stop  offset="1" style="stop-color:#808080;stop-opacity:0.1"/>
</linearGradient>
<polygon class="st12" points="149.3,122.9 155.5,96.6 207.7,104.9 201.4,131.2 "/>
<polygon class="st1" points="149.6,122.1 155.4,97.6 205.8,105.6 199.9,130.1 "/>
<g class="st2">
	<polygon class="st8" points="163.2,104.5 156.7,103.5 157.7,99.6 164.1,100.6 	"/>
	<polygon class="st8" points="184.9,115.9 160.2,111.9 160.6,110.7 185.1,114.6 	"/>
	<polygon class="st8" points="184.2,118.5 166.2,115.7 166.5,114.8 184.4,117.7 	"/>
</g>
<linearGradient id="SVGID_9_" gradientUnits="userSpaceOnUse" x1="-2988.1646" y1="1292.671" x2="-2988.1646" y2="1327.931" gradientTransform="matrix(-0.4 -0.92 0.92 -0.4 -2215.6301 -2051.8301)">
	<stop  offset="0" style="stop-color:#808080;stop-opacity:0.25"/>
	<stop  offset="0.54" style="stop-color:#808080;stop-opacity:0.12"/>
	<stop  offset="1" style="stop-color:#808080;stop-opacity:0.1"/>
</linearGradient>
<polygon class="st13" points="157.9,159.2 188,148.5 209.1,188.5 179.1,199.1 "/>
<polygon class="st1" points="159.5,159.2 187.4,149.3 207.9,187.9 179.9,197.9 "/>
<g class="st2">
	<polygon class="st6" points="184.3,158.2 181.8,153.3 186.2,151.7 188.8,156.6 	"/>
	<polygon class="st6" points="185.2,179.2 175.3,160.4 176.7,159.9 186.7,178.7 	"/>
	<polygon class="st6" points="182.1,180.4 174.8,166.6 175.8,166.3 183,180 	"/>
</g>
<linearGradient id="SVGID_10_" gradientUnits="userSpaceOnUse" x1="-3040.0327" y1="-710.0615" x2="-3040.0327" y2="-680.1514" gradientTransform="matrix(-0.96 0.29 -0.29 -0.96 -3059.9299 311.56)">
	<stop  offset="0" style="stop-color:#808080;stop-opacity:0.25"/>
	<stop  offset="0.54" style="stop-color:#808080;stop-opacity:0.12"/>
	<stop  offset="1" style="stop-color:#808080;stop-opacity:0.1"/>
</linearGradient>
<polygon class="st14" points="31,94.5 82,82.1 91.4,107.7 40.5,120.2 "/>
<polygon class="st1" points="32.8,94.8 82.1,82.5 91,106.6 41.7,118.8 "/>
<g class="st2">
	<polygon class="st3" points="42.4,98.6 36.2,100.1 34.8,96.3 41,94.8 	"/>
	<polygon class="st3" points="68.1,100.3 43.9,106.2 43.5,104.9 67.6,99.1 	"/>
	<polygon class="st3" points="69,103 51.4,107.3 51.2,106.4 68.7,102.2 	"/>
</g>
<linearGradient id="SVGID_11_" gradientUnits="userSpaceOnUse" x1="-3385.1907" y1="153.0843" x2="-3385.1907" y2="181.8761" gradientTransform="matrix(-0.98 -0.19 0.19 -0.98 -3165.3101 -440.2)">
	<stop  offset="0" style="stop-color:#808080;stop-opacity:0.25"/>
	<stop  offset="0.54" style="stop-color:#808080;stop-opacity:0.12"/>
	<stop  offset="1" style="stop-color:#808080;stop-opacity:0.1"/>
</linearGradient>
<polygon class="st15" points="154.8,47.8 161,21.5 213.2,29.8 207,56 "/>
<polygon class="st1" points="156.1,46.5 161.9,22 212.4,30.1 206.5,54.5 "/>
<g class="st2">
	<polygon class="st3" points="169.2,29.1 162.8,28.1 163.7,24.2 170.1,25.2 	"/>
	<polygon class="st3" points="190.9,40.5 166.2,36.5 166.5,35.3 191.2,39.2 	"/>
	<polygon class="st8" points="190.3,43.2 172.3,40.3 172.4,39.5 190.4,42.3 	"/>
</g>
<linearGradient id="SVGID_12_" gradientUnits="userSpaceOnUse" x1="-2921.6121" y1="1328.191" x2="-2921.6121" y2="1363.451" gradientTransform="matrix(-0.4 -0.92 0.92 -0.4 -2215.6301 -2051.8201)">
	<stop  offset="0" style="stop-color:#808080;stop-opacity:0.25"/>
	<stop  offset="0.54" style="stop-color:#808080;stop-opacity:0.12"/>
	<stop  offset="1" style="stop-color:#808080;stop-opacity:0.1"/>
</linearGradient>
<polygon class="st16" points="163.9,83.8 193.9,73.1 215.1,113.1 185.1,123.8 "/>
<polygon class="st1" points="165.5,83.9 193.5,73.9 213.9,112.5 185.9,122.5 "/>
<g class="st2">
	<polygon class="st6" points="190.4,82.8 187.8,77.9 192.2,76.3 194.8,81.3 	"/>
	<polygon class="st6" points="191.3,103.8 181.2,85 182.7,84.5 192.6,103.4 	"/>
	<polygon class="st6" points="188.2,104.9 180.9,91.2 181.8,90.8 189.1,104.7 	"/>
</g>
<ellipse class="st17" cx="32.4" cy="25.5" rx="2.7" ry="2.3"/>
<ellipse class="st17" cx="322.3" cy="224.8" rx="2.7" ry="2.3"/>
<ellipse class="st17" cx="77.1" cy="213.5" rx="2.7" ry="2.3"/>
<ellipse class="st17" cx="348.2" cy="181.8" rx="2.7" ry="2.3"/>
<ellipse class="st17" cx="374.3" cy="77.4" rx="2.7" ry="2.3"/>
<polygon class="st17" points="169.3,2.1 166.8,2.1 166.8,0 165.8,0 165.8,2.1 163.3,2.1 163.3,2.9 165.8,2.9 165.8,4.9 166.8,4.9 
	166.8,2.9 169.3,2.9 "/>
<polygon class="st17" points="74.3,33 71.8,33 71.8,31 70.8,31 70.8,33 68.3,33 68.3,33.9 70.8,33.9 70.8,35.9 71.8,35.9 71.8,33.9 
	74.3,33.9 "/>
<polygon class="st17" points="35.6,148.6 33.2,148.6 33.2,146.6 32.2,146.6 32.2,148.6 29.7,148.6 29.7,149.4 32.2,149.4 
	32.2,151.4 33.2,151.4 33.2,149.4 35.6,149.4 "/>
<polygon class="st17" points="30,66.2 27.6,66.2 27.6,64.2 26.6,64.2 26.6,66.2 24.1,66.2 24.1,67 26.6,67 26.6,69 27.6,69 27.6,67 
	30,67 "/>
<polygon class="st17" points="5.9,122.8 3.5,122.8 3.5,120.8 2.5,120.8 2.5,122.8 0,122.8 0,123.7 2.5,123.7 2.5,125.7 3.5,125.7 
	3.5,123.7 5.9,123.7 "/>
<polygon class="st17" points="312.7,192.3 310,192.3 310,189.6 308.9,189.6 308.9,192.3 306.2,192.3 306.2,193.5 308.9,193.5 
	308.9,196.2 310,196.2 310,193.5 312.7,193.5 "/>
<polygon class="st17" points="354.2,119.9 351.8,119.9 351.8,117.9 350.7,117.9 350.7,119.9 348.3,119.9 348.3,120.8 350.7,120.8 
	350.7,122.8 351.8,122.8 351.8,120.8 354.2,120.8 "/>
<polygon class="st17" points="280.8,49 278.3,49 278.3,46.9 277.3,46.9 277.3,49 274.8,49 274.8,49.8 277.3,49.8 277.3,51.8 
	278.3,51.8 278.3,49.8 280.8,49.8 "/>
<linearGradient id="SVGID_13_" gradientUnits="userSpaceOnUse" x1="401.92" y1="-388.2388" x2="455.16" y2="-388.2388" gradientTransform="matrix(1 0 0 -1 -264.4 -182.84)">
	<stop  offset="0" style="stop-color:#808080;stop-opacity:0.25"/>
	<stop  offset="0.54" style="stop-color:#808080;stop-opacity:0.12"/>
	<stop  offset="1" style="stop-color:#808080;stop-opacity:0.1"/>
</linearGradient>
<path class="st18" d="M139.1,164.6c-1.7,4.8,0.9,10.3,6.1,12.8c2.2,1,4.7,1.6,6.9,2.7c4.6,2.5,6.4,7.1,7.9,11.5
	c1.7,5,3.5,10.2,1.8,15.2c-1,3.2-3.3,6-4.6,9.1c-1.1,2.6-1.5,5.4-1.1,8.2c0.1,1.5,0.7,2.9,1.8,4c1.7,1.6,4.6,1.8,7.1,2.1
	c10.9,1.7,20.2,7.6,24.8,15.8"/>
<path class="st19" d="M139.7,164.6c-1.7,4.8,0.9,10.3,6.1,12.8c2.2,1,4.7,1.6,6.9,2.7c4.6,2.5,6.4,7.1,7.9,11.5
	c1.7,5,3.5,10.2,1.8,15.2c-1,3.2-3.3,6-4.6,9.1c-1.1,2.6-1.5,5.4-1.1,8.2c0.1,1.5,0.7,2.9,1.8,4c1.7,1.6,4.6,1.8,7.1,2.1
	c10.9,1.7,20.2,7.6,24.8,15.8"/>
<linearGradient id="SVGID_14_" gradientUnits="userSpaceOnUse" x1="460.9462" y1="-370.6863" x2="478.1562" y2="-370.6863" gradientTransform="matrix(1 0 0 -1 -264.4 -182.84)">
	<stop  offset="0" style="stop-color:#808080;stop-opacity:0.25"/>
	<stop  offset="0.54" style="stop-color:#808080;stop-opacity:0.12"/>
	<stop  offset="1" style="stop-color:#808080;stop-opacity:0.1"/>
</linearGradient>
<path class="st20" d="M206.9,129.4c-4.4,5-9,10.4-9.3,16.6c-0.5,9.4,8.6,17.2,12.8,26c3.6,7.8,3.1,16.8-1.3,24.2
	c-2,3.4-4.9,6.8-4.6,10.5c0.2,2.3,1.6,4.4,2.7,6.5c5.7,10.8,4.7,23.1-2.6,33.2"/>
<path class="st19" d="M207.4,129.4c-4.4,5-9,10.4-9.3,16.6c-0.5,9.4,8.6,17.2,12.8,26c3.6,7.8,3.1,16.8-1.3,24.2
	c-2,3.4-4.8,6.8-4.6,10.5c0.2,2.3,1.6,4.4,2.7,6.5c5.7,10.8,4.7,23.1-2.6,33.2"/>
<linearGradient id="SVGID_15_" gradientUnits="userSpaceOnUse" x1="519.43" y1="-394.5833" x2="536.09" y2="-394.5833" gradientTransform="matrix(1 0 0 -1 -264.4 -182.84)">
	<stop  offset="0" style="stop-color:#808080;stop-opacity:0.25"/>
	<stop  offset="0.54" style="stop-color:#808080;stop-opacity:0.12"/>
	<stop  offset="1" style="stop-color:#808080;stop-opacity:0.1"/>
</linearGradient>
<path class="st21" d="M268.4,174.3l2.1,14.2c0.3,1.9,0.5,3.9-0.7,5.6s-3.4,2.2-5.1,3.3c-5.6,3.7-5.1,10.8-3.2,16.4s4.8,11.7,2,17.2
	c-1.1,2.2-3,4.1-4.6,6.2c-2.4,3.4-3.5,7.7-2.8,11.9"/>
<path class="st19" d="M268.9,174.3l2.1,14.2c0.3,1.9,0.5,3.9-0.7,5.6s-3.4,2.2-5.1,3.3c-5.6,3.7-5.1,10.8-3.2,16.4s4.8,11.7,2,17.2
	c-1.1,2.2-3,4.1-4.6,6.2c-2.4,3.4-3.4,7.7-2.8,11.9"/>
<g class="st22">
	
		<linearGradient id="SVGID_16_" gradientUnits="userSpaceOnUse" x1="469.865" y1="-362.94" x2="469.865" y2="-210.05" gradientTransform="matrix(1 0 0 -1 -264.4 -182.84)">
		<stop  offset="0" style="stop-color:#808080;stop-opacity:0.25"/>
		<stop  offset="0.54" style="stop-color:#808080;stop-opacity:0.12"/>
		<stop  offset="1" style="stop-color:#808080;stop-opacity:0.1"/>
	</linearGradient>
	<path class="st23" d="M323.3,116.2c0-23.2-23-41.9-51.2-41.9c-5.3,0-10.7,0.7-15.8,2.1c0.4-2.3,0.7-4.7,0.6-7.1
		c0.2-23.2-22.6-42.1-50.9-42.2c-27.1-0.2-49.6,17.1-51.4,39.2c-26.9-7.2-55.8,4.9-64.6,26.9c-1.6,4.1-2.5,8.5-2.5,12.9
		c0,21.1,18.9,51,43.6,56.3l3.8,1.8l-2.1,5.9h12.3l-2.6-5.9l3.8-1.8c19.1-4.1,34.7-22.9,40.8-41c3.5,1.9,7.2,3.2,11,4.1l3.8,1.8
		L200,133h12.3l-2.6-5.9l3.8-1.8c2.8-0.6,5.5-1.5,8.1-2.7c3.3,20.3,20.8,45,43,49.7l3.8,1.8l-2.1,5.9h12.2l-2.6-5.9l3.8-1.8
		C304.4,167.1,323.3,137.2,323.3,116.2z"/>
</g>
<polygon class="st8" points="147.2,167.8 135.3,167.8 137.4,161.9 144.5,161.9 "/>
<path class="st8" d="M190.4,106c0,22.4-22.2,55.3-49.5,55.3S91.4,128.4,91.4,106s22.2-40.6,49.6-40.6S190.4,83.6,190.4,106z"/>
<polygon class="st24" points="144.5,162.2 137.4,162.2 133.2,160.2 148.7,160.2 "/>
<path class="st25" d="M123,74.4c0,0-20.9,9.3-23.8,27.9"/>
<polygon class="st26" points="212,132.2 200,132.2 202.1,126.3 209.4,126.3 "/>
<path class="st26" d="M255.3,70.3c0,22.4-22.2,55.3-49.5,55.3s-49.6-32.9-49.6-55.3s22.2-40.6,49.5-40.6S255.3,47.9,255.3,70.3
	L255.3,70.3z"/>
<polygon class="st24" points="209.4,126.5 202.1,126.5 197.9,124.5 213.5,124.5 "/>
<path class="st25" d="M187.8,38.7c0,0-20.9,9.3-23.8,27.9"/>
<polygon class="st27" points="276.2,177.7 264.3,177.7 266.4,171.8 273.6,171.8 "/>
<path class="st27" d="M319.5,115.8c0,22.4-22.2,55.3-49.5,55.3s-49.5-32.9-49.5-55.3s22.2-40.6,49.5-40.6S319.5,93.4,319.5,115.8z"
	/>
<polygon class="st24" points="273.6,172 266.4,172 262.2,170 277.7,170 "/>
<path class="st25" d="M252.1,84.2c0,0-20.9,9.3-23.8,27.9"/>
<linearGradient id="SVGID_17_" gradientUnits="userSpaceOnUse" x1="-3375.9905" y1="-539.3197" x2="-3375.9905" y2="-469.0594" gradientTransform="matrix(-1 5.000000e-02 -5.000000e-02 -1 -3180.6602 -58.92)">
	<stop  offset="0" style="stop-color:#808080;stop-opacity:0.25"/>
	<stop  offset="0.54" style="stop-color:#808080;stop-opacity:0.12"/>
	<stop  offset="1" style="stop-color:#808080;stop-opacity:0.1"/>
</linearGradient>
<polygon class="st28" points="150,244.8 286.9,239.2 291.1,308.2 154.2,313.8 "/>
<polygon class="st29" points="151.8,245.9 284,240.4 288,304.6 155.9,310.2 "/>
<polygon class="st3" points="157.8,250.6 174.6,249.9 175.2,260.1 158.4,260.8 "/>
<polygon class="st3" points="173.2,276.7 237.8,274 238,277.4 173.4,280.1 "/>
<polygon class="st3" points="191.2,284.2 238.3,282.3 238.4,284.5 191.4,286.5 "/>
</svg>
