<svg xmlns="http://www.w3.org/2000/svg" xmlns:xlink="http://www.w3.org/1999/xlink" id="a0c20882-2d18-455a-ade1-f7c359a0c63a" viewBox="0 0 985.65 709.99"><defs><style>.cls-1,.cls-10{fill:#38d39f}.cls-1,.cls-11,.cls-16,.cls-9{opacity:.1}.cls-1,.cls-11,.cls-16,.cls-8{isolation:isolate}.cls-2{fill:url(#linear-gradient)}.cls-3{fill:#3a3768}.cls-4{fill:#3f3d56}.cls-5{fill:#f86d70}.cls-6{fill:#a1616a}.cls-7{fill:#ee8e9e}.cls-20,.cls-8{opacity:.05}.cls-12{fill:#efb7b9}.cls-13{fill:#4c4981}.cls-14{fill:#444053}.cls-15{fill:#925978}.cls-16{fill:#fff}.cls-17{fill:none;stroke:#444053;stroke-miterlimit:10}.cls-18{fill:url(#linear-gradient-2)}.cls-19{fill:#2d293d}.cls-21{fill:#ffcdd3}.cls-22{fill:#dce6f2}</style><linearGradient id="linear-gradient" x1="19.02" x2="171.66" y1="147.29" y2="147.29" gradientTransform="translate(993.6 640.89) rotate(180)" gradientUnits="userSpaceOnUse"><stop offset="0" stop-color="gray" stop-opacity=".25"/><stop offset=".54" stop-color="gray" stop-opacity=".12"/><stop offset="1" stop-color="gray" stop-opacity=".1"/></linearGradient><linearGradient id="linear-gradient-2" x1="-931.89" x2="-931.89" y1="155.89" y2="500.08" gradientTransform="matrix(-1, -0.04, 0.04, -1, -410.08, 645.82)" xlink:href="#linear-gradient"/></defs><title>music</title><ellipse cx="928.97" cy="267.15" class="cls-1" rx="14.5" ry="15.34"/><circle cx="433.76" cy="27.77" r="21.63" class="cls-1"/><circle cx="681.87" cy="52.63" r="21.63" class="cls-1"/><circle cx="50.94" cy="326.21" r="36.25" class="cls-1"/><path d="M594.25,117.07c-63.19-2.36-123.38-24.31-180.85-48.34S299,18.1,237.38,5.37c-39.67-8.19-85-9.35-117,13.54C89.57,41,79.63,79,74.32,114.25c-4,26.56-6.38,54.5,4.63,79.35,7.65,17.26,21.23,31.76,30.62,48.28,32.68,57.51,9.58,128.43-25.84,184.58C67.14,452.8,47.86,477.92,35,506s-18.77,60.17-7.58,88.78c11.11,28.37,37.6,49.64,66.29,64.57,58.28,30.42,126.93,39.14,193.92,44,148.23,10.92,297.26,6.19,445.89,1.46,55-1.75,110.26-3.54,164.37-12.72C928,687,959,678.92,980.81,659.44c27.7-24.72,34.56-66.6,16-97.6-31.12-52-117.16-64.94-138.94-120.75-12-30.72.32-64.95,17.73-93.44C912.92,286.52,975.51,232.9,978.8,163c2.26-47.94-27.82-96-74.33-118.75C855.71,20.48,788.1,23.47,752.15,62.87,715.13,103.6,650,119.17,594.25,117.07Z" class="cls-1" transform="translate(-21.56 -0.01)"/><path d="M821.94,395.64a5.91,5.91,0,0,0,1.33,3.46,19.73,19.73,0,0,0,5.32,4.52V409s16,13.37,19.29,18.42c3.17,4.82,6.41,9.73,10.92,13.32a9.9,9.9,0,0,0,4.07,2.16h.27a4.22,4.22,0,0,1-1.56,1,3.7,3.7,0,0,0,4.17,3.16l.19,0A7.18,7.18,0,0,0,868.1,446l6.34-4.1a18.16,18.16,0,0,0,2.95-2.21c1.18-1.19,2-2.68,3.16-3.9,2-2.08,4.84-3.32,6.23-5.82.87-1.56,1-3.41,1.56-5.12.35-1.12.86-2.18,1.2-3.3a11.93,11.93,0,0,0,.41-2.06c.22.19.45.38.69.56.49-.32,1.43.52,1.21,1.06s-.75.93-.93,1.49c-.4,1.28,1.18,2.23,1.84,3.4s.32,2.67.39,4,.68,2.93.87,4.42c.46,3.48-1.26,7.15,0,10.44a3.3,3.3,0,0,0-3.25,2.53,9.57,9.57,0,0,0,.13,4.45,6.12,6.12,0,0,0-3,5.59,1.39,1.39,0,0,1-.14,1,1.42,1.42,0,0,1-.57.33,5.64,5.64,0,0,0-3.48,5.24,1.71,1.71,0,0,1-.92,1.95,6.52,6.52,0,0,0-2.43,5.1,3.69,3.69,0,0,0,1.72,3.34h.07a18,18,0,0,0-6,11.39,46.61,46.61,0,0,0,.78,11.79h.36v.29a5.1,5.1,0,0,0,.57,1.7,24.36,24.36,0,0,1,2.15,8.76,7.51,7.51,0,0,0,.3,2.21,11.41,11.41,0,0,0,1.13,1.94c1.33,2.17,1.64,4.79,2.09,7.3a57.46,57.46,0,0,0,2.55,9.57c1.53,4.24,3.59,8.58,2.89,13a12.89,12.89,0,0,0-.4,3.21,9.49,9.49,0,0,0,1.26,3.37,31.23,31.23,0,0,1,1.4,3.12,2.51,2.51,0,0,0,.62,1.69c.12.33.22.67.32,1s.17.53.25.8a10.69,10.69,0,0,1,.31,1.36l-.06,1v1a2.48,2.48,0,0,1-.48.89,3.58,3.58,0,0,1-.26.29l-.24.27a1.7,1.7,0,0,0-.27.39h0a1.89,1.89,0,0,0-.08,1.15,1.82,1.82,0,0,0,.1.45c.25,1.08.52,2.16.79,3.23.08.33.17.65.25,1,.22.84.44,1.69.67,2.53v.11l.15.56.57,2.06c.12.41.24.81.35,1.22l.44,1.49q.51,1.74,1.05,3.48c3.57,11.78,7.4,23.49,9.76,35.57a3.85,3.85,0,0,0,1.43,2.14,8.23,8.23,0,0,0,2.49,1.34c.23,1.77.8,3.93.87,5,.22,3.49.38,7.21-.89,10.39a.86.86,0,0,0-.76.24,30.9,30.9,0,0,0-2.29,2.43l-4.69,5a7.75,7.75,0,0,0-1.06,1.29,4.51,4.51,0,0,0-.45,3.69,5,5,0,0,0,2.41,2.86,4.37,4.37,0,0,1,.76.43,4.51,4.51,0,0,0,.47.4,1.83,1.83,0,0,0,1,.19,35.61,35.61,0,0,0,7.87-1.34,6.29,6.29,0,0,0,3.25-1.53A6.08,6.08,0,0,0,917,644l.94-2.6a30.32,30.32,0,0,0,1.43-4.85,10,10,0,0,0-.25-5,1.14,1.14,0,0,0-.24.41c.23-1.45.45-2.91.68-4.37.07-.43.13-.87.19-1.32.3,3.89-.27,7.81-.09,11.71a13.58,13.58,0,0,0-.39,2.19c.26,3.58,1.75,7.49,4.64,9.62a4.57,4.57,0,0,0,1.59.83,5.63,5.63,0,0,0,1.64,0,20.77,20.77,0,0,0,6.24-1.18,7.66,7.66,0,0,0,4.49-4.26,10.08,10.08,0,0,0,.45-3.08,11.83,11.83,0,0,0-.29-3.25,24.92,24.92,0,0,0-1.64-3.79,36.53,36.53,0,0,1-1.86-5.58l-.87-3.17c-.24-.9-.49-1.8-.8-2.68a4.49,4.49,0,0,0-1.11-2.11c-.36-.28-.6-.3-.76-.14V621a35.35,35.35,0,0,0,.23-3.71c-.24-2-1.83-3.63-2.86-5.41a10.56,10.56,0,0,1-1.14-2.86c-.06-.22-.1-.43-.14-.66a2.15,2.15,0,0,1,.57-.37l1.78,1c-1.57-11.8-.74-24.17-5.32-35.15-2-4.78-5.85-9.76-5.42-14.91a4.2,4.2,0,0,1-.42-5.92,4.41,4.41,0,0,1,.89-.78c.77-.42,1.72-.62,2.25-1.33a3.71,3.71,0,0,0,.51-1.29A205,205,0,0,1,931.79,520c.89-2.11,1.81-4.2,2.74-6.29l3.1-7.05,3.78-8.58c1.28-2.89,2.57-6.19,1.36-9.1-.48-1.15-1.33-2.24-1.21-3.47a20.37,20.37,0,0,1,.74-2.29,5.68,5.68,0,0,0-.19-2.49c-.25-1.08-.53-2.16-.82-3.23a18,18,0,0,1,2.41.46c.48-.81-.29-1.75-.76-2.57a8.65,8.65,0,0,1-.87-3.57l-1-10.09a17.88,17.88,0,0,1-.08-4.2c.2-1.48.77-2.89,1.06-4.37.55-2.83,0-5.75.18-8.64a38.47,38.47,0,0,1,1.32-7.52c.09-.37.17-.73.26-1.1a6,6,0,0,0,1.45.25h1.24a3.41,3.41,0,0,0,.55-.14h.12a6,6,0,0,0,.59-.23c-.24-.51-.46-1-.67-1.54-.09-.21-.17-.42-.25-.63s-.23-.59-.33-.89-.2-.55-.29-.82-.15-.46-.22-.69-.19-.63-.28-1-.18-.66-.27-1l.15-.31a8.77,8.77,0,0,0,1.65,1.13c2,3.45,3.81,7,5.48,10.58a3.36,3.36,0,0,0,.51-1.29,7,7,0,0,0,.71.91,10.6,10.6,0,0,0,2.33,1.71,6,6,0,0,0,2.76,1,5.11,5.11,0,0,0,3.53-1.53c2.91-2.55,4.36-6.34,5.71-10a75.58,75.58,0,0,0,4.3-14.73c.82-5.43.47-11.07,2-16.34-1.39-2.76-2.27-5.81-3.83-8.48a38.49,38.49,0,0,1-2.64-5,17.1,17.1,0,0,1-.47-11.44,1.58,1.58,0,0,0-1.83.1,3.78,3.78,0,0,0-1.1,1.6,14.19,14.19,0,0,0-1.09,6.72,2.72,2.72,0,0,1-.19,1.64,2.06,2.06,0,0,1-1.78.75,15.2,15.2,0,0,1-4.12-.75,38.28,38.28,0,0,0-11.48-1.12,9.44,9.44,0,0,0-1-1l-.43-.35-.44-.34-.22-.18a5,5,0,0,1-.42-.37,2.77,2.77,0,0,1-1-1.75v-.5a3.38,3.38,0,0,1,.23-.7c.07-.15.14-.3.22-.45l.11-.23c0-.07.07-.15.11-.22a6.06,6.06,0,0,0,.32-.84,6.58,6.58,0,0,0,.3-1.76v-1.35a9.09,9.09,0,0,0-.37-1.78,9.87,9.87,0,0,0-.48-1.28,14.16,14.16,0,0,0-.85-1.58,24.18,24.18,0,0,0-2.14-2.91l-.59-.69-.6-.68a25.26,25.26,0,0,1-1.74-2.13,8.21,8.21,0,0,1-1-1.78c-.08-.21-.15-.42-.21-.64a6.51,6.51,0,0,1-.18-1.24v-.41a15.44,15.44,0,0,1,.08-1.67c.08-.78.19-1.57.3-2.37.07-.53.15-1.06.22-1.59a5.33,5.33,0,0,1,.1-.79c.06-.53.12-1.06.16-1.59a15.31,15.31,0,0,0-.26-4.63,8.49,8.49,0,0,0-.47-1.48,9.6,9.6,0,0,0-1-1.8,12.94,12.94,0,0,0-5.56-4.33,25.37,25.37,0,0,0-5.09-1.63c-.7-.15-1.39-.28-2.08-.39-10.4-1.67-21.44,1.49-28,10-3.42,4.42-6.33,9.38-7.57,14.83s-.68,11.49,2.39,16.17c1.29,2,3,3.68,4.13,5.74.94,1.68,1.5,3.57,2.51,5.21a12.27,12.27,0,0,0,5.55,4.67l-.44.4a13.48,13.48,0,0,0-3.11.06c-1.06.18-2.09.59-3.16.72-1.32.17-2.67-.09-4,.08-2.46.32-4.48,2-6.35,3.65-2.19,1.91-4.54,4.14-4.71,7v.08l-1.47,2a7.56,7.56,0,0,0-.92,1.45c-.59,1.39-.26,3-.58,4.48a9.75,9.75,0,0,1-1.16,2.67,60.29,60.29,0,0,1-5,7.46,12.64,12.64,0,0,1-3.11,3.08,5.63,5.63,0,0,1-3.24.92,20.67,20.67,0,0,1-4.74-3.17,30.87,30.87,0,0,1-4.19-5.21c-2.38-3.43,5,6.83,2.62,3.39l-21.34-35.56a28.89,28.89,0,0,1-.84-5.06c0-.65-.27-1.51-.93-1.53a1.14,1.14,0,0,0-.75.36,4.34,4.34,0,0,0-1.39,3.7,5.17,5.17,0,0,0-3.27.58,1.87,1.87,0,0,0-.45,2.61l0,.05v.27a1.42,1.42,0,0,0-.75,1.5,5.11,5.11,0,0,0-3.51.17c-1.05.59-1.45,2.32-.43,3A3.07,3.07,0,0,0,821.94,395.64Zm133.68,5.1a15.08,15.08,0,0,0,1.87.48,30.36,30.36,0,0,1,5.8,2,3.21,3.21,0,0,1,1.51,1.13,3.36,3.36,0,0,1-.18,2.84L962,414.32c-.42,1.12-.83,2.24-1.35,3.31-.2.43-.43.86-.66,1.28l-.24-.69a58.51,58.51,0,0,1-1.9-6.64c-.44-1.94-.81-3.9-1.12-5.86a28.23,28.23,0,0,0-1.11-5Zm-2.76-5.59.2.14a2.38,2.38,0,0,1,.69.48,1,1,0,0,1,0,1Zm-4.77-6.87,3.16.46a4.19,4.19,0,0,1,2.13.73,1.43,1.43,0,0,1,.29,2,4.76,4.76,0,0,1-.7.47,2,2,0,0,0-.75,2.07,22.41,22.41,0,0,0-1.81-2.81A13.9,13.9,0,0,0,948.3,389C948.23,388.79,948.17,388.53,948.09,388.28ZM917.72,615.61a11.41,11.41,0,0,0,1.17,0,11.26,11.26,0,0,0-.19,2.84Z" class="cls-2" transform="translate(-21.56 -0.01)"/><path d="M921.92,339.11c5.49.88,11.59,3,13.69,8.14,1.58,3.89.36,8.26,0,12.44a9.45,9.45,0,0,0,.12,3.31,11.7,11.7,0,0,0,2.9,4.55,23.93,23.93,0,0,1,4.18,5.85,8.55,8.55,0,0,1,.28,7,5.07,5.07,0,0,0-.69,1.84c-.07,1.43,1.42,2.33,2.52,3.24,4.12,3.41,3.94,9.62,4,15a75.76,75.76,0,0,0,7.16,31.64,9.69,9.69,0,0,1-10.82-1.41,36.2,36.2,0,0,0,2.46,7.08c-3.49,1.69-7.69-1.09-9.43-4.54s-2-7.48-3.2-11.14-3.49-6.89-4.49-10.58a10.12,10.12,0,0,0-1.25-3.54,9,9,0,0,0-2.2-1.87,21.34,21.34,0,0,1-7.75-10.52c-4.27,1-8.62,1.89-13,1.5s-8.79-2.37-11.08-6.09c-1-1.64-1.57-3.53-2.51-5.21-1.15-2.06-2.85-3.75-4.14-5.73-3.06-4.68-3.62-10.69-2.38-16.15s4.14-10.39,7.57-14.81C900.49,340.6,911.53,337.44,921.92,339.11Z" class="cls-3" transform="translate(-21.56 -0.01)"/><path d="M921.92,339.11c5.49.88,11.59,3,13.69,8.14,1.58,3.89.36,8.26,0,12.44a9.45,9.45,0,0,0,.12,3.31,11.7,11.7,0,0,0,2.9,4.55,23.93,23.93,0,0,1,4.18,5.85,8.55,8.55,0,0,1,.28,7,5.07,5.07,0,0,0-.69,1.84c-.07,1.43,1.42,2.33,2.52,3.24,4.12,3.41,3.94,9.62,4,15a75.76,75.76,0,0,0,7.16,31.64,9.69,9.69,0,0,1-10.82-1.41,36.2,36.2,0,0,0,2.46,7.08c-3.49,1.69-7.69-1.09-9.43-4.54s-2-7.48-3.2-11.14-3.49-6.89-4.49-10.58a10.12,10.12,0,0,0-1.25-3.54,9,9,0,0,0-2.2-1.87,21.34,21.34,0,0,1-7.75-10.52c-4.27,1-8.62,1.89-13,1.5s-8.79-2.37-11.08-6.09c-1-1.64-1.57-3.53-2.51-5.21-1.15-2.06-2.85-3.75-4.14-5.73-3.06-4.68-3.62-10.69-2.38-16.15s4.14-10.39,7.57-14.81C900.49,340.6,911.53,337.44,921.92,339.11Z" class="cls-4" transform="translate(-21.56 -0.01)"/><path d="M956.54,407.68c.31,2,.68,3.92,1.13,5.87a56.71,56.71,0,0,0,1.89,6.62,6.35,6.35,0,0,1,.59,3,5.52,5.52,0,0,1-.73,1.82c-2.51,4.45-5.89,8.75-6.18,13.85a7.45,7.45,0,0,1-.68,3.69q-2.91-6.24-6.41-12.18c-2.44-4.14-5.15-8.32-5.85-13.08a24.8,24.8,0,0,1,.08-6.72,14.67,14.67,0,0,1,2.42-7.07c1.65-2.16,6.2-5.43,9.14-4.76C955.39,399.56,956.1,404.89,956.54,407.68Z" class="cls-5" transform="translate(-21.56 -0.01)"/><path d="M868.17,431.67c-3.28-1.34-6.62-2.75-9.23-5.16a29.93,29.93,0,0,1-4.19-5.2L847,410.17c-1.83-2.65-3.71-5.43-4.1-8.62a28.38,28.38,0,0,1-7.71-17.5c0-.66-.26-1.51-.92-1.53a1.16,1.16,0,0,0-.76.36,4.33,4.33,0,0,0-1.38,3.7,5.1,5.1,0,0,0-3.27.57c-.92.66-1.16,2.29-.17,2.84a1.41,1.41,0,0,0-1,1.59,5,5,0,0,0-3.51.17c-1,.59-1.45,2.31-.43,3a3,3,0,0,0-2,2.93,5.91,5.91,0,0,0,1.33,3.45c3,4,8.2,5.58,11.63,9.16a27.11,27.11,0,0,1,3,4l10,15.14c3.16,4.81,6.41,9.71,10.92,13.29a9.86,9.86,0,0,0,4.06,2.16A4.47,4.47,0,0,0,867,443.7c1-1.13,1.15-2.76,1.25-4.26C868.44,436.89,868,434.24,868.17,431.67Z" class="cls-6" transform="translate(-21.56 -0.01)"/><path d="M901.48,641.89a8.77,8.77,0,0,0-1.06,1.29,4.51,4.51,0,0,0-.45,3.69,5,5,0,0,0,2.41,2.85,4.42,4.42,0,0,1,.76.44,4.51,4.51,0,0,0,.47.4,1.83,1.83,0,0,0,1,.19,36.93,36.93,0,0,0,7.87-1.34,6.29,6.29,0,0,0,3.25-1.53,6.47,6.47,0,0,0,1.11-2.15l.93-2.6a31.3,31.3,0,0,0,1.44-4.84,10,10,0,0,0-.26-5,1.64,1.64,0,0,0-.35,1,11,11,0,0,1-2,4.85,3.83,3.83,0,0,1-3.12,2,29,29,0,0,1-5,.64,1.57,1.57,0,0,1-.68-.08,1.19,1.19,0,0,1-.57-.71,3,3,0,0,1,0-2c.45-1.26,1.69-2.09,2.29-3.3.44-.89-.17-1.87-1.08-1.12a26.32,26.32,0,0,0-2.29,2.43Z" class="cls-4" transform="translate(-21.56 -0.01)"/><path d="M910.1,623.89c.27,4.19.45,8.71-1.84,12.22-.82,1.27-1.93,2.33-2.87,3.52a4.14,4.14,0,0,0-1,2.12c-.14,1.53,1.3,2.85,2.82,3.13a9.35,9.35,0,0,0,4.53-.65,10.81,10.81,0,0,0,3.85-1.81c2-1.69,2.52-4.5,2.92-7.08l.93-6a18.87,18.87,0,0,0,.34-4.37,19.12,19.12,0,0,0-1.17-4.71l-1.54-4.5a2.08,2.08,0,0,0-.68-1.12,2,2,0,0,0-1.17-.21c-1.47.07-5.18.61-5.89,2.16C908.68,618,910,622.31,910.1,623.89Z" class="cls-7" transform="translate(-21.56 -0.01)"/><path d="M910.1,623.89c.27,4.19.45,8.71-1.84,12.22-.82,1.27-1.93,2.33-2.87,3.52a4.14,4.14,0,0,0-1,2.12c-.14,1.53,1.3,2.85,2.82,3.13a9.35,9.35,0,0,0,4.53-.65,10.81,10.81,0,0,0,3.85-1.81c2-1.69,2.52-4.5,2.92-7.08l.93-6a18.87,18.87,0,0,0,.34-4.37,19.12,19.12,0,0,0-1.17-4.71l-1.54-4.5a2.08,2.08,0,0,0-.68-1.12,2,2,0,0,0-1.17-.21c-1.47.07-5.18.61-5.89,2.16C908.68,618,910,622.31,910.1,623.89Z" class="cls-8" transform="translate(-21.56 -0.01)"/><path d="M877.15,499.74a.21.21,0,0,0,0,.11,4.87,4.87,0,0,0,.56,1.7,24.58,24.58,0,0,1,2.16,8.75,7.18,7.18,0,0,0,.29,2.21,11.41,11.41,0,0,0,1.13,1.94c1.33,2.17,1.64,4.78,2.09,7.29a57.61,57.61,0,0,0,2.55,9.56c1.53,4.23,3.59,8.57,2.89,13a12.81,12.81,0,0,0-.4,3.2,9.29,9.29,0,0,0,1.25,3.37,31.3,31.3,0,0,1,1.41,3.12c.41,1.06.85,2.31,1.19,3.48.41,1.44.69,3.14-.26,4.29a5.36,5.36,0,0,0-.77.94,2.5,2.5,0,0,0,0,1.62q.81,3.42,1.74,6.83c.48,1.78,1,3.55,1.51,5.32,3.86,12.94,8.22,25.75,10.81,39,.37,1.91,2.81,3.28,4.71,3.69a6.12,6.12,0,0,0,5.41-1.45,3.32,3.32,0,0,0,.38-.37c2-2.14,2.27-5.42,2.13-8.38-.67-13.64-7.54-26.12-10.81-39.38A75.84,75.84,0,0,1,905,555c-.77-16.47-1.07-33.87,3.58-49.68,1-3.29,2.11-7,.37-10a9.75,9.75,0,0,0-5.14-3.76,33.1,33.1,0,0,0-25.69.66,8.34,8.34,0,0,0,0,1,10.15,10.15,0,0,1-.52,4.54A5.6,5.6,0,0,0,877.15,499.74Z" class="cls-4" transform="translate(-21.56 -0.01)"/><path d="M933.52,628.13l.87,3.17a35.43,35.43,0,0,0,1.85,5.58,23.91,23.91,0,0,1,1.65,3.78,12.26,12.26,0,0,1,.28,3.25,10,10,0,0,1-.45,3.07,7.66,7.66,0,0,1-4.49,4.26,21.39,21.39,0,0,1-6.23,1.17,5,5,0,0,1-1.64,0,4.57,4.57,0,0,1-1.59-.83c-2.89-2.12-4.38-6-4.64-9.61a12.09,12.09,0,0,1,.49-2.45c.22-.3,2.41.93,1.47,2-1.38,1.53,2.67.74,4.73.61a18.72,18.72,0,0,0,2.68-.44l3.33-.71c1.09-.24,2.35-.61,2.73-1.66s-.46-2.29-1.11-3.3c-1.75-2.69-2.19-6-2.6-9.17-.08-.63-.86-4.68.75-3.42a4.51,4.51,0,0,1,1.12,2.11C933,626.34,933.27,627.23,933.52,628.13Z" class="cls-4" transform="translate(-21.56 -0.01)"/><path d="M892,561.77c1-1.15.67-2.85.26-4.28-.16-.54-.32-1.07-.5-1.6l13.09-4.42c0,1.17.1,2.34.15,3.51a75.94,75.94,0,0,0,2.12,14.62c3.27,13.25,10.14,25.73,10.81,39.36.15,3.14-.18,6.65-2.5,8.77a6.19,6.19,0,0,1-5.42,1.44c-1.89-.41-4.34-1.78-4.71-3.69-2.59-13.25-7-26.06-10.81-39q-1.8-6-3.25-12.16a2.61,2.61,0,0,1,0-1.61A4.89,4.89,0,0,1,892,561.77Z" class="cls-8" transform="translate(-21.56 -0.01)"/><path d="M928.2,613.76c1,1.78,2.61,3.36,2.85,5.4a30.66,30.66,0,0,1-.23,3.71,11.76,11.76,0,0,0,.55,3q1.9,6.9,4.4,13.62a3.8,3.8,0,0,1,.35,1.85A3.24,3.24,0,0,1,934,643.5c-3.11,1.33-6.63,1.24-10,1.1a5.25,5.25,0,0,1-2.82-.66c-1.21-.83-1.51-2.47-1.59-3.93-.23-4.25.49-8.52,0-12.75-.16-1.54-.49-3.06-.73-4.58a13.46,13.46,0,0,1,.2-6.4,14.9,14.9,0,0,1,2.39-4,12.52,12.52,0,0,1,3.33-3.32c.4-.24,1.53-1,1.93-.51.21.23.12.85.15,1.14a12.16,12.16,0,0,0,.23,1.32A10.88,10.88,0,0,0,928.2,613.76Z" class="cls-7" transform="translate(-21.56 -0.01)"/><path d="M903,505.05a3.62,3.62,0,0,1,.25,3c-.44,1.81-1.16,3.54-1.75,5.31a74.25,74.25,0,0,0-2.26,9.65c-.55,3-1.71,6.23-1.23,9.2A65.57,65.57,0,0,0,891,554c-.27,2,4.07,4.48,4,6.45-.16,3.92-3.29,4.23-1,7.36.11.16-.87,3.66-.74,3.81.94,1.13,2.13,2,3.14,3.09a23.63,23.63,0,0,1,3.31,4.85c6,10.78,14.59,23,11.93,35a2.14,2.14,0,0,0,1.14,2.16,5.81,5.81,0,0,0,2.52.58h.42c2-2.14,2.27-5.42,2.13-8.38-.67-13.64-7.54-26.12-10.81-39.38A75.84,75.84,0,0,1,905,555c-.77-16.47-1.07-33.87,3.58-49.68,1-3.29,2.11-7,.37-10a9.75,9.75,0,0,0-5.14-3.76,33.1,33.1,0,0,0-25.69.66,8.34,8.34,0,0,0,0,1,10.15,10.15,0,0,1-.52,4.54,5.57,5.57,0,0,0-.51,2s-.24-2.65-.24-2.61c5.35.77,10.93,4.26,16.28,5a37.31,37.31,0,0,1,8.16,1.8A3.48,3.48,0,0,1,903,505.05Z" class="cls-8" transform="translate(-21.56 -0.01)"/><path d="M940.05,475.89c.72,2.29,1.36,4.6,1.9,6.93a5.62,5.62,0,0,1,.19,2.48,20.37,20.37,0,0,0-.74,2.29c-.12,1.23.73,2.31,1.21,3.46,1.21,2.92-.08,6.21-1.35,9.1l-3.79,8.57-3.1,7c-.92,2.09-1.84,4.18-2.73,6.29a204.08,204.08,0,0,0-9.88,29.61,3.71,3.71,0,0,1-.51,1.29c-.53.7-1.48.9-2.25,1.33a4.2,4.2,0,0,0-.46,6.69c-.44,5.15,3.42,10.12,5.41,14.89,4.57,11,3.74,23.32,5.32,35.1l-1.78-1c-1.71.78-1.65,3.2-2.56,4.83-1.38,2.46-4.75,2.81-7.56,2.62a5.82,5.82,0,0,1-2.53-.58,2.13,2.13,0,0,1-1.13-2.16c2.65-12-6-24.25-11.94-35a23.57,23.57,0,0,0-3.31-4.84c-1-1.07-2.19-2-3.14-3.1-2.63-3.16-3-7.62-2.79-11.73a65.72,65.72,0,0,1,7.47-27.7c-.47-3,.69-6.25,1.24-9.2a72.62,72.62,0,0,1,2.25-9.65c.59-1.77,1.31-3.5,1.75-5.31a3.62,3.62,0,0,0-.24-3,3.52,3.52,0,0,0-1.69-1.09,37.9,37.9,0,0,0-8.16-1.8l-18.38-2.64c-.59-3.78-1.19-8-.78-11.78a18.1,18.1,0,0,1,13-15.16,2.72,2.72,0,0,1,2.39.15A95.77,95.77,0,0,1,940.05,475.89Z" class="cls-4" transform="translate(-21.56 -0.01)"/><path d="M923.35,376.5a9,9,0,0,0,.8,5.26,8.09,8.09,0,0,0,2.09,2.31,15.47,15.47,0,0,0,6.06,3c1.3.33,2.76.55,3.62,1.59,1.29,1.56.43,3.91-.67,5.61-1.9,3-4.55,5.65-7.94,6.57-2.71.74-5.61.29-8.38.77-2,.35-3.9,1.18-5.88,1.65a17.34,17.34,0,0,1-16-4.45c2.94-2.26,6-4.67,7.53-8.06a11.46,11.46,0,0,0,.57-7.7c-.71-2.51-2.3-5-1.8-7.52s3-4.32,5.51-5.19a34.91,34.91,0,0,1,6.93-1.4c1.29-.18,9.52-2,10-1.1.29.51-1.42,3.51-1.63,4.17A16,16,0,0,0,923.35,376.5Z" class="cls-6" transform="translate(-21.56 -0.01)"/><path d="M923.35,376.5a9,9,0,0,0,.8,5.26,8.09,8.09,0,0,0,2.09,2.31,15.47,15.47,0,0,0,6.06,3c1.3.33,2.76.55,3.62,1.59,1.29,1.56.43,3.91-.67,5.61-1.9,3-4.55,5.65-7.94,6.57-2.71.74-5.61.29-8.38.77-2,.35-3.9,1.18-5.88,1.65a17.34,17.34,0,0,1-16-4.45c2.94-2.26,6-4.67,7.53-8.06a11.46,11.46,0,0,0,.57-7.7c-.71-2.51-2.3-5-1.8-7.52s3-4.32,5.51-5.19a34.91,34.91,0,0,1,6.93-1.4c1.29-.18,9.52-2,10-1.1.29.51-1.42,3.51-1.63,4.17A16,16,0,0,0,923.35,376.5Z" class="cls-8" transform="translate(-21.56 -0.01)"/><circle cx="891.44" cy="365.8" r="16.69" class="cls-6"/><path d="M921.81,393.4l-11.31,1.9a42.15,42.15,0,0,1-8.46.85,24.18,24.18,0,0,0-4.66,0c-1.07.18-2.09.59-3.17.72-1.32.17-2.66-.08-4,.09-2.46.31-4.48,2-6.35,3.64-2.19,1.9-4.54,4.13-4.7,7a2,2,0,0,0,.13,1,2.94,2.94,0,0,0,.84.88c2.08,1.7,3.25,4.25,4.73,6.5a25.11,25.11,0,0,0,5.62,6.06c.5-.32,1.44.52,1.22,1.06s-.75.93-.93,1.49c-.4,1.28,1.18,2.22,1.83,3.4s.33,2.66.4,4,.67,2.93.87,4.43c.45,3.47-1.26,7.13,0,10.42a3.27,3.27,0,0,0-3.25,2.53,9.52,9.52,0,0,0,.13,4.44,6.12,6.12,0,0,0-3,5.58,1,1,0,0,1-.58,1.29l-.14,0a5.63,5.63,0,0,0-3.47,5.23,2.61,2.61,0,0,1-.1,1.11,2.44,2.44,0,0,1-.82.84,6.52,6.52,0,0,0-2.43,5.1,3.74,3.74,0,0,0,1.72,3.34,31.51,31.51,0,0,0,7.6,2.26,67.86,67.86,0,0,0,7.36,1.3,66,66,0,0,0,6.89.21l15.14-.06c4.25,0,8.51,0,12.76-.32,4-.26,8-.76,11.85.28.48-.81-.29-1.75-.76-2.57a8.61,8.61,0,0,1-.87-3.56L941,463.79a17.72,17.72,0,0,1-.08-4.18c.21-1.49.77-2.9,1.06-4.37.55-2.83,0-5.75.18-8.63a38.24,38.24,0,0,1,1.32-7.51l3-12.35a47.22,47.22,0,0,1,1.48-6.19q3.45-8.9,7.25-17.64a1.82,1.82,0,0,0-.13-1.56l-2.5-4.49a29.38,29.38,0,0,0-2.29-3.65,14.48,14.48,0,0,0-8.45-5.19,14.94,14.94,0,0,0-9.82,1.46c-1.17.62-2.25,1.39-3.44,2C926.52,392.49,924.07,393.55,921.81,393.4Z" class="cls-5" transform="translate(-21.56 -0.01)"/><path d="M881.65,404.39l-3.94,5.26a6.47,6.47,0,0,0-.92,1.45c-.6,1.38-.27,3-.59,4.46a9.3,9.3,0,0,1-1.15,2.67,60.29,60.29,0,0,1-5,7.46,13.37,13.37,0,0,1-3.11,3.08,5.17,5.17,0,0,1-4.2.74,2.6,2.6,0,0,1,1.38,1.25,15.25,15.25,0,0,1,1,9.76,9.89,9.89,0,0,1-1.1,3.2,4.77,4.77,0,0,1-2.51,2.17,3.7,3.7,0,0,0,4.17,3.16l.19,0a7.42,7.42,0,0,0,2.16-1.08l6.33-4.1a17.2,17.2,0,0,0,2.95-2.21c1.18-1.18,2-2.67,3.16-3.89,2-2.07,4.84-3.31,6.23-5.81.87-1.56,1-3.41,1.55-5.12.35-1.11.87-2.17,1.2-3.29a14.69,14.69,0,0,0-1.3-10.54C886.52,409.73,884,407.15,881.65,404.39Z" class="cls-5" transform="translate(-21.56 -0.01)"/><path d="M896.51,356.3a21.76,21.76,0,0,1,5.87-6.11c3.11-2.33,6.7-4.26,10.59-4.48a11.23,11.23,0,0,1,4.76.78c.08-4.72,1.25-7.85,4.19-7.38,5.49.88,11.59,3,13.69,8.14,1.58,3.89.36,8.26,0,12.44a9.45,9.45,0,0,0,.12,3.31,11.7,11.7,0,0,0,2.9,4.55,23.93,23.93,0,0,1,4.18,5.85,8.55,8.55,0,0,1,.28,7,5.07,5.07,0,0,0-.69,1.84c-.07,1.43,1.42,2.33,2.52,3.24,4.12,3.41,3.94,9.62,4,15a75.76,75.76,0,0,0,7.16,31.64,9.69,9.69,0,0,1-10.82-1.41,36.2,36.2,0,0,0,2.46,7.08c-3.49,1.69-7.69-1.09-9.43-4.54s-2-7.48-3.2-11.14-3.49-6.89-4.49-10.58a10.12,10.12,0,0,0-1.25-3.54,9,9,0,0,0-2.2-1.87c-3.59-2.58,1.7-22.12.3-26.31-2.09.45-5.93-9.63-8.12-19.88a10.35,10.35,0,0,1-4.75.48,5.72,5.72,0,0,0-1.7-.12,4.36,4.36,0,0,0-1.48.6,35.42,35.42,0,0,1-5,2.6c-3.62,1.35-7.61,1.17-11.46,1A11.36,11.36,0,0,1,896.51,356.3Z" class="cls-3" transform="translate(-21.56 -0.01)"/><path d="M896.51,356.3a21.76,21.76,0,0,1,5.87-6.11c3.11-2.33,6.7-4.26,10.59-4.48a11.23,11.23,0,0,1,4.76.78c.08-4.72,1.25-7.85,4.19-7.38,5.49.88,11.59,3,13.69,8.14,1.58,3.89.36,8.26,0,12.44a9.45,9.45,0,0,0,.12,3.31,11.7,11.7,0,0,0,2.9,4.55,23.93,23.93,0,0,1,4.18,5.85,8.55,8.55,0,0,1,.28,7,5.07,5.07,0,0,0-.69,1.84c-.07,1.43,1.42,2.33,2.52,3.24,4.12,3.41,3.94,9.62,4,15a75.76,75.76,0,0,0,7.16,31.64,9.69,9.69,0,0,1-10.82-1.41,36.2,36.2,0,0,0,2.46,7.08c-3.49,1.69-7.69-1.09-9.43-4.54s-2-7.48-3.2-11.14-3.49-6.89-4.49-10.58a10.12,10.12,0,0,0-1.25-3.54,9,9,0,0,0-2.2-1.87c-3.59-2.58,1.7-22.12.3-26.31-2.09.45-5.93-9.63-8.12-19.88a10.35,10.35,0,0,1-4.75.48,5.72,5.72,0,0,0-1.7-.12,4.36,4.36,0,0,0-1.48.6,35.42,35.42,0,0,1-5,2.6c-3.62,1.35-7.61,1.17-11.46,1A11.36,11.36,0,0,1,896.51,356.3Z" class="cls-4" transform="translate(-21.56 -0.01)"/><g class="cls-9"><path d="M954,432.09a75.91,75.91,0,0,1-7.16-31.64c0-5.35.15-11.56-4-15-1.1-.91-2.59-1.81-2.53-3.24a5.09,5.09,0,0,1,.7-1.84,8.55,8.55,0,0,0-.28-7,23.93,23.93,0,0,0-4.18-5.85,11.73,11.73,0,0,1-2.91-4.55,10,10,0,0,1-.12-3.31c.41-4.18,1.64-8.55,0-12.44-2-5-7.81-7.12-13.16-8.05a2.93,2.93,0,0,1,1.44-.09c5.49.88,11.59,3,13.69,8.14,1.58,3.89.36,8.26,0,12.44a9.45,9.45,0,0,0,.12,3.31,11.7,11.7,0,0,0,2.9,4.55,23.93,23.93,0,0,1,4.18,5.85,8.55,8.55,0,0,1,.28,7,5.07,5.07,0,0,0-.69,1.84c-.07,1.43,1.42,2.33,2.52,3.24,4.12,3.41,3.94,9.62,4,15A75.76,75.76,0,0,0,956,432.09a9.35,9.35,0,0,1-5.3,1A8.92,8.92,0,0,0,954,432.09Z" transform="translate(-21.56 -0.01)"/><path d="M945.69,437.76a35.56,35.56,0,0,1-2.46-7.08,9.22,9.22,0,0,0,2.37,1.57,37,37,0,0,0,2,5.51,5.22,5.22,0,0,1-3.23.41A5.06,5.06,0,0,0,945.69,437.76Z" transform="translate(-21.56 -0.01)"/><path d="M915.77,346.49a11.61,11.61,0,0,0-3.18-.75H913a11.11,11.11,0,0,1,2.82.21C915.78,346.11,915.77,346.29,915.77,346.49Z" transform="translate(-21.56 -0.01)"/><path d="M904.41,363.49a36.07,36.07,0,0,0,5.06-2.6,4.36,4.36,0,0,1,1.48-.6,5.83,5.83,0,0,1,1.56.09,6.68,6.68,0,0,0-1.08.51,35.42,35.42,0,0,1-5,2.6,22.74,22.74,0,0,1-8.47,1.1A20.25,20.25,0,0,0,904.41,363.49Z" transform="translate(-21.56 -0.01)"/><path d="M917.4,359.89l.09.45a9.8,9.8,0,0,1-2.48.07A10.85,10.85,0,0,0,917.4,359.89Z" transform="translate(-21.56 -0.01)"/></g><path d="M952.14,437.32a6.09,6.09,0,0,0,1.64,4.88,10.54,10.54,0,0,0,2.32,1.71,6.22,6.22,0,0,0,2.76,1,5.18,5.18,0,0,0,3.53-1.54c2.91-2.55,4.36-6.33,5.7-9.95a74.53,74.53,0,0,0,4.31-14.71c.82-5.43.47-11.06,2-16.33-1.38-2.76-2.26-5.8-3.83-8.46a39.16,39.16,0,0,1-2.64-4.95,17.1,17.1,0,0,1-.47-11.42,1.55,1.55,0,0,0-1.82.09,3.78,3.78,0,0,0-1.1,1.6,14.17,14.17,0,0,0-1.09,6.71,2.65,2.65,0,0,1-.19,1.64,2.06,2.06,0,0,1-1.78.75,15.58,15.58,0,0,1-4.12-.74,38.19,38.19,0,0,0-12.69-1.05,5.92,5.92,0,0,0-2.48.6,2.29,2.29,0,0,0-1.27,2.07l10.14,1.49a4.19,4.19,0,0,1,2.14.73,1.45,1.45,0,0,1,.29,2,4,4,0,0,1-.7.46,2.09,2.09,0,0,0-.34,2.94,2,2,0,0,0,.42.4,2.2,2.2,0,0,1,.69.48c.42.56-.13,1.29-.31,2a2.48,2.48,0,0,0,1.22,2.53,9.09,9.09,0,0,0,2.83.95,30.36,30.36,0,0,1,5.8,2,3.21,3.21,0,0,1,1.51,1.13,3.4,3.4,0,0,1-.18,2.84l-2.64,7.12c-.42,1.12-.83,2.23-1.35,3.31-.67,1.39-1.5,2.7-2.19,4.09a41,41,0,0,0-1.65,4C955.25,431.3,952.6,433.47,952.14,437.32Z" class="cls-6" transform="translate(-21.56 -0.01)"/><path d="M515.43,162.06V497.47a111.23,111.23,0,0,0-34.63-5.34c-49.87,0-90.37,35.29-90.37,85.16s40.5,84.77,90.37,84.77,90.62-36.72,90.62-90V339.14h263V497.47a111.23,111.23,0,0,0-34.63-5.34c-49.87,0-90.37,35.29-90.37,85.16s40.5,84.77,90.37,84.77,90.62-36.72,90.62-90v-410Zm319,125h-263v-69h263Z" class="cls-10" transform="translate(-21.56 -0.01)"/><path d="M249.43,125.06v225.1a85.16,85.16,0,1,0,42.6,73.6V210.36h85.4v-85.3Z" class="cls-10" transform="translate(-21.56 -0.01)"/><path d="M226.6,652.62A54.11,54.11,0,0,0,211,647.08a72.1,72.1,0,0,0,11.71-2.63c10.17-3.22,15.3-7.54,11.45-9.65s-15.22-1.22-25.39,2a39.22,39.22,0,0,0-9.75,4.33c-1.05-2.23-3.91-4.82-8.37-7.27-9-5-21.18-7.47-27.12-5.59s-3.43,7.42,5.61,12.39a53.8,53.8,0,0,0,14,5.21,82.93,82.93,0,0,0-9.65,1.71c-11.07,2.66-17.47,6.67-14.3,9s14.73,2,25.8-.64a48.25,48.25,0,0,0,11.6-4.1c.91,2.3,3.82,5,8.52,7.61,9,5,21.18,7.47,27.12,5.59S235.6,657.58,226.6,652.62Z" class="cls-10" transform="translate(-21.56 -0.01)"/><path d="M290.31,579.54a26.34,26.34,0,0,0-7.59-2.69,35.84,35.84,0,0,0,5.68-1.27c4.94-1.57,7.43-3.66,5.56-4.69s-7.39-.59-12.33,1a19.62,19.62,0,0,0-4.73,2.1c-.51-1.08-1.9-2.34-4.06-3.53-4.39-2.41-10.29-3.62-13.17-2.71s-1.66,3.61,2.72,6a26.4,26.4,0,0,0,6.82,2.52,41.51,41.51,0,0,0-4.69.84c-5.37,1.28-8.48,3.23-6.94,4.35s7.15,1,12.52-.31a24,24,0,0,0,5.64-2c.44,1.11,1.85,2.44,4.13,3.69,4.39,2.41,10.28,3.63,13.17,2.72S294.7,582,290.31,579.54Z" class="cls-10" transform="translate(-21.56 -0.01)"/><path d="M118.92,505.45a16.6,16.6,0,0,0-4.78-1.68,21,21,0,0,0,3.58-.8c3.09-1,4.65-2.29,3.48-2.93s-4.62-.37-7.71.61a12.31,12.31,0,0,0-3,1.31,5.83,5.83,0,0,0-2.54-2.2c-2.74-1.51-6.43-2.27-8.24-1.7s-1,2.25,1.71,3.76a16.25,16.25,0,0,0,4.27,1.58,24.48,24.48,0,0,0-2.94.53c-3.36.8-5.31,2-4.35,2.72s4.48.61,7.84-.19a15.3,15.3,0,0,0,3.53-1.25,5.62,5.62,0,0,0,2.58,2.31c2.75,1.51,6.44,2.27,8.24,1.7S121.66,507,118.92,505.45Z" class="cls-10" transform="translate(-21.56 -0.01)"/><path d="M364.43,125.06v71.3H279v213.4a85.27,85.27,0,0,1-138.19,66.89A85.28,85.28,0,0,0,293,423.76V210.36h85.4v-85.3Z" class="cls-11" transform="translate(-21.56 -0.01)"/><path d="M123.47,143.58l.29,2.18,9.45,1.34s.77-.58,2-1.37c2.24-1.47,6-3.66,9.2-4.28,5-1,20.69-8,15.62-8.51s-4.55.59-4.55.59-5.59-5.49-11.36-.47c-4.38,3.81-14,7.91-18.39,9.66C124.33,143.27,123.47,143.58,123.47,143.58Z" class="cls-12" transform="translate(-21.56 -0.01)"/><path d="M161.22,118.52a15.82,15.82,0,0,1,4.53-1.16,5.5,5.5,0,0,1,4.31,1.44c.61.63,1,1.44,1.6,2.08,2.88,3.08,8.47.78,11.94,3.17,2.13,1.48,2.79,4.27,3.55,6.76s2.14,5.22,4.68,5.75a13.83,13.83,0,0,0,3.69-.14,3.64,3.64,0,0,1,3.32,1.22c1.18,1.79-.45,4.78,1.26,6.06,1.53,1.13,4.3-.45,5.37,1.12a2.35,2.35,0,0,1-.37,2.6,17.32,17.32,0,0,0-1.74,2.18,3.3,3.3,0,0,0,1.38,4.46,3.38,3.38,0,0,0,1.87.36c1.08-.11,2.23-.72,3.17-.19a2.23,2.23,0,0,1,1,1.77,4.65,4.65,0,0,1-4.18,4.89c-1.84.12-3.53-.88-5.17-1.72s-3.57-1.55-5.27-.85a8,8,0,0,0-2.12,1.49,23.11,23.11,0,0,1-6.52,3.86c-2.08.82-4.5,1.31-6.5.29-2.25-1.15-3.41-4-5.79-4.8s-5.1.74-7.38,2.09-5.33,2.48-7.39.82c-2.22-1.79-1.54-5.38-2.89-7.89a7.87,7.87,0,0,0-2.17-2.39c-1.52-1.17-3.25-2-4.78-3.2a8,8,0,0,1-3.26-4.58c-.45-2.27.63-4.54,1.86-6.5s2.66-3.88,3.06-6.15c.3-1.7,0-3.47.39-5.15a6.35,6.35,0,0,1,4.12-4.35c1.12-.38,1.32-.28,1.89-1.27A4,4,0,0,1,161.22,118.52Z" class="cls-4" transform="translate(-21.56 -0.01)"/><g class="cls-9"><path d="M199.11,138.33a8.42,8.42,0,0,1,.18,3A8,8,0,0,1,199.11,138.33Z" transform="translate(-21.56 -0.01)"/><path d="M203.39,149.78a3.27,3.27,0,0,0-.34,1.1,3.38,3.38,0,0,1,.12-2.8,17.23,17.23,0,0,1,1.74-2.17,3.47,3.47,0,0,0,.5-1l.08.09a2.33,2.33,0,0,1-.36,2.59A17.42,17.42,0,0,0,203.39,149.78Z" transform="translate(-21.56 -0.01)"/><path d="M150.42,147.1c1.53,1.16,3.25,2,4.77,3.21a7.52,7.52,0,0,1,2.17,2.39c1.35,2.51.67,6.1,2.89,7.89,2.06,1.66,5.12.54,7.4-.82s4.88-3,7.37-2.09,3.54,3.65,5.8,4.8c2,1,4.41.52,6.5-.29a23.3,23.3,0,0,0,6.51-3.86,8.76,8.76,0,0,1,2.12-1.5c1.71-.69,3.64,0,5.28.86s3.33,1.84,5.16,1.72a4.7,4.7,0,0,0,4.15-4.11,3,3,0,0,1,.22.88,4.64,4.64,0,0,1-4.15,4.92c-1.83.12-3.53-.88-5.16-1.71s-3.57-1.55-5.28-.86a8.72,8.72,0,0,0-2.12,1.49,23.19,23.19,0,0,1-6.51,3.87c-2.08.81-4.51,1.3-6.5.29-2.26-1.15-3.41-4-5.8-4.8s-5.1.73-7.37,2.09-5.34,2.48-7.4.81c-2.22-1.79-1.54-5.37-2.89-7.89a7.72,7.72,0,0,0-2.17-2.38c-1.51-1.17-3.24-2-4.77-3.21a8,8,0,0,1-3.27-4.58,5.41,5.41,0,0,1-.1-1.2A8.33,8.33,0,0,0,150.42,147.1Z" transform="translate(-21.56 -0.01)"/></g><path d="M154.47,199l-3.43.73s3.38,5.56,8.59,1.91S154.47,199,154.47,199Z" class="cls-13" transform="translate(-21.56 -0.01)"/><path d="M154.47,199l-3.43.73s3.38,5.56,8.59,1.91S154.47,199,154.47,199Z" class="cls-11" transform="translate(-21.56 -0.01)"/><path d="M228.92,250.79s4.76,2.46,9.19,5.31c3.18,2,6.19,4.27,7.17,5.94,2.36,4,13.83,8.34,13.83,8.34L270.49,279c2.68.89,5.29,4.15,6.36,5.61.32.44.51.72.51.72l4.56-.59,2.4-3.12s.61-6.88-4.13-6.8a6.53,6.53,0,0,1-2.67-.69c-5.1-2.25-12.23-9.35-12.23-9.35s-12.12-15.14-15.75-15.64a6.35,6.35,0,0,1-1.14-.29c-3.69-1.29-9-6-9-6Z" class="cls-12" transform="translate(-21.56 -0.01)"/><path d="M181.91,294.56c1.21,7.27,6.72,21.17,8.49,24.07,2.2,3.59,3.35,10.78,3.35,10.78l.65,5a5.91,5.91,0,0,0,.72,1.94,9.43,9.43,0,0,0,.64,1l9.13-2.81s-.53-2.1-1.33-4.51-2-5.44-3.14-6.56c-2.23-2.19-2.56-9.92-2.56-9.92s-1.86-14.86-2.43-16.73a25.55,25.55,0,0,1-1-5.48c-.09-1-.15-2.14-.16-3.43a70.18,70.18,0,0,0-1.44-11l-10.65,1.93-.28,11.91A7.92,7.92,0,0,0,181.91,294.56Z" class="cls-12" transform="translate(-21.56 -0.01)"/><path d="M276.85,284.65c.32.44.51.72.51.72l4.56-.59,2.4-3.12s.61-6.88-4.13-6.8a6.53,6.53,0,0,1-2.67-.69c-.39,2.06,1.92,3.77,1.92,3.77s1,.7.73,3.93C280,284.07,278.07,284.54,276.85,284.65Z" class="cls-11" transform="translate(-21.56 -0.01)"/><path d="M276.35,285.07c.3,1.11,3.18,2.74,5.18,3.76,1,.5,1.75.85,1.9.93.46.23,2.88-2.46,3.21-4.63s6.1-8.92,6.1-8.92a24.26,24.26,0,0,0,2.14-8.45c.22-2.95-1-3.19-2.45-2.52a9.7,9.7,0,0,0-2.74,2.15,7.32,7.32,0,0,1-3.55,1.84,17.37,17.37,0,0,0-5.11,2.18c-1.4.9-2.76,2-3,3-.53,2.13,1.89,3.93,1.89,3.93s1,.7.73,3.93S276.32,285,276.35,285.07Z" class="cls-14" transform="translate(-21.56 -0.01)"/><path d="M281.53,288.83c1,.5,1.75.85,1.9.93.46.23,2.88-2.46,3.21-4.63s6.1-8.92,6.1-8.92a24.26,24.26,0,0,0,2.14-8.45c.22-2.95-1-3.19-2.45-2.52-.24,2.34-.83,6.89-2,9.26C289,277.32,283.12,286.38,281.53,288.83Z" class="cls-11" transform="translate(-21.56 -0.01)"/><path d="M195.21,336.17l-.09.17a9.43,9.43,0,0,0,.64,1l9.13-2.81s-.53-2.1-1.33-4.51c-3.61-1-8.79,5.31-8.79,5.31Z" class="cls-11" transform="translate(-21.56 -0.01)"/><path d="M194.6,343s7.62,2.67,11,2.26c2.61-.31,2.72-1.52,2.54-4-.06-.8-.14-1.72-.19-2.78-.17-4.4-1.94-5.29-1.94-5.29-2.9-7.6-11.25,2.6-11.25,2.6l.43.84a9.28,9.28,0,0,0-.85,4.15A12.69,12.69,0,0,0,194.6,343Z" class="cls-14" transform="translate(-21.56 -0.01)"/><path d="M194.6,343s7.62,2.67,11,2.26c2.61-.31,2.72-1.52,2.54-4a8.06,8.06,0,0,1-6.21,1.78,24.55,24.55,0,0,1-7.59-2.26A12.69,12.69,0,0,0,194.6,343Z" class="cls-11" transform="translate(-21.56 -0.01)"/><path d="M156.83,158.15l3,13,.61,2.68,5.51.7,5.68.72,6.18-2.24s1.72-5.88.3-10.29a6.53,6.53,0,0,0-2.86-3.77,6.64,6.64,0,0,1-1.19-.92,5.26,5.26,0,0,1-1-1.43,5.91,5.91,0,0,1-.53-2.07c-.31-3.51,1.91-7.35,1.91-7.35s-13.1-4.47-12.08-1.58c.67,1.87-1.18,5.13-2.56,7.19-.75,1.11-1.36,1.88-1.36,1.88Z" class="cls-12" transform="translate(-21.56 -0.01)"/><circle cx="147.09" cy="141.75" r="11.38" class="cls-11"/><circle cx="147.04" cy="141.33" r="11.38" class="cls-12"/><path d="M157.65,201.41c.54,2.51,3,6.46,3,6.46l15.89,3.9,11.35-11.88v-.08c-.35-1.11-4.68-15.12-1.55-18.57,3.28-3.59,2-13.72,2-13.72s-5.67-6.52-6.82-8.1S173,156.6,173,156.6c.37.5.71,1,1,1.43a13.78,13.78,0,0,1,1.81,3.84,5.77,5.77,0,0,1-.15,4.17,4.58,4.58,0,0,0-.39,1.07c-1.24,5.43-6.9,4.67-9.15,4.13-.58-.14-.94-.26-.94-.26l-5.41.17-3.4.11s1.55,26.78,1.18,28.91A3.23,3.23,0,0,0,157.65,201.41Z" class="cls-5" transform="translate(-21.56 -0.01)"/><path d="M156.47,172.64l9.85-1.29h-.18c-.58-.14-.93-.26-.93-.26l-5.42.17-3.39.11S156.42,171.81,156.47,172.64Z" class="cls-15" transform="translate(-21.56 -0.01)"/><polygon points="145.96 209.57 150.23 210.62 156.96 209.74 158.71 207.91 145.96 209.57" class="cls-15"/><polygon points="153.07 211.31 155 211.78 155.79 210.96 153.07 211.31" class="cls-15"/><path d="M157.65,201.41c2.54.26,4.88.39,4.88.39l13.09-.49V187.64a19.35,19.35,0,0,0-5.28-3.48c-2.28-.79-5-3.21-4.46-9.59a9.14,9.14,0,0,1,.11-1.14,15.41,15.41,0,0,0,.12-2.15,11.51,11.51,0,0,0-3.63-8.42,1.54,1.54,0,0,0-.19-.17l-2.13-9.92a3,3,0,0,0-.43.06c-.75,1.11-1.36,1.88-1.36,1.88l-1.57,3.44,3,13-3.4.11S158,198,157.58,200.17A3.46,3.46,0,0,0,157.65,201.41Z" class="cls-11" transform="translate(-21.56 -0.01)"/><path d="M162.1,201.89l13.09-.48V187.73a19.69,19.69,0,0,0-5.27-3.48c-2.41-.84-5.28-3.48-4.35-10.73a11.87,11.87,0,0,0-3.48-10.63l-.2-.17-2.13-9.92a4.61,4.61,0,0,0-3.37,1.93,7.65,7.65,0,0,1-.79,1.16,2,2,0,0,1-2.63.78c-1.38-.61-7.32-3.12-8.65-.66s-1.58,17.11-1.58,17.11a11.21,11.21,0,0,1,3.85,6.33c.91,4.19,2.43,4.29,2.43,4.29l1.64,12s1.49,2.61.38,4" class="cls-14" transform="translate(-21.56 -0.01)"/><path d="M155.6,155.89l2.23,6.68,4.26.37-.2-.17-2.13-9.92a4.61,4.61,0,0,0-3.37,1.93A8.6,8.6,0,0,1,155.6,155.89Z" class="cls-14" transform="translate(-21.56 -0.01)"/><path d="M123.47,143.58l.29,2.18,9.45,1.34s.77-.58,2-1.37c-1-.23-5.7-1.25-8.16-2-.91-.28-1.51-.52-1.53-.68s.06-.19.21-.31Z" class="cls-11" transform="translate(-21.56 -0.01)"/><path d="M112.39,157.69s10.71,8.13,17.35,9.44c0,0,9.34,2.76,13,6l4-15.42L144.29,156s-2.93,1.81-5.45,1.21-5.31-1-5.31-1a41.12,41.12,0,0,0-6.79-1.86c-1.8-.15-1.07-2.49.73-3.73a3.69,3.69,0,0,1,.75-.42,2.33,2.33,0,0,0,3,.68,6.87,6.87,0,0,0,1.76-1.64h0a24.07,24.07,0,0,0,2-3s-5.59-1.2-8.37-2.06c-.91-.28-1.51-.52-1.53-.68-.08-.64,5-2.66,5-2.66s-4.34-2.1-6.1-.57c0,0,1.14.85.22,1.69s-12,9.37-12,9.37S106.73,154,112.39,157.69Z" class="cls-14" transform="translate(-21.56 -0.01)"/><path d="M121.6,149.8l5.93.85a3.69,3.69,0,0,1,.75-.42,2.33,2.33,0,0,0,3,.68,6.87,6.87,0,0,0,1.76-1.64h0a24.69,24.69,0,0,0,1.62-2.53s-5.59-1.2-8.37-2.06Z" class="cls-11" transform="translate(-21.56 -0.01)"/><path d="M121.94,149.32l6.31.91a2.33,2.33,0,0,0,3,.68c1.81-1,3.76-4.66,3.76-4.66s-5.59-1.2-8.37-2.06Z" class="cls-14" transform="translate(-21.56 -0.01)"/><path d="M239.43,242.89l-10.51,8s4.76,2.46,9.19,5.31c3.87-2.62,7.52-5,10.29-7.21C244.71,247.6,239.43,242.89,239.43,242.89Z" class="cls-11" transform="translate(-21.56 -0.01)"/><path d="M181.91,294.56a35.71,35.71,0,0,0,7.7-1.84s1.94-.42,4.82-1.38c-.09-1-.15-2.14-.16-3.43a70.18,70.18,0,0,0-1.44-11l-10.65,1.93-.28,11.91A7.92,7.92,0,0,0,181.91,294.56Z" class="cls-11" transform="translate(-21.56 -0.01)"/><path d="M162.93,246.24c2.14,3.17,8,16.65,8,16.65a57.25,57.25,0,0,0,4.46,6.87c2.33,2.93,3.94,9.52,5.71,14.79s-.52,4.28-.27,7,10.26-.8,10.26-.8,20.45-4.5,26.7-17S249,249.93,254.05,242.9s-1.43-4.13-1.18-7.94-2.63-7-2.63-7-9.42-2.66-11-4.51-9-6.48-9-6.48-7.09-3.07-8-4.14-9.31-4.39-11.88-5-5.09-4.3-5.09-4.3-1.59.21-3.94-2.07-12.21-4.24-12.21-4.24c-16.83,12.4-28.46,10.67-28.46,10.67l-.27,2.34C151.44,221.89,160.79,243.07,162.93,246.24Z" class="cls-14" transform="translate(-21.56 -0.01)"/><path d="M160.39,210.21s14.55,4.79,28.74-12.93c-16.84,12.34-28.47,10.61-28.47,10.61Z" class="cls-11" transform="translate(-21.56 -0.01)"/><path d="M185.43,218.48s19.54,28.21,20.75,29.24S186.46,218.13,185.43,218.48Z" class="cls-11" transform="translate(-21.56 -0.01)"/><path d="M176.4,216.32s13.53,21,13.26,23.84C189.66,240.16,176.6,220,176.4,216.32Z" class="cls-11" transform="translate(-21.56 -0.01)"/><path d="M168.52,222.09s2.5,11.75-1.26,18.41Z" class="cls-11" transform="translate(-21.56 -0.01)"/><path d="M163.32,222.77s-.16,10.17-1.3,12.26Z" class="cls-11" transform="translate(-21.56 -0.01)"/><polygon points="174.9 213.69 192.87 220.74 186.29 221.59 174.9 213.69" class="cls-11"/><path d="M161.08,135c.9.6,1.65,1.55,2.72,1.69a4.26,4.26,0,0,0,2.21-.54c1.79-.78,3.81-1.38,5.67-.77,2.64.87,4.09,3.91,6.72,4.81a4.79,4.79,0,0,0,2.52.14,4.88,4.88,0,0,0,1.42-.58,4.62,4.62,0,0,0,2-2.84,5.89,5.89,0,0,0-2-5.54,12.25,12.25,0,0,0-5.59-2.54c-5.28-1.17-10.77-.78-16.16-.37a2.33,2.33,0,0,0-1.26.33c-.82.61-2.22,3.68-1.93,4.72C157.8,134.89,160.93,133.89,161.08,135Z" class="cls-11" transform="translate(-21.56 -0.01)"/><path d="M161,134.61c.9.59,1.64,1.55,2.72,1.69a4.23,4.23,0,0,0,2.2-.55c1.79-.78,3.82-1.38,5.67-.77,2.64.88,4.09,3.92,6.72,4.81a4.69,4.69,0,0,0,2.52.14,4.6,4.6,0,0,0,1.42-.57,4.65,4.65,0,0,0,2.06-2.84,5.9,5.9,0,0,0-2.05-5.55,12.33,12.33,0,0,0-5.59-2.53c-5.28-1.18-10.76-.78-16.16-.38a2.34,2.34,0,0,0-1.26.34c-.81.6-2.22,3.68-1.93,4.72C157.75,134.51,160.88,133.45,161,134.61Z" class="cls-4" transform="translate(-21.56 -0.01)"/><path d="M230.6,143l1.72,7,2.23-1.35,12.12-7.31s9.18-.34,9.89-7.72-10.2-.07-10.78.49-1.9,1.55-1.9,1.55l-11.28,6.3Z" class="cls-12" transform="translate(-21.56 -0.01)"/><path d="M230.6,143l1.72,7,2.23-1.35c-.49-3.14-1.26-6-2-6.7Z" class="cls-11" transform="translate(-21.56 -0.01)"/><path d="M170.78,188.42l2.47,14.5,14.62-3c-.35-1.11-4.68-15.12-1.55-18.57,3.28-3.59,2-13.72,2-13.72s-5.67-6.52-6.82-8.1-8.51-2.82-8.51-2.82a5.91,5.91,0,0,1-.53-2.07,8,8,0,0,0-.56,1.55c0,2.64,1.07,4.46,3.9,5.79.25.12.51.23.79.34.44.18.93.35,1.45.51l.24.07c4.71,1.4,5.73,4.22,5.73,4.22a10.79,10.79,0,0,1,2.14,7.6C185.69,179.14,170.78,188.42,170.78,188.42Z" class="cls-11" transform="translate(-21.56 -0.01)"/><path d="M171.6,188.31l2.47,14.49,16.53-3.44s-.5-5.47-1.65-7.69-.92-10.89-.92-10.89c7-7.54,3.32-13.67,3.32-13.67s20.57-3.34,20.92-4,7.21-4.32,7.21-4.32,7.45-1.91,8.46-3a8.55,8.55,0,0,1,1.22-1.11,3.42,3.42,0,0,1,.4-.26l.55,4.75h.25a6.84,6.84,0,0,0,3.24-1.28c1.7-1.3-.45-15.55-2.1-16a1.91,1.91,0,0,0-.95,0,10.74,10.74,0,0,0-3.55,1.92l-.29.23-.1.09s-9.31,3.65-11.17,5.33-16.34,3.81-16.34,3.81-6.49,1.54-7.33.61-10.75-2.45-11.58-1-3.13,1.19-3.13,1.19c-1.63-1.88-2.76-1.15-3.45-.07a7.55,7.55,0,0,0-.88,2.09c0,2.88,1.27,4.77,4.69,6.13.52.2,1.08.4,1.69.58,4.72,1.4,5.73,4.22,5.73,4.22a10.8,10.8,0,0,1,2.15,7.6C186.54,179,171.6,188.31,171.6,188.31Z" class="cls-14" transform="translate(-21.56 -0.01)"/><path d="M230.6,141.89a1.57,1.57,0,0,1,.53.06c1.65.5,3.79,14.76,2.09,16.06a6.68,6.68,0,0,1-2.89,1.25h-.25l-.55-4.75a3.42,3.42,0,0,0-.4.26v-.2A12.36,12.36,0,0,0,226.78,144Z" class="cls-11" transform="translate(-21.56 -0.01)"/><path d="M229.52,154.49l.55,4.75a6.68,6.68,0,0,0,3.53-1.35c1.7-1.3-.45-15.55-2.1-16-1.3-.4-3.59,1.22-4.5,1.91A12.37,12.37,0,0,1,229.52,154.49Z" class="cls-14" transform="translate(-21.56 -0.01)"/><path d="M177.46,162.14l2.37-2.22-6.18-6a7.55,7.55,0,0,0-.88,2.09C172.79,158.89,174,160.78,177.46,162.14Z" class="cls-14" transform="translate(-21.56 -0.01)"/><path d="M160.92,133.76c.9.59,1.64,1.55,2.72,1.69a4.23,4.23,0,0,0,2.2-.55c1.79-.78,3.82-1.38,5.67-.77,2.64.88,4.09,3.92,6.72,4.81a4.69,4.69,0,0,0,2.52.14,4.57,4.57,0,0,0,3.48-3.41,4.52,4.52,0,0,0,.11-1.27,4.74,4.74,0,0,1,0,2.12,4.65,4.65,0,0,1-2.06,2.84,4.6,4.6,0,0,1-1.42.57,4.66,4.66,0,0,1-2.51-.14c-2.64-.89-4.09-3.93-6.73-4.81-1.85-.61-3.88,0-5.67.77a4.23,4.23,0,0,1-2.2.55c-1.07-.14-1.82-1.1-2.72-1.69-.15-1.16-3.28-.1-3.67-1.49a1.72,1.72,0,0,1,0-.64C158,133.55,160.77,132.67,160.92,133.76Z" class="cls-11" transform="translate(-21.56 -0.01)"/><path d="M170.6,166.49s-1.31,3.68.36,4.92c0,0-1.83-4.87-2.89-4.76" class="cls-11" transform="translate(-21.56 -0.01)"/><path d="M252.05,130.65s-8.45,7.31-2.34,8.49S252.05,130.65,252.05,130.65Z" class="cls-12" transform="translate(-21.56 -0.01)"/><g class="cls-9"><path d="M821.44,333.14h-263V566.08c0,53.26-40.75,90-90.62,90A100.12,100.12,0,0,1,433,650a97.5,97.5,0,0,0,47.82,12.11c49.87,0,90.62-36.72,90.62-90V339.14h250Z" transform="translate(-21.56 -0.01)"/><polygon points="536.86 281.05 549.86 281.05 549.86 218.03 799.88 218.03 799.88 212.03 536.86 212.03 536.86 281.05"/><path d="M877.43,162.06v404c0,53.26-40.75,90-90.62,90A100.12,100.12,0,0,1,752,650a97.5,97.5,0,0,0,47.82,12.11c49.87,0,90.62-36.72,90.62-90v-410Z" transform="translate(-21.56 -0.01)"/></g><path d="M579.83,69.89c6.45,13.33,17,28.49,28.93,22.7s20.84-30.35,14.39-43.7S601.76,29.47,589.8,35.26,573.37,56.58,579.83,69.89Z" class="cls-10" transform="translate(-21.56 -0.01)"/><path d="M605.36,101s2.33-.39,1.44-2.31a3.43,3.43,0,0,0-.28-.49,6.12,6.12,0,0,1-.89-2.48,9.17,9.17,0,0,1,.11-3.09l-6.35-.42s2.47,2.1,2.18,3.2a.62.62,0,0,1-.29.38,1.05,1.05,0,0,1-.42.18l-.48.14c-1.67.59-1,1.43-1,1.43C599.6,100.31,605.36,101,605.36,101Z" class="cls-10" transform="translate(-21.56 -0.01)"/><path d="M601.28,95.82l4.48.62a5.58,5.58,0,0,1-.13-.69c-1.14,0-2.93-.2-4.06-.31A.62.62,0,0,1,601.28,95.82Z" class="cls-14" transform="translate(-21.56 -0.01)"/><path d="M605.36,101s2.33-.39,1.44-2.31a7.27,7.27,0,0,1-2.75.11,6.1,6.1,0,0,1-3.67-2.69c-1.67.59-1,1.43-1,1.43C599.6,100.31,605.36,101,605.36,101Z" class="cls-10" transform="translate(-21.56 -0.01)"/><path d="M605.36,101s2.33-.39,1.44-2.31a7.27,7.27,0,0,1-2.75.11,6.1,6.1,0,0,1-3.67-2.69c-1.67.59-1,1.43-1,1.43C599.6,100.31,605.36,101,605.36,101Z" class="cls-11" transform="translate(-21.56 -0.01)"/><path d="M602,36.66s7.1-.86,9.11,3.87a5.79,5.79,0,0,0-2.55.15,3.52,3.52,0,0,1-1.66.32A9.54,9.54,0,0,0,602,36.66Z" class="cls-16" transform="translate(-21.56 -0.01)"/><path d="M609.6,133a2.52,2.52,0,0,0,.4-.4,5.53,5.53,0,0,1,1.52-1.2,4.65,4.65,0,0,1,.63-.32,9.23,9.23,0,0,1,2-.6,8.27,8.27,0,0,1,1-.11l-.9-4.3v-.06l-.39-1.87a13.56,13.56,0,0,1-.9,1.57c-.46.7-1,1.37-1.6,1.38a.68.68,0,0,1-.45-.17,1.4,1.4,0,0,1-.28-.36c-.1-.16-.18-.3-.27-.43-1-1.44-1.63-.54-1.63-.54-1.14.41-1.61,1.77-1.78,3.14a1.94,1.94,0,0,1-.06.59,15.71,15.71,0,0,0,.1,2.91S608,134.42,609.6,133Z" class="cls-10" transform="translate(-21.56 -0.01)"/><path d="M611.6,131.44a4.65,4.65,0,0,1,.63-.32c-.22-.93-.49-2.33-.68-3.43v-.23a.68.68,0,0,0-.06-.33A.68.68,0,0,1,611,127l.1.67v.27Z" class="cls-14" transform="translate(-21.56 -0.01)"/><path d="M609.6,133a7.13,7.13,0,0,1-.84-2.62,5.8,5.8,0,0,1,.19-1.66c0-.16.09-.32.15-.47a4.94,4.94,0,0,1,1.26-2.12c-1-1.44-1.63-.54-1.63-.54-1.14.41-1.61,1.77-1.78,3.14a1.94,1.94,0,0,1-.06.59,15.71,15.71,0,0,0,.1,2.91S608,134.42,609.6,133Z" class="cls-10" transform="translate(-21.56 -0.01)"/><path d="M609.6,133a7.13,7.13,0,0,1-.84-2.62,5.8,5.8,0,0,1,.19-1.66c0-.16.09-.32.15-.47a4.94,4.94,0,0,1,1.26-2.12c-1-1.44-1.63-.54-1.63-.54-1.14.41-1.61,1.77-1.78,3.14a1.94,1.94,0,0,1-.06.59,15.71,15.71,0,0,0,.1,2.91S608,134.42,609.6,133Z" class="cls-11" transform="translate(-21.56 -0.01)"/><path d="M566.35,91.89c5.4,3.47,11.63,6.83,17.55,8.61,4.55,1.38,8.91,1.82,12.56.66a11.46,11.46,0,0,0,4.26-2.46,12.28,12.28,0,0,0,2.15-2.56c4.23-6.61,4.15-18.23.8-28.29-2.34-7-6.22-13.2-11.33-16.48-12.46-8-28.38-5.4-35.56,5.79S553.89,83.89,566.35,91.89Z" class="cls-10" transform="translate(-21.56 -0.01)"/><path d="M566.35,91.89c5.4,3.47,11.63,6.83,17.55,8.61,4.55,1.38,8.91,1.82,12.56.66a11.46,11.46,0,0,0,4.26-2.46,12.28,12.28,0,0,0,2.15-2.56c4.23-6.61,4.15-18.23.8-28.29-2.34-7-6.22-13.2-11.33-16.48-12.46-8-28.38-5.4-35.56,5.79S553.89,83.89,566.35,91.89Z" class="cls-11" transform="translate(-21.56 -0.01)"/><path d="M597.51,105.3c1.59,2.22,6.86-.16,6.86-.16s1.79-1.54,0-2.71a4.76,4.76,0,0,0-.49-.28,5.55,5.55,0,0,1-1.59-1.13c-.16-.16-.32-.33-.47-.51a9.61,9.61,0,0,1-1.12-1.77,7.61,7.61,0,0,1-.39-.93l-5.64,3a12,12,0,0,1,1.77.43c.81.26,1.61.64,1.76,1.16a.66.66,0,0,1,0,.48,1.26,1.26,0,0,1-.27.37,3.8,3.8,0,0,0-.33.37C596.46,105,597.51,105.3,597.51,105.3Z" class="cls-10" transform="translate(-21.56 -0.01)"/><path d="M598.18,102.89l4.13-1.82c-.16-.16-.32-.33-.47-.51-1,.54-2.59,1.35-3.62,1.85A.62.62,0,0,1,598.18,102.89Z" class="cls-14" transform="translate(-21.56 -0.01)"/><path d="M597.51,105.3c1.59,2.22,6.86-.16,6.86-.16s1.79-1.54,0-2.71a7,7,0,0,1-2.29,1.52,6.11,6.11,0,0,1-4.52-.37C596.46,105,597.51,105.3,597.51,105.3Z" class="cls-10" transform="translate(-21.56 -0.01)"/><path d="M597.51,105.3c1.59,2.22,6.86-.16,6.86-.16s1.79-1.54,0-2.71a7,7,0,0,1-2.29,1.52,6.11,6.11,0,0,1-4.52-.37C596.46,105,597.51,105.3,597.51,105.3Z" class="cls-11" transform="translate(-21.56 -0.01)"/><path d="M567.88,52s5.61-4.43,9.79-1.45A5.65,5.65,0,0,0,575.58,52a3.63,3.63,0,0,1-1.26,1.14A9.52,9.52,0,0,0,567.88,52Z" class="cls-16" transform="translate(-21.56 -0.01)"/><g class="cls-9"><path d="M628.16,98.66l-1.3-6.23A11.6,11.6,0,0,1,626,94a11.23,11.23,0,0,0,1.2,4.78A8.27,8.27,0,0,1,628.16,98.66Z" transform="translate(-21.56 -0.01)"/><path d="M622.6,101.3a2.52,2.52,0,0,0,.4-.4,5.56,5.56,0,0,1,1.52-1.21,4.65,4.65,0,0,1,.63-.32,9.25,9.25,0,0,1,3-.71l-1.3-6.23A11.6,11.6,0,0,1,626,94c-.46.7-1.05,1.38-1.6,1.39a.72.72,0,0,1-.44-.18,1.34,1.34,0,0,1-.31-.32c-.09-.16-.18-.3-.26-.43-1-1.44-1.64-.53-1.64-.53-2.57.93-1.74,6.64-1.74,6.64S621,102.67,622.6,101.3Z" transform="translate(-21.56 -0.01)"/><path d="M624.52,99.69a4.65,4.65,0,0,1,.63-.32c-.26-1.09-.58-2.86-.79-4a.72.72,0,0,1-.44-.18Z" transform="translate(-21.56 -0.01)"/><path d="M622.6,101.3a7.43,7.43,0,0,1-.84-2.63,6.13,6.13,0,0,1,1.61-4.25c-1-1.44-1.64-.53-1.64-.53-2.57.93-1.74,6.64-1.74,6.64S621,102.67,622.6,101.3Z" transform="translate(-21.56 -0.01)"/><path d="M622.6,101.3a7.43,7.43,0,0,1-.84-2.63,6.13,6.13,0,0,1,1.61-4.25c-1-1.44-1.64-.53-1.64-.53-2.57.93-1.74,6.64-1.74,6.64S621,102.67,622.6,101.3Z" class="cls-11" transform="translate(-21.56 -0.01)"/></g><path d="M621.78,100.06a2.52,2.52,0,0,0,.4-.4,5.53,5.53,0,0,1,1.52-1.2,4.65,4.65,0,0,1,.63-.32,9.25,9.25,0,0,1,3-.71L626,91.2a12.24,12.24,0,0,1-.9,1.57c-.46.7-1,1.38-1.6,1.38a.66.66,0,0,1-.44-.17,1.28,1.28,0,0,1-.29-.36c-.09-.16-.18-.3-.26-.43-1-1.44-1.64-.54-1.64-.54-2.57.94-1.74,6.65-1.74,6.65S620.17,101.44,621.78,100.06Z" class="cls-10" transform="translate(-21.56 -0.01)"/><path d="M623.7,98.46a4.65,4.65,0,0,1,.63-.32c-.26-1.09-.58-2.86-.79-4a.66.66,0,0,1-.44-.17Z" class="cls-14" transform="translate(-21.56 -0.01)"/><path d="M621.78,100.06a7.13,7.13,0,0,1-.84-2.62,6.14,6.14,0,0,1,1.66-4.25c-1-1.44-1.64-.54-1.64-.54-2.57.94-1.74,6.65-1.74,6.65S620.17,101.44,621.78,100.06Z" class="cls-10" transform="translate(-21.56 -0.01)"/><path d="M621.78,100.06a7.13,7.13,0,0,1-.84-2.62,6.14,6.14,0,0,1,1.66-4.25c-1-1.44-1.64-.54-1.64-.54-2.57.94-1.74,6.65-1.74,6.65S620.17,101.44,621.78,100.06Z" class="cls-11" transform="translate(-21.56 -0.01)"/><g class="cls-9"><path d="M616.6,81.89a11.45,11.45,0,0,0,4.62,1.71,9.51,9.51,0,0,1,.46-.9l-5.88-2.44A12.3,12.3,0,0,1,616.6,81.89Z" transform="translate(-21.56 -0.01)"/><path d="M618.6,90.52s2.33.39,2.11-1.72a3.47,3.47,0,0,0-.11-.56,5.45,5.45,0,0,1-.14-1.93,5.36,5.36,0,0,1,.1-.7,9.65,9.65,0,0,1,1.1-2.89l-5.88-2.44a12.18,12.18,0,0,1,.82,1.61c.32.78.54,1.65.24,2.1a.69.69,0,0,1-.4.27,1.14,1.14,0,0,1-.45,0h-.51c-1.76,0-1.36,1-1.36,1C613.39,88,618.6,90.52,618.6,90.52Z" transform="translate(-21.56 -0.01)"/><path d="M616.4,84.28l4,2a5.36,5.36,0,0,1,.1-.7c-1.06-.41-2.7-1.14-3.74-1.6A.66.66,0,0,1,616.4,84.28Z" transform="translate(-21.56 -0.01)"/><path d="M618.6,90.52s2.33.39,2.11-1.72a7.19,7.19,0,0,1-2.64-.78,6.16,6.16,0,0,1-2.61-3.73c-1.76,0-1.36,1-1.36,1C613.39,88,618.6,90.52,618.6,90.52Z" transform="translate(-21.56 -0.01)"/><path d="M618.6,90.52s2.33.39,2.11-1.72a7.19,7.19,0,0,1-2.64-.78,6.16,6.16,0,0,1-2.61-3.73c-1.76,0-1.36,1-1.36,1C613.39,88,618.6,90.52,618.6,90.52Z" class="cls-11" transform="translate(-21.56 -0.01)"/></g><path d="M618.17,89.89s2.33.39,2.11-1.71a3.47,3.47,0,0,0-.11-.56,6.14,6.14,0,0,1,0-2.63,8.33,8.33,0,0,1,.64-2,9.51,9.51,0,0,1,.46-.9l-5.88-2.45a12.3,12.3,0,0,1,.8,1.63c.32.79.54,1.65.24,2.11a.72.72,0,0,1-.4.26,1.14,1.14,0,0,1-.45,0H615c-1.76,0-1.36,1-1.36,1C613,87.37,618.17,89.89,618.17,89.89Z" class="cls-10" transform="translate(-21.56 -0.01)"/><path d="M616,83.66l4,2a5.46,5.46,0,0,1,.1-.69c-1.06-.41-2.7-1.14-3.74-1.6A.69.69,0,0,1,616,83.66Z" class="cls-14" transform="translate(-21.56 -0.01)"/><path d="M618.17,89.89s2.33.39,2.11-1.71a7.41,7.41,0,0,1-2.64-.79A6.14,6.14,0,0,1,615,83.67c-1.76,0-1.36,1-1.36,1C613,87.37,618.17,89.89,618.17,89.89Z" class="cls-10" transform="translate(-21.56 -0.01)"/><path d="M618.17,89.89s2.33.39,2.11-1.71a7.41,7.41,0,0,1-2.64-.79A6.14,6.14,0,0,1,615,83.67c-1.76,0-1.36,1-1.36,1C613,87.37,618.17,89.89,618.17,89.89Z" class="cls-11" transform="translate(-21.56 -0.01)"/><path d="M595.09,117.28a13.5,13.5,0,0,1,.91-1.56c.48-.7,1.07-1.37,1.61-1.37a.63.63,0,0,1,.45.18,1.35,1.35,0,0,1,.28.35c.09.17.18.31.26.44,1,1.46,1.64.55,1.64.55,2.58-.9,1.8-6.63,1.8-6.63s-1-2.15-2.6-.79a3.78,3.78,0,0,0-.41.39,6.39,6.39,0,0,1-2.16,1.51,8.63,8.63,0,0,1-2,.57,6.65,6.65,0,0,1-1,.11Z" class="cls-10" transform="translate(-21.56 -0.01)"/><path d="M597.6,114.35a.63.63,0,0,1,.45.18l-.56-4.49a4.6,4.6,0,0,1-.63.31C597.12,111.45,597.42,113.22,597.6,114.35Z" class="cls-14" transform="translate(-21.56 -0.01)"/><path d="M598.6,115.32c1,1.46,1.64.55,1.64.55,2.58-.9,1.8-6.63,1.8-6.63s-1-2.15-2.6-.79a7,7,0,0,1,.8,2.63A6.07,6.07,0,0,1,598.6,115.32Z" class="cls-10" transform="translate(-21.56 -0.01)"/><path d="M598.6,115.32c1,1.46,1.64.55,1.64.55,2.58-.9,1.8-6.63,1.8-6.63s-1-2.15-2.6-.79a7,7,0,0,1,.8,2.63A6.07,6.07,0,0,1,598.6,115.32Z" class="cls-11" transform="translate(-21.56 -0.01)"/><path d="M593,125.7a19.59,19.59,0,0,0,3-10c.48-.7,1.07-1.37,1.61-1.37a.63.63,0,0,1,.45.18,1.35,1.35,0,0,1,.28.35c.09.17.18.31.26.44,1,1.46,1.64.55,1.64.55,2.58-.9,1.8-6.63,1.8-6.63s-1-2.15-2.6-.79a3.78,3.78,0,0,0-.41.39,6.39,6.39,0,0,1-2.16,1.51,8.63,8.63,0,0,1-2,.57,13.59,13.59,0,0,0-1.85-2.78,22.86,22.86,0,0,0-8.9-5.87C585.48,111.12,588.09,120.46,593,125.7Z" class="cls-11" transform="translate(-21.56 -0.01)"/><path d="M607,128.77a15.89,15.89,0,0,0,2.15-.48c.65-.19,1.29-.41,1.91-.66l.41-.17c.53-.23,1.07-.48,1.61-.76s.81-.42,1.22-.65c7.61-4.39,15-13.22,18.3-22.18a29,29,0,0,0,1.79-7.62,20.56,20.56,0,0,0-.06-4.15,29.36,29.36,0,0,0-3.72-11.21c-.22-.37-.43-.72-.66-1.06-5-7.72-13.41-12.38-22.35-11.44,1.94,5.61,4.7,10.39,8.59,12.88.32.79.54,1.65.24,2.11a.72.72,0,0,1-.4.26,1.14,1.14,0,0,1-.45,0h-.51c-1.76,0-1.36,1-1.36,1-.69,2.65,4.5,5.18,4.5,5.18s2.33.39,2.11-1.71a3.47,3.47,0,0,0-.11-.56,6.14,6.14,0,0,1,0-2.63,8.33,8.33,0,0,1,.64-2,12.45,12.45,0,0,0,3.34,0,18,18,0,0,0,4.56-1.24c-.21.33-.4.66-.58,1a19.69,19.69,0,0,0-3,10c-.46.7-1,1.38-1.6,1.38a.66.66,0,0,1-.44-.17,1.28,1.28,0,0,1-.29-.36c-.09-.16-.18-.3-.26-.43-1-1.44-1.64-.54-1.64-.54-2.57.94-1.74,6.65-1.74,6.65s1,2.14,2.61.76a2.52,2.52,0,0,0,.4-.4,5.53,5.53,0,0,1,1.52-1.2,4.65,4.65,0,0,1,.63-.32,8.21,8.21,0,0,1,2-.59,13,13,0,0,0,1.87,2.77l.4.43-.14.13a79.17,79.17,0,0,0-8.87,9.44,35.43,35.43,0,0,0-2.28,3.18q-.74,1.13-1.38,2.25a19.65,19.65,0,0,0-2.94,10c-.46.7-1,1.37-1.6,1.38a.68.68,0,0,1-.45-.17,1.4,1.4,0,0,1-.28-.36c-.1-.16-.18-.3-.27-.43-1-1.44-1.63-.54-1.63-.54C607.6,126,607.16,127.4,607,128.77Z" class="cls-11" transform="translate(-21.56 -0.01)"/><g class="cls-9"><path d="M618.38,78.75a3.56,3.56,0,0,0,1.68.23,5.74,5.74,0,0,1,2.46.68c-.38-5.12-7.38-6.6-7.38-6.6A9.49,9.49,0,0,1,618.38,78.75Z" transform="translate(-21.56 -0.01)"/><path d="M583.46,97.39c.13,1,.27,2.09.44,3.15,4.55,1.38,8.91,1.82,12.56.66.81.26,1.61.64,1.76,1.16a.66.66,0,0,1,0,.48,1.26,1.26,0,0,1-.27.37,3.8,3.8,0,0,0-.33.37c-1.12,1.37-.07,1.72-.07,1.72,1.59,2.22,6.86-.16,6.86-.16s1.79-1.54,0-2.71a4.76,4.76,0,0,0-.49-.28,5.55,5.55,0,0,1-1.59-1.13c-.16-.16-.32-.33-.47-.51a9.61,9.61,0,0,1-1.12-1.77,12.28,12.28,0,0,0,2.15-2.56c4.23-6.61,4.15-18.23.8-28.29C590.69,69.73,581.67,82.89,583.46,97.39Z" transform="translate(-21.56 -0.01)"/><path d="M595.6,126.46a11.29,11.29,0,0,0,4.61,1.73,7.69,7.69,0,0,1,.47-.9l-5.9-2.4A13.79,13.79,0,0,1,595.6,126.46Z" transform="translate(-21.56 -0.01)"/><path d="M597.6,135.08s2.34.4,2.11-1.71a3.45,3.45,0,0,0-.1-.56,5.51,5.51,0,0,1-.14-1.94,4.08,4.08,0,0,1,.09-.69,8.8,8.8,0,0,1,.64-2,7.69,7.69,0,0,1,.47-.9l-5.89-2.39a13.54,13.54,0,0,1,.8,1.62c.31.79.53,1.66.23,2.11a.64.64,0,0,1-.39.27,1.19,1.19,0,0,1-.46,0h-.5c-1.77,0-1.37,1-1.37,1C592.41,132.56,597.6,135.08,597.6,135.08Z" transform="translate(-21.56 -0.01)"/><path d="M595.42,128.89l4,2a2.61,2.61,0,0,1,.09-.69c-1-.41-2.7-1.14-3.74-1.6A.67.67,0,0,1,595.42,128.89Z" transform="translate(-21.56 -0.01)"/><path d="M597.6,135.08s2.33.39,2.11-1.72a7.19,7.19,0,0,1-2.64-.78,6.1,6.1,0,0,1-2.61-3.72c-1.77,0-1.37,1-1.37,1C592.4,132.56,597.6,135.08,597.6,135.08Z" transform="translate(-21.56 -0.01)"/><path d="M597.6,135.08s2.33.39,2.11-1.72a7.19,7.19,0,0,1-2.64-.78,6.1,6.1,0,0,1-2.61-3.72c-1.77,0-1.37,1-1.37,1C592.4,132.56,597.6,135.08,597.6,135.08Z" class="cls-11" transform="translate(-21.56 -0.01)"/><path d="M618.38,78.75a3.56,3.56,0,0,0,1.68.23,5.74,5.74,0,0,1,2.46.68c-.38-5.12-7.38-6.6-7.38-6.6A9.49,9.49,0,0,1,618.38,78.75Z" class="cls-11" transform="translate(-21.56 -0.01)"/></g><path d="M584.9,98.21c1.81,14.7,6.88,32.44,20.07,30.81s29.52-22,27.71-36.71S618.68,67,605.5,68.66,583.08,83.52,584.9,98.21Z" class="cls-10" transform="translate(-21.56 -0.01)"/><path d="M599,135.89s2.33.4,2.11-1.71a3.45,3.45,0,0,0-.1-.56,5.29,5.29,0,0,1-.15-1.94,4,4,0,0,1,.1-.69,9.07,9.07,0,0,1,1.11-2.89l-5.88-2.45s1.66,2.79,1,3.74a.69.69,0,0,1-.4.27,1.7,1.7,0,0,1-.45,0h-.5c-1.77,0-1.37,1-1.37,1C593.84,133.38,599,135.89,599,135.89Z" class="cls-10" transform="translate(-21.56 -0.01)"/><path d="M596.85,129.67l4,2a4,4,0,0,1,.1-.69c-1.06-.41-2.7-1.14-3.74-1.6A.65.65,0,0,1,596.85,129.67Z" class="cls-14" transform="translate(-21.56 -0.01)"/><path d="M599,135.89s2.33.4,2.11-1.71a7,7,0,0,1-2.64-.79,6,6,0,0,1-2.6-3.72c-1.77,0-1.37,1-1.37,1C593.84,133.38,599,135.89,599,135.89Z" class="cls-10" transform="translate(-21.56 -0.01)"/><path d="M599,135.89s2.33.4,2.11-1.71a7,7,0,0,1-2.64-.79,6,6,0,0,1-2.6-3.72c-1.77,0-1.37,1-1.37,1C593.84,133.38,599,135.89,599,135.89Z" class="cls-11" transform="translate(-21.56 -0.01)"/><path d="M616.6,73.89s7,1.48,7.38,6.6a5.63,5.63,0,0,0-2.47-.67,3.66,3.66,0,0,1-1.67-.24A9.57,9.57,0,0,0,616.6,73.89Z" class="cls-16" transform="translate(-21.56 -0.01)"/><path d="M599.39,131a4.25,4.25,0,0,1,3.89,4.6,3.55,3.55,0,0,1-.1.64c-.88,3-4.5,3.88-6.86,5.85s-3.49,5.12-3.78,8.19a20.06,20.06,0,0,0,5.77,15.88c2.12,2.09,4.68,3.69,6.77,5.81a34.57,34.57,0,0,1,5.85,8.92,21.06,21.06,0,0,1,2.59,7.5c.35,4.21-1.77,8.24-4.3,11.62s-5.56,6.44-7.52,10.18A21.39,21.39,0,0,0,600.47,227a2.12,2.12,0,0,0,.71,1.12.78.78,0,0,0,1.1-.16.47.47,0,0,0,.06-.09" class="cls-17" transform="translate(-21.56 -0.01)"/><path d="M611.68,130.25a2,2,0,0,1,.09,2.54,3.08,3.08,0,0,1-2.44,1.13c-1.13,0-2.39-.35-3.32.31a2.87,2.87,0,0,0-1,2.17,11.2,11.2,0,0,1-.25,2.45,4.85,4.85,0,0,1-1.08,1.76,5.48,5.48,0,0,1-2,1.46c-1.67.65-3.6.06-5.31.6-2.25.71-3.46,3.14-4.14,5.4a15.52,15.52,0,0,0-.49,8.38,29.43,29.43,0,0,0,2.27,5.14,11.59,11.59,0,0,1,1.48,5.36,4.92,4.92,0,0,1-2.82,4.5" class="cls-17" transform="translate(-21.56 -0.01)"/><path d="M608.86,194.8c-2.69,3.58-3.71,9.3-8.11,10.17-2.27.45-4.52-.72-6.55-1.84-4.73-2.64-9.6-5.3-15-6.17s-11.36.38-14.9,4.49c-2.41,2.82-3.4,6.6-5.52,9.64a19.79,19.79,0,0,1-11.2,7.36A45.94,45.94,0,0,1,534,219.61c-1.69-.05-3.53-.18-4.79-1.3a11.66,11.66,0,0,1-2-3.05c-2.17-3.64-6.46-5.64-10.69-5.91s-8.41,1-12.32,2.61c-2,.82-4,1.76-6.14,1.55-3-.3-5.21-2.72-7.06-5a100,100,0,0,1-12.13-19.74" class="cls-17" transform="translate(-21.56 -0.01)"/><path d="M447.51,516.31c1.07-3.89,1.77-7.31,1.77-7.31a15.29,15.29,0,0,1,2-7.41l.05-1.07h0l.3-7.89a27.07,27.07,0,0,0-1.83-4.21c-1.33-2.53.45-11.57.45-11.57S456,464.24,455,456.07s12.2-35.68,12.2-35.68a35.29,35.29,0,0,0-.83-8,6.75,6.75,0,0,1-.09-1.68v-.14c.39-5.35,5-15.24,5-15.24l.17-19.16s-2.27-11.4,2.73-26.39c1.74-5.23,2.89-9.42,3.64-12.66.09-.37.17-.72.24-1.06-9-1.74-15.92-3.16-15.92-3.16s6.11-21.83,9.82-25.55,7-15.74,7-15.74,2.45-15.49-.37-20.15-2.9-12.57-2.9-12.57-6.64-5.22-7.41-7.46-2-7.25-1.9-9.87,1-4.93.81-6.31,2.25-6.54,1.2-9.06a7.05,7.05,0,0,1-.36-2.41v-.07h0a33.23,33.23,0,0,1,.85-6.44,18.25,18.25,0,0,1,6.9-3.35l.17-.59.44-1.53c.24-.15.47-.27.69-.38v-.56l.15-2.24-.88-5.07c-1.76-8.82,10-9.68,10-9.68a6.18,6.18,0,0,1,3.42-2.77c2.38-.74-.12,13.17-1.25,14-.85.64-3.57,4.93-4.88,7h0l-.22.35a4.78,4.78,0,0,1,.52.58l-.56,3-.09.46a12.57,12.57,0,0,1,1.74,3.25s-2.23,2.26-1.9,4.9a15.35,15.35,0,0,1-.94,6c.13-.13,1.7-1.7,3.18-1.25s5.63,1.87,5.63,1.87,3.11.68,2.8,1.35,2,3.8,2,3.8l8.76-7.52c.09-.24.19-.47.27-.72a19.48,19.48,0,0,0,.87-3.46,19.35,19.35,0,0,1-2.66-1,5.9,5.9,0,0,1-2.27-1.58,8.89,8.89,0,0,1-1.21-3.68c-.58-2.48-1.92-4.71-2.86-7.08a22.68,22.68,0,0,1-1.2-12.57,8.31,8.31,0,0,1,1.44-3.61c1.44-1.84,4-2.51,5.83-3.94s3.13-3.7,5.28-4.75c2-.95,4.28-.74,6.41-.3A34.43,34.43,0,0,1,526.26,191c1.2.77,2.51,1.67,3.93,1.46a5.25,5.25,0,0,0,3-2v-.11l.09-.11a14.82,14.82,0,0,1,1.07,6.35,4.22,4.22,0,0,1-.08,1v.35a1.41,1.41,0,0,0,0,.29h0a1.7,1.7,0,0,0,0,.45,3.19,3.19,0,0,0,.74,1.17,5.91,5.91,0,0,1,.65,1,1.15,1.15,0,0,0-.1-.35,5,5,0,0,1,.77,2.69,2.64,2.64,0,0,1-.7,1.87,8.54,8.54,0,0,1-1.42,1,16,16,0,0,1-8.32,16.39c-.1.23-.21.47-.31.71a20.06,20.06,0,0,0-1.88,9.12,2,2,0,0,0,.08.67l.28.36h0s13.88.67,17.27-2.17,8,7.56,8,7.56,4.95,1.15,6,.23,6.84.12,6.84.12a12.55,12.55,0,0,1,8.8-2.83,25.58,25.58,0,0,1,6.51-3.3h.16a7.26,7.26,0,0,1,3.14-.28s7.05-5.38,9.16-8.33,12-13.84,12.08-13.88l.05-.55.17-1.63a6,6,0,0,0,.85.11c.06-.16.13-.35.22-.56a29.3,29.3,0,0,1,2.19-4.55s.08-2.07-.51-2.61.57-8.09.57-8.09,6.7-14.15,11.81-3.2c0,0,10.15,7.36,1.09,15.12,0,0-3.55,1.55-4.1,2.87-.36.86-1.64,3.25-2.49,4.83-.15.26-.28.5-.39.71l.1.09-.18,1.34-.08.52c1.62,1,2.7,2,2.4,2.67a15.25,15.25,0,0,0-1.14,3.68s-12.68,14.68-14.5,21.1c0,0-33.19,18-43.91,19l1.48,9.71s.34,5.81.12,7.87.84,11.49.84,11.49,1.32,13.84,2.81,15.83.89,10.24.89,10.24A68.93,68.93,0,0,0,562,328.25c1.36,5.3,0,11.73,0,11.73s4.93,12.61-7.69,3.7c0,0-6.35-.64-13.66-1.17v.74c0,.94,0,2-.08,3-.17,7.11-.51,16.9-1.11,24.29-1.08,13.06-6.06,38.8-6.06,38.8l-.5,13a17.25,17.25,0,0,1,.23,3.73,24.15,24.15,0,0,1-4,12.89l-1.53,8.59s-2.56,5.62-2.74,9a4.57,4.57,0,0,0,.07.83,6,6,0,0,1,.06,1.34c0,3.94-2.75,13.28-2.75,13.28s-.51,9.5-2,10c-1.23.43,1.42,5.54,2.21,7l.06-.27.17.3a6.86,6.86,0,0,1,.35,2.42,3.45,3.45,0,0,1-1.71,3.28c-2.77,1.54-4.27,2.87-2,3.5.87.25,1.8.34,2.49.63,0-.11.09-.22.13-.32a1.52,1.52,0,0,1,.87,1.71,7,7,0,0,1-1,3.19,34.2,34.2,0,0,1-4.12,6.87l-1.09-.16a5.35,5.35,0,0,0,.59,1.2,4.6,4.6,0,0,0,1.55,1.49,5,5,0,0,0,1.92.74,5.49,5.49,0,0,1,4,2.12c1.34,1.88,2.14,4.42-.75,6.51l-10.31,3.12s-17.6,1.6-16.52-2.29,1.78-7.31,1.78-7.31a15.55,15.55,0,0,1,1.74-6.84,6.65,6.65,0,0,1,.66-1l-.62-.1s-.94-8.72-2.59-10.44c-.38-.4-.46-.7-.35-.92-.16-.48.29-.74.87-.87a1.5,1.5,0,0,0,.11.34,9.77,9.77,0,0,1,1.71-.12s.75-4.52-1-6.25a1.73,1.73,0,0,1-.31-1.36,7.19,7.19,0,0,1,.27-1.85l.06.11c1.09-4.09,4.49-10.52,4.49-10.52s.31-4.13-.77-5.82,1-22.45,1-22.45,0-10.07,1.42-14.71-1.18-10.25-1.18-10.25v-.37l.23-1.58v.1c.39-2.65,1.12-7.45,1.6-9.67.69-3.14.57-18.32.57-18.32l-2.32-6.58-5,11-5.38,14.63s-2.52,3.05-2.7,6.23v.47a8.34,8.34,0,0,1,0,1,8.85,8.85,0,0,1-1.68,5.25s-1.55,7-3.61,8.69-2.19,5.15-2.19,5.15-2.82,10.1-4,11.85c-1,1.47-1.23,5.62-1.27,6.89h0v.37s-.48,3.63-.58,6.7v1a11,11,0,0,0,.2,2.49v-.37a25.78,25.78,0,0,1,.49,6.38c-.08,3.66-.8,8-3.12,10.44-4,4.26-6.41,3.62-6.41,3.62s1.64,5.58,3.87,6.77a1,1,0,0,1,.24.16.55.55,0,0,1,.07-.32,2.69,2.69,0,0,1,.59,2.08c.07,2.43-1.61,6.31-3.14,8.06a4.55,4.55,0,0,1-2,1.05l.35.24c.28.16.53.29.77.4a3.55,3.55,0,0,0,1.15.34,5.41,5.41,0,0,1,4,2.12c1.35,1.88,2.15,4.42-.74,6.51L464,518.59S446.43,520.2,447.51,516.31Z" class="cls-18" transform="translate(-21.56 -0.01)"/><path d="M514.12,525.39l10-3.13c2.8-2.1,2-4.63.73-6.52a5.2,5.2,0,0,0-3.82-2.11,4.64,4.64,0,0,1-1.86-.74,4.45,4.45,0,0,1-1.5-1.49,7.34,7.34,0,0,1-1-3.85S506,504,502.89,507a7.94,7.94,0,0,0-1.38,1.87,16,16,0,0,0-1.65,6.92s-.68,3.41-1.72,7.31S514.12,525.39,514.12,525.39Z" class="cls-19" transform="translate(-21.56 -0.01)"/><path d="M466.09,518.68l10-3.13c2.8-2.1,2-4.63.73-6.51a5.17,5.17,0,0,0-3.83-2.11,3.88,3.88,0,0,1-1.11-.35,4.78,4.78,0,0,1-.74-.4c-2.71-1.62-2.54-5.29-2.54-5.29s-10.69-3.58-13.77-.53a7.63,7.63,0,0,0-1.09,1.37,15.63,15.63,0,0,0-1.94,7.42s-.69,3.42-1.73,7.31S466.09,518.68,466.09,518.68Z" class="cls-19" transform="translate(-21.56 -0.01)"/><path d="M502.89,507a7.94,7.94,0,0,0-1.38,1.87h0l16.14,2.5a7.34,7.34,0,0,1-1-3.85S506,504,502.89,507Z" class="cls-11" transform="translate(-21.56 -0.01)"/><path d="M453.78,501.68l-.12,3c2.36,4.26,14.59,3.82,18.21,1.87a5.29,5.29,0,0,1-.74-.4c-2.7-1.59-2.53-5.26-2.53-5.26s-10.69-3.58-13.77-.53A7.43,7.43,0,0,0,453.78,501.68Z" class="cls-11" transform="translate(-21.56 -0.01)"/><path d="M452.35,488.52a26.79,26.79,0,0,1,1.77,4.21l-.42,10.88c2.58,4.65,17,3.69,19,1.28s4.34-8.8,2.18-10-3.74-6.77-3.74-6.77,2.32.64,6.21-3.62,3.16-14.09,2.56-16.46.4-10.19.4-10.19.07-5.52,1.24-7.26,3.91-11.86,3.91-11.86.13-3.44,2.13-5.16,3.5-8.69,3.5-8.69A9,9,0,0,0,492.7,419c-.28-3.46,2.62-7.07,2.62-7.07l5.25-14.7,4.84-11,2.19,6.65s.1,15.18-.57,18.33-1.82,11.52-1.82,11.52,2.54,5.61,1.12,10.25-1.39,14.7-1.39,14.7-2,20.76-1,22.45.74,5.82.74,5.82-6.12,11.91-4.39,13.63,1,6.25,1,6.25-3.85-.15-2.26,1.57,2.57,10.39,2.57,10.39l16.58,2.57a35,35,0,0,0,4-6.88c2.4-5-.23-4.57-2.43-5.2s-.74-2,1.94-3.51,1.31-5.33,1.31-5.33-3.74-6.91-2.34-7.41,1.91-10,1.91-10,3.18-11.19,2.61-14.25,2.6-10.25,2.6-10.25l1.3-8.64a23.83,23.83,0,0,0,3.66-16.27l.52-13.36s4.85-25.75,5.91-38.82c.67-8.36,1-19.81,1.17-26.95.09-4,.12-6.66.12-6.66l-59.27-8.49a48.48,48.48,0,0,1-1.42,8.8c-.73,3.25-1.85,7.44-3.54,12.67-4.86,15-2.67,26.39-2.67,26.39l-.19,19.16s-5.73,12.61-4.8,17.06a36.44,36.44,0,0,1,.8,8s-12.79,27.51-11.86,35.68-4.66,20.79-4.66,20.79S451.07,486,452.35,488.52Z" class="cls-4" transform="translate(-21.56 -0.01)"/><path d="M489.14,418.07l-18-3.11S481,425.82,489.14,418.07Z" class="cls-8" transform="translate(-21.56 -0.01)"/><path d="M474.42,397.36s-.87,6.38,3,8.94C477.38,406.3,470.4,404.89,474.42,397.36Z" class="cls-11" transform="translate(-21.56 -0.01)"/><path d="M476.31,377s14.67,13.05,20.21,12.23S476.31,377,476.31,377Z" class="cls-11" transform="translate(-21.56 -0.01)"/><path d="M511.37,424.78s11.4,3.06,11.56,7.69S511.37,424.78,511.37,424.78Z" class="cls-11" transform="translate(-21.56 -0.01)"/><path d="M506.6,482.13s16.13,3.65,11.44,5.54a79.19,79.19,0,0,1-12.3,3.22S500.49,491,506.6,482.13Z" class="cls-8" transform="translate(-21.56 -0.01)"/><g class="cls-20"><path d="M521.23,491.08a3.18,3.18,0,0,0,1.57-2.3l.16.3s1.37,3.77-1.31,5.32l-.87.53c-.48-.11-1-.2-1.49-.34C517.09,494,518.6,492.63,521.23,491.08Z" transform="translate(-21.56 -0.01)"/><path d="M500.33,489.17c-.43-.43-.37-1.49-.05-2.84a7.68,7.68,0,0,1,.77,4A3.33,3.33,0,0,0,500.33,489.17Z" transform="translate(-21.56 -0.01)"/><path d="M505.47,420.74a18.46,18.46,0,0,1,.9,5.1,20.7,20.7,0,0,0-1.12-3.53S505.33,421.7,505.47,420.74Z" transform="translate(-21.56 -0.01)"/><path d="M468.53,412.07a6.36,6.36,0,0,1-.09-1.51c.16,1,.27,2,.34,2.84C468.71,413,468.6,412.52,468.53,412.07Z" transform="translate(-21.56 -0.01)"/><path d="M504,469.72a8.88,8.88,0,0,1-.3-3.08,10.19,10.19,0,0,1,.65,3.9A3.49,3.49,0,0,0,504,469.72Z" transform="translate(-21.56 -0.01)"/><path d="M499.6,495.57a53.82,53.82,0,0,1,1.58,8.53l16.58,2.57a35,35,0,0,0,4-6.88c.21-.44.38-.84.52-1.2,1,.5,1.33,1.55-.1,4.52a34.86,34.86,0,0,1-4,6.89l-16.58-2.57s-.91-8.73-2.5-10.45C498.28,496.14,498.82,495.75,499.6,495.57Z" transform="translate(-21.56 -0.01)"/><path d="M522.52,471.68s-.5,9.5-1.9,10h0c-.63-1.6-1-3.11-.41-3.33,1.4-.5,1.9-10,1.9-10s3.19-11.19,2.62-14.25,2.6-10.24,2.6-10.24l1.3-8.64a23.85,23.85,0,0,0,3.66-16.28l.51-13.36s4.86-25.75,5.91-38.81c.68-8.37,1-19.81,1.18-26.95,0-1.29.05-2.44.06-3.41l.48.07s0,2.66-.12,6.66c-.16,7.14-.5,18.59-1.17,26.95-1.06,13.07-5.91,38.82-5.91,38.82l-.52,13.36a23.83,23.83,0,0,1-3.66,16.27l-1.3,8.64s-3.17,7.19-2.6,10.25S522.52,471.68,522.52,471.68Z" transform="translate(-21.56 -0.01)"/><path d="M472.28,501.2a16.16,16.16,0,0,0,2.89-6.45c1.64,1.6-.55,7.49-2.47,9.77s-16.41,3.37-19-1.28l.1-2.62C457.4,504.45,470.36,503.47,472.28,501.2Z" transform="translate(-21.56 -0.01)"/><path d="M451.94,484.82a27.77,27.77,0,0,1,1.77,4.21l-.08,1.93c-.28-.71-.69-1.67-1.27-2.81a8.19,8.19,0,0,1-.47-3.43Z" transform="translate(-21.56 -0.01)"/><path d="M472,487.77a24.61,24.61,0,0,1-1.23-3.33s2.32.64,6.2-3.62c2.84-3.1,3.22-9.15,3-13.13.6,2.37,1.33,12.19-2.56,16.46C474.8,486.94,472.94,487.62,472,487.77Z" transform="translate(-21.56 -0.01)"/><path d="M480.31,457.5a71.54,71.54,0,0,0-.59,8.15,12.84,12.84,0,0,0-.24-1.29c-.6-2.36.4-10.19.4-10.19s.08-5.51,1.25-7.26,3.9-11.85,3.9-11.85.13-3.45,2.13-5.16,3.51-8.7,3.51-8.7a9.08,9.08,0,0,0,1.6-5.87c-.28-3.46,2.62-7.07,2.62-7.07l5.26-14.7,4.83-11,2.23,6.57v2.1l-1.8-5.34-4.81,11-5.25,14.7s-2.9,3.61-2.62,7.07a9,9,0,0,1-1.61,5.87s-1.51,7-3.5,8.69-2.13,5.16-2.13,5.16-2.74,10.11-3.91,11.85S480.31,457.5,480.31,457.5Z" transform="translate(-21.56 -0.01)"/></g><path d="M478.49,203.62l.84,5.07-.14,2.24-.11,1.65,5.72.81.69-1.17h0c1.28-2.11,3.91-6.4,4.74-7,1.1-.86,3.53-14.77,1.22-14a6,6,0,0,0-3.31,2.78S476.79,194.8,478.49,203.62Z" class="cls-21" transform="translate(-21.56 -0.01)"/><path d="M479.08,212.58l5.72.81.69-1.17h0a5,5,0,0,0-6.3-1.29Z" class="cls-11" transform="translate(-21.56 -0.01)"/><path d="M477.52,215.24l7.51,2,.21-1.12.54-3a5.22,5.22,0,0,0-7.26-1.32l0,0-.43,1.54Z" class="cls-22" transform="translate(-21.56 -0.01)"/><path d="M600.72,208.89l7.93,4.65.79-1.5c.83-1.58,2.07-4,2.42-4.83.53-1.32,4-2.88,4-2.88,8.78-7.77-1-15.11-1-15.11-4.93-10.95-11.44,3.21-11.44,3.21s-1.11,7.55-.55,8.09.49,2.6.49,2.6a29.54,29.54,0,0,0-2.13,4.56A9.37,9.37,0,0,0,600.72,208.89Z" class="cls-21" transform="translate(-21.56 -0.01)"/><path d="M600.72,208.89l7.93,4.65.79-1.5c-1.11-1-5-4.44-6.36-4.34a10.26,10.26,0,0,1-1.92,0C600.87,208.41,600.72,208.89,600.72,208.89Z" class="cls-11" transform="translate(-21.56 -0.01)"/><path d="M599.8,211.29l8.92,4.83.26-2,.18-1.34s-5.1-4.72-6.66-4.61a8.19,8.19,0,0,1-2.37-.1l-.17,1.64Z" class="cls-22" transform="translate(-21.56 -0.01)"/><path d="M499.25,237.89s39.47,6,32.15,3.3c-5.09-1.88-7-5.23-7.31-8.89a20.7,20.7,0,0,1,1.83-9.11,38.93,38.93,0,0,1,3.82-7s-29.66-17.84-24.18-2.45A24.26,24.26,0,0,1,507,221a20.21,20.21,0,0,1-1.06,7.23A21.71,21.71,0,0,1,499.25,237.89Z" class="cls-21" transform="translate(-21.56 -0.01)"/><path d="M505.6,213.7A24.26,24.26,0,0,1,507,221c2.76,2.5,5.9,2.47,9.91,2.62,3.1.12,6.49,1,9-.39a38.93,38.93,0,0,1,3.82-7S500.08,198.31,505.6,213.7Z" class="cls-11" transform="translate(-21.56 -0.01)"/><circle cx="518.04" cy="208.24" r="16.4" class="cls-21" transform="translate(207.95 686.23) rotate(-80.78)"/><path d="M499.25,237.89s39.47,6,32.15,3.3c-5.09-1.88-7-5.23-7.31-8.89-1.89-2.21-5.8-3.91-8.31-4.83a11.91,11.91,0,0,0-7.18-.39,10,10,0,0,0-2.66,1.11A21.72,21.72,0,0,1,499.25,237.89Z" class="cls-11" transform="translate(-21.56 -0.01)"/><path d="M477.52,215.24l7.51,2,.21-1.12a6.7,6.7,0,0,0-7.19-2.77Z" class="cls-11" transform="translate(-21.56 -0.01)"/><path d="M599.8,211.29l8.92,4.83.26-2a66.94,66.94,0,0,0-9-4.41Z" class="cls-11" transform="translate(-21.56 -0.01)"/><path d="M479.72,337.16c15.26,3,37,7,40.49,6.09,2.91-.77,12.1-.32,20.08.26.09-4,.12-6.66.12-6.66l-59.27-8.49A48.48,48.48,0,0,1,479.72,337.16Z" class="cls-11" transform="translate(-21.56 -0.01)"/><path d="M464.6,333s50.22,10.62,55.71,9.18,33.27,1.42,33.27,1.42c12.21,8.88,7.46-3.72,7.46-3.72s1.35-6.43,0-11.72a72.05,72.05,0,0,1-1.61-11.79s.59-8.25-.85-10.24-2.7-15.83-2.7-15.83-1-9.42-.8-11.48-.11-7.87-.11-7.87l-1.42-9.71c10.38-1,42.53-19.06,42.53-19.06,1.77-6.41,14.06-21.12,14.06-21.12a15.29,15.29,0,0,1,1.1-3.68c.92-2.17-11.31-7-11.31-7s-9.67,10.94-11.71,13.89-8.88,8.35-8.88,8.35a6.78,6.78,0,0,0-3,.28h-.16a24.7,24.7,0,0,0-6.31,3.31,12,12,0,0,0-8.52,2.84s-5.62-1-6.62-.12-5.78-.22-5.78-.22-4.43-10.38-7.71-7.54-16.73,2.19-16.73,2.19c-1.69-2.45-6-4.33-8.68-5.31a11.9,11.9,0,0,0-7.18-.4,9,9,0,0,0-2.89,1.27l-8.46,7.67s-2.23-3.12-1.93-3.8-2.7-1.35-2.7-1.35-4-1.39-5.45-1.86-3,1.11-3.08,1.25a16.11,16.11,0,0,0,.92-6c-.31-2.63,1.84-4.89,1.84-4.89-4.36-12-15.63-2.54-15.63-2.54s-1.49,6.43-.48,8.95-1.4,7.67-1.18,9.06-.69,3.7-.79,6.32,1.09,7.63,1.83,9.86,7.16,7.45,7.16,7.45.11,7.87,2.83,12.53.33,20.15.33,20.15-3.22,12-6.82,15.74S464.6,333,464.6,333Z" class="cls-4" transform="translate(-21.56 -0.01)"/><path d="M541.73,245.17s1.69-4.49,3.08-4.85a31.75,31.75,0,0,0,4.07-1.64l-.82-1.73s-5.23,1.22-6.12,2.71S541.73,245.17,541.73,245.17Z" class="cls-11" transform="translate(-21.56 -0.01)"/><path d="M569.8,236.18c.23,1.38,12.44,3.1,12.44,3.1l-6-6.46h-.15A24.57,24.57,0,0,0,569.8,236.18Z" class="cls-11" transform="translate(-21.56 -0.01)"/><path d="M540.22,282.49c.14-.15-32.42,37.86-55.66,14.28C484.6,296.77,522.45,303.4,540.22,282.49Z" class="cls-11" transform="translate(-21.56 -0.01)"/><path d="M548.69,262.83A60.12,60.12,0,0,1,541,274.89a48.47,48.47,0,0,1-11.71,10.46S548.28,265.37,548.69,262.83Z" class="cls-11" transform="translate(-21.56 -0.01)"/><path d="M555.6,241.47S552,254.73,543.82,259Z" class="cls-11" transform="translate(-21.56 -0.01)"/><path d="M560.3,243c.09-.25,2.35,10.69-10.94,16.18C549.36,259.19,555,257.52,560.3,243Z" class="cls-11" transform="translate(-21.56 -0.01)"/><path d="M479.51,230.89c.21,0-6.61,4-8.49,5.88C471,236.79,475.6,230.48,479.51,230.89Z" class="cls-11" transform="translate(-21.56 -0.01)"/><path d="M521.9,223.28a3.45,3.45,0,0,1-1.36,2.16,3.34,3.34,0,0,1-1.56.29c-5,.12-10.22.14-14.77-2a5.56,5.56,0,0,1-2.19-1.58,9.19,9.19,0,0,1-1.17-3.67c-.56-2.48-1.86-4.71-2.76-7.08A23.4,23.4,0,0,1,497,198.89a8.44,8.44,0,0,1,1.39-3.62c1.4-1.84,3.84-2.51,5.65-4s3-3.7,5.12-4.75c1.89-1,4.14-.75,6.2-.31A32.39,32.39,0,0,1,526.69,191c1.16.77,2.43,1.66,3.81,1.46a5.26,5.26,0,0,0,2.91-2.07,15.1,15.1,0,0,1,1,7.19,3.26,3.26,0,0,0,0,1.08,3.33,3.33,0,0,0,.72,1.16c1.18,1.48,1.86,3.78.59,5.17-.55.62-1.38.93-1.92,1.55-1,1.11-.73,2.78-.76,4.26a2.2,2.2,0,0,1-.42,1.44,2.13,2.13,0,0,1-2,.4,5.8,5.8,0,0,0-2.15-.29,3.62,3.62,0,0,0-1.93,1.37C524,216.59,523,219.78,521.9,223.28Z" class="cls-4" transform="translate(-21.56 -0.01)"/><g class="cls-9"><path d="M501.51,220.89a5.59,5.59,0,0,0,2.2,1.58c4.55,2.1,9.76,2.08,14.77,2a3.61,3.61,0,0,0,1.56-.29A3.43,3.43,0,0,0,521.4,222c1.11-3.49,2.13-6.68,4.55-9.53a3.62,3.62,0,0,1,1.93-1.37,5.8,5.8,0,0,1,2.15.29,2.11,2.11,0,0,0,2-.41,2.2,2.2,0,0,0,.42-1.44c0-1.47-.21-3.14.75-4.25.54-.63,1.37-.94,1.93-1.55a3.2,3.2,0,0,0,.44-3.27c.82,1.42,1.14,3.22.07,4.39-.56.61-1.39.93-1.93,1.55-1,1.11-.72,2.78-.75,4.26a2.2,2.2,0,0,1-.42,1.44,2.13,2.13,0,0,1-2,.4,5.8,5.8,0,0,0-2.15-.29,3.62,3.62,0,0,0-1.93,1.37c-2.42,2.85-3.45,6-4.55,9.54a3.45,3.45,0,0,1-1.36,2.16,3.34,3.34,0,0,1-1.56.29c-5,.12-10.22.14-14.77-2A5.59,5.59,0,0,1,502,222a4.58,4.58,0,0,1-.66-1.35Z" transform="translate(-21.56 -0.01)"/><path d="M534.33,198.24a2.53,2.53,0,0,1-.47-.85,3.2,3.2,0,0,1,0-1.07,15.2,15.2,0,0,0-.54-6l.09-.1a15.19,15.19,0,0,1,1,7.19A5.76,5.76,0,0,0,534.33,198.24Z" transform="translate(-21.56 -0.01)"/></g><path d="M524.45,233.33s-20.59,1.92-22.31-1.23" class="cls-11" transform="translate(-21.56 -0.01)"/><path d="M485,223.32s-11.38-.42-14,3.75" class="cls-11" transform="translate(-21.56 -0.01)"/><ellipse cx="932.4" cy="317.07" class="cls-1" rx="20.15" ry="16.06"/></svg>