<?xml version="1.0" encoding="utf-8"?>
<!-- Generator: Adobe Illustrator 23.0.5, SVG Export Plug-In . SVG Version: 6.00 Build 0)  -->
<svg version="1.1" id="e2e0f303-db8f-43b0-b991-e6394321a108"
	 xmlns="http://www.w3.org/2000/svg" xmlns:xlink="http://www.w3.org/1999/xlink" x="0px" y="0px" viewBox="0 0 1068.8 689.4"
	 style="enable-background:new 0 0 1068.8 689.4;" xml:space="preserve">
<style type="text/css">
	.st0{fill:#F2F2F2;}
	.st1{fill:#3F3D56;}
	.st2{fill:#38D39F;}
	.st3{opacity:0.1;enable-background:new    ;}
	.st4{fill:#444053;}
	.st5{fill:#F6F8FB;}
	.st6{fill:#FFC1C7;}
	.st7{opacity:5.000000e-02;enable-background:new    ;}
	.st8{fill:#575A89;}
	.st9{fill:#FF6584;}
	.st10{opacity:3.000000e-02;enable-background:new    ;}
	.st11{fill:none;stroke:#3F3D56;stroke-width:4;stroke-miterlimit:10;}
	.st12{fill:#57B894;}
	.st13{fill:#656380;}
	.st14{opacity:0.2;enable-background:new    ;}
</style>
<title>joyride</title>
<path class="st0" d="M880,560.2l-78.1-150.6c-0.7-1.3-2.2-1.8-3.4-1c-0.4,0.2-0.7,0.6-0.9,1l-78.1,150.6c-0.7,1.3-0.3,3,0.8,3.8
	c0.4,0.3,0.8,0.4,1.3,0.4h23.3c1.4,0,2.5,1.2,2.5,2.8v32.2c0,1.5,1.1,2.8,2.5,2.8l0,0h30.4c1.4,0,2.5-1.2,2.5-2.8v-15.6
	c0-1.5,1.1-2.8,2.5-2.8h28.9c1.4,0,2.5,1.2,2.5,2.8v15.5c0,1.5,1.1,2.8,2.5,2.8h30.4c1.4,0,2.5-1.2,2.5-2.8v-32.2
	c0-1.5,1.1-2.8,2.5-2.8h23.3c1.4,0,2.5-1.3,2.5-2.8C880.3,561,880.2,560.6,880,560.2z M771.1,576.8c-0.5,0.5-1.1,0.8-1.8,0.8h-11
	c-1.4,0-2.5-1.2-2.5-2.8c0-1.5,1.1-2.8,2.5-2.8h11c1.4,0,2.5,1.2,2.5,2.8c0,0,0,0,0,0C771.8,575.6,771.5,576.3,771.1,576.8z
	 M842.8,576.8c-0.5,0.5-1.1,0.8-1.8,0.8h-11c-1.4,0-2.5-1.2-2.5-2.8c0-1.5,1.1-2.8,2.5-2.8h11c1.4,0,2.5,1.2,2.5,2.7
	C843.6,575.6,843.3,576.3,842.8,576.8L842.8,576.8z"/>
<path class="st0" d="M327,560.3l-97.1-167.9c-0.9-1.5-2.8-2-4.2-1.1c-0.5,0.3-0.9,0.7-1.1,1.1l-83.9,145.1
	c10.5,13.2,22.3,25.3,35.1,36.2h13.6c1.7,0,3.1,1.4,3.1,3.1c0,0.8-0.3,1.6-0.9,2.2c-0.6,0.6-1.4,0.9-2.2,0.9h-5.8
	c7.1,5.3,14.6,10,22.5,14v-7.2c0-1.7,1.4-3.1,3.1-3.1h35.9c1.7,0,3.1,1.4,3.1,3.1V604c0,0.4,0.1,0.9,0.3,1.3
	c0.5,1.1,1.6,1.8,2.8,1.8h37.8c1,0,1.9-0.5,2.5-1.2c0.4-0.5,0.6-1.2,0.6-1.9v-35.9c0-1.7,1.4-3.1,3.1-3.1h29c1.7,0,3.1-1.3,3.1-3.1
	C327.4,561.3,327.2,560.8,327,560.3z M262.8,574.5c0.6-0.6,1.4-0.9,2.2-0.9h13.6c1.7,0,3.1,1.4,3.1,3.1c0,1.7-1.4,3.1-3.1,3.1H265
	c-1.7,0-3.1-1.4-3.1-3.1c0,0,0,0,0,0C261.9,575.9,262.2,575.1,262.8,574.5z M201.8,512.4c-1.7,0-3.1-1.4-3.1-3.1c0,0,0,0,0,0v-23.5
	c0-1.7,1.4-3.1,3.1-3.1c0,0,0,0,0,0h50.8c1.7,0,3.1,1.4,3.1,3.1v23.5c0,1.7-1.4,3.1-3.1,3.1L201.8,512.4z"/>
<path class="st0" d="M710.7,258.6H590.6v-26c0-3.4-2.8-6.2-6.2-6.2c0,0,0,0,0,0h-35.3v-27.6c0-2.2-1.8-3.9-3.9-3.9h-45.4
	c-2.2,0-3.9,1.7-3.9,3.9v27.6h-41.5c-3.4,0-6.2,2.8-6.2,6.2v0v25.9l0,0H333.6c-0.7,0-1.3,0.6-1.3,1.3v344.5c0,0.7,0.6,1.3,1.3,1.3
	h76.1c0.7,0,1.3-0.6,1.3-1.3V558c0-0.7,0.6-1.3,1.3-1.3h32.1c0.7,0,1.3,0.6,1.3,1.3v46.3c0,0.7,0.6,1.3,1.3,1.3h150.4
	c0.7,0,1.3-0.6,1.3-1.3V558c0-0.7,0.6-1.3,1.3-1.3H632c0.7,0,1.3,0.6,1.3,1.3v46.3c0,0.7,0.6,1.3,1.3,1.3h76.1
	c0.7,0,1.3-0.6,1.3-1.3V259.9C712,259.2,711.4,258.6,710.7,258.6z M397.3,540.7c0,0.7-0.6,1.2-1.2,1.3h-47c-0.7,0-1.3-0.6-1.3-1.3v0
	v-16c0-0.7,0.6-1.3,1.3-1.3h47c0.7,0,1.2,0.6,1.2,1.3L397.3,540.7z M397.3,499.2c0,0.7-0.6,1.3-1.2,1.3h0h-47
	c-0.7,0-1.3-0.6-1.3-1.3c0,0,0,0,0,0v-16c0-0.7,0.6-1.3,1.3-1.3c0,0,0,0,0,0h47c0.7,0,1.2,0.6,1.2,1.3c0,0,0,0,0,0L397.3,499.2z
	 M397.3,457.8c0,0.7-0.6,1.3-1.2,1.3h-47c-0.7,0-1.3-0.6-1.3-1.3v-16c0-0.7,0.6-1.3,1.3-1.3h47c0.7,0,1.2,0.6,1.2,1.3L397.3,457.8z
	 M397.3,416.3c0,0.7-0.6,1.3-1.2,1.3h0h-47c-0.7,0-1.3-0.6-1.3-1.3c0,0,0,0,0,0v-16c0-0.7,0.6-1.3,1.3-1.3c0,0,0,0,0,0h47
	c0.7,0,1.2,0.6,1.2,1.3c0,0,0,0,0,0L397.3,416.3z M397.3,374.9c0,0.7-0.6,1.3-1.2,1.3h-47c-0.7,0-1.3-0.6-1.3-1.3v-16
	c0-0.7,0.6-1.3,1.3-1.3c0,0,0,0,0,0h47c0.7,0,1.2,0.6,1.2,1.3L397.3,374.9z M397.3,333.5c0,0.7-0.6,1.2-1.2,1.3h-47
	c-0.7,0-1.3-0.6-1.3-1.3c0,0,0,0,0,0v-16c0-0.7,0.6-1.3,1.3-1.3h47c0.7,0,1.2,0.6,1.2,1.3L397.3,333.5z M397.3,292
	c0,0.7-0.6,1.3-1.2,1.3c0,0,0,0,0,0h-47c-0.7,0-1.3-0.6-1.3-1.3c0,0,0,0,0,0v-16c0-0.7,0.6-1.3,1.3-1.3c0,0,0,0,0,0h47
	c0.7,0,1.2,0.6,1.2,1.3c0,0,0,0,0,0L397.3,292z M508.8,540.7c0,0.7-0.6,1.3-1.3,1.3h0h-47c-0.7,0-1.3-0.6-1.3-1.3v0v-16
	c0-0.7,0.6-1.3,1.3-1.3h47c0.7,0,1.3,0.6,1.3,1.3V540.7z M508.8,499.2c0,0.7-0.6,1.3-1.3,1.3c0,0,0,0,0,0h-47
	c-0.7,0-1.3-0.6-1.3-1.3c0,0,0,0,0,0v-16c0-0.7,0.6-1.3,1.2-1.3c0,0,0,0,0,0h47c0.7,0,1.3,0.6,1.3,1.3c0,0,0,0,0,0V499.2z
	 M508.8,457.8c0,0.7-0.6,1.3-1.3,1.3h-47c-0.7,0-1.2-0.5-1.3-1.2v-16.1c0-0.7,0.6-1.3,1.3-1.3h47c0.7,0,1.3,0.6,1.3,1.3V457.8z
	 M508.8,416.3c0,0.7-0.6,1.3-1.3,1.3c0,0,0,0,0,0h-47c-0.7,0-1.3-0.6-1.3-1.3c0,0,0,0,0,0v-16c0-0.7,0.6-1.3,1.2-1.3c0,0,0,0,0,0h47
	c0.7,0,1.3,0.6,1.3,1.3c0,0,0,0,0,0V416.3z M508.8,374.9c0,0.7-0.6,1.3-1.3,1.3h-47c-0.7,0-1.3-0.6-1.3-1.3v-16
	c0-0.7,0.6-1.3,1.3-1.3l0,0h47c0.7,0,1.3,0.6,1.3,1.3c0,0,0,0,0,0V374.9z M508.8,333.4c0,0.7-0.6,1.3-1.3,1.3h0h-47
	c-0.7,0-1.2-0.5-1.3-1.2v-16.1c0-0.7,0.6-1.3,1.3-1.3h47c0.7,0,1.3,0.6,1.3,1.3V333.4z M508.8,292c0,0.7-0.6,1.3-1.3,1.3
	c0,0,0,0,0,0h-47c-0.7,0-1.3-0.6-1.3-1.3c0,0,0,0,0,0v-16c0-0.7,0.6-1.3,1.2-1.3c0,0,0,0,0,0h47c0.7,0,1.3,0.6,1.3,1.3c0,0,0,0,0,0
	V292z M585,540.7c0,0.7-0.6,1.3-1.3,1.3c0,0,0,0,0,0h-47.1c-0.7,0-1.3-0.6-1.3-1.3v-16c0-0.7,0.6-1.3,1.3-1.3h47
	c0.7,0,1.3,0.6,1.3,1.3L585,540.7z M585,499.2c0,0.7-0.6,1.3-1.2,1.3c0,0,0,0,0,0h-47.1c-0.7,0-1.3-0.6-1.3-1.3v-16
	c0-0.7,0.6-1.3,1.3-1.3h47c0.7,0,1.3,0.6,1.3,1.2c0,0,0,0,0,0L585,499.2z M585,457.8c0,0.7-0.6,1.3-1.3,1.3h-47.1
	c-0.7,0-1.3-0.6-1.3-1.3v-16c0-0.7,0.6-1.3,1.3-1.3h47c0.7,0,1.3,0.6,1.3,1.3L585,457.8z M585,416.3c0,0.7-0.6,1.3-1.2,1.3
	c0,0,0,0,0,0h-47.1c-0.7,0-1.3-0.6-1.3-1.3v-16c0-0.7,0.6-1.3,1.3-1.3h47c0.7,0,1.3,0.6,1.3,1.2c0,0,0,0,0,0L585,416.3z M585,374.9
	c0,0.7-0.6,1.3-1.3,1.3h-47.1c-0.7,0-1.3-0.6-1.3-1.3v-16c0-0.7,0.6-1.3,1.3-1.3h47c0.7,0,1.3,0.6,1.3,1.2c0,0,0,0,0,0L585,374.9z
	 M585,333.4c0,0.7-0.6,1.3-1.3,1.3c0,0,0,0,0,0h-47.1c-0.7,0-1.3-0.6-1.3-1.3v-16c0-0.7,0.6-1.3,1.3-1.3h47c0.7,0,1.3,0.6,1.3,1.3
	L585,333.4z M585,292c0,0.7-0.6,1.3-1.2,1.3c0,0,0,0,0,0h-47.1c-0.7,0-1.3-0.6-1.3-1.3v-16c0-0.7,0.6-1.3,1.3-1.3h47
	c0.7,0,1.3,0.6,1.3,1.2c0,0,0,0,0,0L585,292z M696.5,540.7c0,0.7-0.6,1.3-1.3,1.3h-47c-0.7,0-1.2-0.5-1.3-1.2c0,0,0,0,0,0v-16
	c0-0.7,0.6-1.3,1.2-1.3c0,0,0,0,0,0h47c0.7,0,1.3,0.6,1.3,1.3V540.7z M696.5,499.2c0,0.7-0.6,1.3-1.3,1.3h-47
	c-0.7,0-1.3-0.6-1.3-1.3c0,0,0,0,0,0v-16c0-0.7,0.6-1.3,1.2-1.3c0,0,0,0,0,0h47c0.7,0,1.3,0.6,1.3,1.3V499.2z M696.5,457.8
	c0,0.7-0.6,1.3-1.3,1.3h-47c-0.7,0-1.2-0.5-1.3-1.2v-16.1c0-0.7,0.6-1.3,1.2-1.3c0,0,0,0,0,0h47c0.7,0,1.3,0.6,1.3,1.3V457.8z
	 M696.5,416.3c0,0.7-0.6,1.3-1.3,1.3h-47c-0.7,0-1.3-0.6-1.3-1.3c0,0,0,0,0,0v-16c0-0.7,0.6-1.3,1.2-1.3c0,0,0,0,0,0h47
	c0.7,0,1.3,0.6,1.3,1.3V416.3z M696.5,374.9c0,0.7-0.6,1.3-1.3,1.3h-47c-0.7,0-1.3-0.6-1.3-1.3c0,0,0,0,0,0v-16
	c0-0.7,0.5-1.2,1.2-1.3c0,0,0,0,0,0h47c0.7,0,1.3,0.6,1.3,1.3V374.9z M696.5,333.4c0,0.7-0.6,1.3-1.3,1.3h-47
	c-0.7,0-1.2-0.5-1.3-1.2v-16.1c0-0.7,0.6-1.3,1.2-1.3c0,0,0,0,0,0h47c0.7,0,1.3,0.6,1.3,1.3V333.4z M696.5,292
	c0,0.7-0.6,1.3-1.3,1.3h-47c-0.7,0-1.3-0.6-1.3-1.3c0,0,0,0,0,0v-16c0-0.7,0.6-1.3,1.2-1.3c0,0,0,0,0,0h47c0.7,0,1.3,0.6,1.3,1.3
	V292z"/>
<path class="st0" d="M175.6,262.2c2-2.5,3.8-5.2,5.4-7.9l-38.1-6.2l41.2,0.3c8-17.3,8.5-37.2,1.3-54.9L130.2,222l50.9-37.4
	c-19.3-33.1-61.8-44.3-94.9-25s-44.3,61.7-25,94.8c1.6,2.7,3.4,5.4,5.3,7.9c-3.1,3.9-5.7,8.2-7.9,12.6l49.4,25.6l-52.7-17.7
	c-7.5,22.2-3.3,46.7,11.2,65.1c-5.8,7.3-10,15.7-12.4,24.7c9.3,26.8,20.2,52.9,32.7,78.4c6.7,3.8,14,6.5,21.5,7.9
	c-0.9,2.6-1.4,5.3-1.4,8c-0.1,4,0.9,8,2.9,11.6c-1.7,3-2.8,6.4-3,9.9l0,0c8.5,14.6,18,28.6,28.2,42.1c-0.5-2-1.3-3.9-2.3-5.6
	c4-7.2,4-16,0-23.1c4-7.2,4-16,0-23.1c2-3.5,3.1-7.5,3-11.6c0-2.8-0.5-5.5-1.4-8.2c37.6-7.4,62.1-43.8,54.7-81.3
	c-2.1-10.8-6.8-20.9-13.5-29.5C195.4,322.8,195.4,287.3,175.6,262.2L175.6,262.2z"/>
<path class="st0" d="M928.7,358.6l-2.4-0.4h2.4c-0.4-8.6-2.1-17.1-4.9-25.3l-8.5,4.1l8-5.5c-7.2-19.8-21-36.8-39.4-48.6
	c-30.5,12.4-44.6,45.6-31.4,74.3c2.1,4.5,4.7,8.7,7.9,12.5c-2.7,3.2-5,6.6-6.8,10.3l42.7,20.9l-45.5-14.4c-6.5,18.1-2.8,38,9.7,53
	c-20.5,24.6-15.9,60.2,10.2,79.4c4.9,3.7,10.5,6.6,16.4,8.6c3.2-7.2,6.4-14.8,9.3-22.5c2.6-6.8,5.1-13.8,7.4-20.9
	c6.8-20.6,12.5-41.6,17.1-62.8c5.2-24.1,8.1-45.2,8.1-58.5C928.8,361.5,928.7,360.1,928.7,358.6z"/>
<ellipse class="st1" cx="465.9" cy="621.1" rx="465.9" ry="23.4"/>
<path class="st2" d="M762.2,378.6c-9.3-16.1-47.7-11.4-85.7,10.6c-6.6,3.8-13,8-19.1,12.6c-7.3-90.9-86.9-158.7-178-151.5
	c-82.5,6.6-147.5,73.1-152,155.6c-7.6-6.3-15.8-11.9-24.3-16.8c-37.9-21.9-76.4-26.6-85.7-10.5c-9.3,16.1,14,46.9,52,68.9
	c24.6,14.2,49.4,21.2,66.3,20c9.7,28.8,27.1,54.3,50.4,73.9c-33.3,4.7-57.9,20.2-57.9,38.8c0,22.2,35.2,40.2,78.6,40.2
	s78.6-18,78.6-40.2c0-0.1,0-0.1,0-0.2c2.3,0.1,4.7,0.2,7,0.2c2.4,0,4.7,0,7-0.2c0,0.1,0,0.1,0,0.2c0,22.2,35.2,40.2,78.6,40.2
	c43.4,0,78.6-18,78.6-40.2c0-18.5-24.5-34.1-57.9-38.8c23.2-19.5,40.6-45,50.3-73.7c16.6-0.4,38.7-7.4,60.8-20.1
	C748.3,425.5,771.6,394.6,762.2,378.6z"/>
<path class="st3" d="M217.5,387c9.3-16.1,47.7-11.4,85.7,10.6c8.4,4.8,16.4,10.3,24,16.5c0.4-7.9,0.4,0.5,0.3-8.1
	c-7.6-6.3-15.8-11.9-24.3-16.8c-38-21.9-76.4-26.7-85.7-10.6c-2,3.5-2.5,7.8-1.6,12.5C216.3,389.6,216.8,388.3,217.5,387z"/>
<path class="st3" d="M762.4,387c-9.3-16.1-47.7-11.4-85.8,10.6c-8.9,5.1-12.2,7-19.3,12.8c-0.4-7.9-0.4,0.5-0.3-8.1
	c7.1-5.9,10.6-7.8,19.7-13c38.1-21.9,76.4-26.7,85.8-10.6c2,3.5,2.5,7.8,1.6,12.5C763.7,389.6,763.2,388.3,762.4,387z"/>
<ellipse class="st4" cx="448.4" cy="382.9" rx="17.1" ry="22.4"/>
<ellipse class="st4" cx="536.9" cy="382.9" rx="17.1" ry="22.4"/>
<path class="st1" d="M599.2,453.4c0,32.2-53.8,86.4-108.2,86.4s-106.1-55.5-106.1-87.6s50.7-2.8,105-2.8S599.2,421.2,599.2,453.4z"
	/>
<path class="st5" d="M402,458.9c0,0,97.7,21.7,179.7,0.6c0,0,10,0,3.2,11.6c-1.8,3-4.4,5.4-7.5,7c-15.8,8.1-74.4,31.9-168,1.5
	c-5.9-1.8-10.5-6.5-12.2-12.5C396.2,463.2,396.6,459.5,402,458.9z"/>
<path class="st3" d="M492,271.6c87.5,0,159.8,68.1,165,155.3c0.3-4.1,0.5-8.3,0.5-12.5c-0.7-91.2-75.3-164.6-166.6-163.9
	c-90.3,0.7-163.4,73.7-164.1,163.9c0,3.3,0.1,6.5,0.3,9.8C333.7,338.2,405.6,271.6,492,271.6z"/>
<path class="st1" d="M510.7,58c0,11.7-9.5,21.2-21.2,21.2s-21.2-9.5-21.2-21.2c0-0.3,0-0.7,0-1c0.6-11.7,10.6-20.6,22.3-20
	c10.8,0.6,19.5,9.2,20.1,20C510.7,57.4,510.7,57.7,510.7,58z"/>
<path class="st3" d="M510.7,58c0,11.7-9.5,21.2-21.2,21.2s-21.2-9.5-21.2-21.2c0-0.3,0-0.7,0-1c12.3-10,30-10,42.3,0
	C510.7,57.4,510.7,57.7,510.7,58z"/>
<ellipse class="st1" cx="489.5" cy="84.8" rx="33.5" ry="33.4"/>
<path class="st1" d="M469.3,53.4c0-10.6,7.9-19.6,18.4-21c-11.6-1.6-22.3,6.6-23.8,18.2c-1.6,11.6,6.6,22.2,18.2,23.8
	c1.9,0.2,3.8,0.2,5.6,0C477.1,72.9,469.3,64,469.3,53.4z"/>
<path class="st1" d="M451.8,98.3c-8-7-9.5-18.8-3.6-27.7c-8.8,7.7-9.8,21-2.1,29.9c7.7,8.8,21.1,9.8,29.9,2.1c0.7-0.6,1.3-1.2,2-1.9
	c0.6-0.7,1.2-1.5,1.7-2.2C471.6,105.4,459.7,105.4,451.8,98.3z"/>
<path class="st6" d="M472,127.1c-1.7,0.6-3.5,0.7-5,1.7c-2.8,1.9-2.7,6-1.9,9.3c1.9,7.5,6.6,14.7,13.6,17.8c4.3,1.9,9.1,2,13.7,2
	c5.1-0.1,10.8-0.7,13.9-4.7c1.6-2,2.2-4.5,2.9-7c1.6-6.1,3.1-12.3,2.6-18.5c-3.1,0.3-6.6,0.4-8.9-1.5c-2.4-1.9-3-5.6-4-8.7
	c-0.1-0.5-0.4-0.9-0.8-1.2c-0.4-0.2-0.9-0.3-1.4-0.2c-3.2,0.1-6.4,0-9.6-0.5c-2-0.3-6.9-2.3-8.4-0.6c-1.1,1.3-0.4,5.1-1.2,6.9
	C476.4,124.4,474.5,126.2,472,127.1z"/>
<path class="st7" d="M472,127.1c-1.7,0.6-3.5,0.7-5,1.7c-2.8,1.9-2.7,6-1.9,9.3c1.9,7.5,6.6,14.7,13.6,17.8c4.3,1.9,9.1,2,13.7,2
	c5.1-0.1,10.8-0.7,13.9-4.7c1.6-2,2.2-4.5,2.9-7c1.6-6.1,3.1-12.3,2.6-18.5c-3.1,0.3-6.6,0.4-8.9-1.5c-2.4-1.9-3-5.6-4-8.7
	c-0.1-0.5-0.4-0.9-0.8-1.2c-0.4-0.2-0.9-0.3-1.4-0.2c-3.2,0.1-6.4,0-9.6-0.5c-2-0.3-6.9-2.3-8.4-0.6c-1.1,1.3-0.4,5.1-1.2,6.9
	C476.4,124.4,474.5,126.2,472,127.1z"/>
<path class="st4" d="M297.2,345.2c-7.5,0.2-15.1-0.1-22.5,1.6c-1.4,0.2-2.7,0.8-3.6,1.9c-1.1,1.5-0.5,3.7,0.4,5.3
	c2,3.7,5.4,6.6,9.5,7.9c4.5,1.4,9.3,0.9,13.9,1c6.4,0.2,12.6,1.7,18.4,4.4c1.3,0.6,2.7,1.3,4.1,1.1c2.1-0.3,3.4-2.4,4.1-4.3
	c0.9-2.3,1.5-4.7,2.1-7.2c1.1-4.6,1.2-13.7-5.1-15c-2.9-0.6-6.3,1.4-9.1,2C305.4,344.7,301.3,345.2,297.2,345.2z"/>
<path class="st4" d="M681,347.4c1.8-0.6,3.3-1.8,4.4-3.3c2.8-4.1,2.8-9,4.3-13.4c1.9-5.8,6-10.6,8.6-16.2c2.3-5,3.4-10.4,3.1-15.9
	c-0.1-1.5-1.4-2.7-2.9-2.7c-0.1,0-0.2,0-0.3,0c-3.5,0.7-6.7,3.2-9,6.2c-2.9,3.7-4.8,8.2-7.7,11.9c-3,3.7-7.1,6.7-10.7,10
	c-4.4,4.3-7.9,8.9-3.9,14.4C670,343,674.4,349.6,681,347.4z"/>
<path class="st8" d="M451.6,225c-23.6,30.6-52.8,56.3-86.1,75.9c-10.2,6-20.8,11.4-29.9,19c-6.9,5.8-12.7,12.6-18.5,19.5
	c-0.7,0.6-1.1,1.5-1.3,2.4c0,0.7,0.1,1.3,0.3,1.9c1.9,5.5,4,11.5,9,14.5c13-18.7,38.7-23.5,58.4-34.8c9.2-5.3,17.5-11.8,26-18.1
	c12.2-9.1,24.7-17.9,37.5-26.3c8.5-5.6,17.2-11,26.9-13.9c20.6-6.2,43.1,0,62.1,10.1c19,10.1,35.8,23.9,54.4,34.6
	c25.3,14.6,53.6,23.2,81.6,31.7c1-6.7,1.6-13.3,3-19.9c-7-1-13.6-3.7-20.1-6.4c-7.3-3-14.6-6.1-21.1-10.5c-4.3-2.9-8.2-6.4-12.5-9.3
	c-9.3-6.5-20.1-10.7-29.5-17c-12.3-8.3-21.8-20-33-29.6c-4.9-4.2-10.1-8-15.3-11.8c-5.4-3.9-10.9-7.9-17.1-10.3
	c-7.4-2.9-15.4-3.5-23.3-4.1C485.4,221.1,468.4,219.3,451.6,225z"/>
<ellipse class="st6" cx="489" cy="100.9" rx="23.4" ry="23.4"/>
<path class="st9" d="M488.3,149.6c-4.2-0.5-8.3-2-11.8-4.3c-3.6-2.3-6.1-5.9-7.2-10c-0.8-3.3-0.3-6.9-1.7-10
	c-4.2,2.1-8.6,3.9-13.1,5.3c-2.5,0.8-5.2,1.5-7.2,3.2c-4.4,3.6-4.7,10.1-4.6,15.8c0,1.1,0.1,2.3,0.4,3.3c0.4,1,1,2,1.8,2.7
	c4.8,5.1,12.3,7.3,16.8,12.7c-2.4,2.7-3.9,6-4.4,9.5c-0.1,1.4-0.3,2.8-0.6,4.2c-0.4,1.1-0.8,2.3-1.4,3.4c-3,6.7-2.9,14.3-3.3,21.7
	c-0.4,7.3-1.7,15.1-6.7,20.6c2,2.2,4.7,2.8,7.6,3.1c2.9,0.3,5.9-0.1,8.9,0c7.8,0.2,15.2,3.4,22.8,5.5c7.5,2.1,16.1,2.9,22.8-1.1
	c2.3-1.4,4.3-3.4,6.7-4.8c2.8-1.7,6.1-2.5,9.4-3.3l1.2-39c0-2.7,0.2-5.5,0.6-8.2c1.7-10.7,8.5-19.7,15.1-28.3
	c-0.8-7.9-5.2-15-11.9-19.3c-3-1.8-6.1-3.2-9.4-4.3l-7.7-3c-0.7-0.3-1.4-0.5-2.2-0.4c-1.7,0.3-2.3,2.3-2.4,4c-0.1,2.7,0.2,5.3,0.1,8
	c-0.1,2.7-0.8,5.5-2.6,7.3c-1.4,1.2-2.9,2.1-4.7,2.7C495.8,148.1,492.5,150.2,488.3,149.6z"/>
<path class="st6" d="M457.3,247.5c0.3,5.2,0.6,10.5-0.3,15.6c-0.9,5.1-3,10.2-6.9,13.7c-3,2.7-7.3,4.7-8,8.7
	c-0.2,0.9-0.1,1.8,0.2,2.6c0.8,2,3.3,2.9,5.4,2.5c2.1-0.5,4-1.5,5.6-2.9c3.2-2.6,6.3-5.5,9.3-8.4c2.6-2.5,5.3-5.2,6.4-8.7
	c0.5-1.7,0.7-3.4,0.8-5.1c0.6-9.3,0.8-18.7,0.9-28c0.1-6.8,0.2-13.8-2.3-20.2c0.4,0.9-8.7,1.8-9.4,1.9c-3.9,0.3-3.2,2-3,5.7
	C456.4,232.4,456.8,239.9,457.3,247.5z"/>
<path class="st6" d="M525.4,247.5c-0.3,5.2-0.6,10.5,0.3,15.6c0.9,5.1,3,10.2,6.9,13.7c3,2.7,7.3,4.7,8,8.7c0.2,0.9,0.1,1.8-0.2,2.6
	c-0.8,2-3.3,2.9-5.4,2.5c-2.1-0.5-4-1.5-5.6-2.9c-3.2-2.6-6.3-5.5-9.3-8.4c-2.6-2.5-5.3-5.2-6.4-8.7c-0.5-1.7-0.7-3.4-0.8-5.1
	c-0.6-9.3-0.8-18.7-0.9-28c-0.1-6.8-0.2-13.8,2.3-20.2c-0.4,0.9,8.7,1.8,9.4,1.9c3.9,0.3,3.2,2,3,5.7
	C526.4,232.4,525.9,239.9,525.4,247.5z"/>
<path class="st3" d="M445.5,146.2c-3.3,9.7-2,20.6,1.4,30.3c0.8,2.4,1.8,4.9,1.4,7.4c-0.3,1.3-0.7,2.5-1.2,3.7
	c-1,2.9-1.1,6.1-0.5,9.1c0.1,0.9,0.5,1.8,1,2.5c0.3,0.3,0.6,0.7,0.9,1.1c1.3,2-1.2,4.5-0.9,6.8c0.2,2,2.2,3.1,3.6,4.5
	c3.9,4,3.2,10.5,2.2,16c4.8-0.4,8.9-4.3,13.7-4c3.2,0.3,6,2.4,7.1,5.4c-0.2-4.6,1.5-8.6,1.9-13.2c0.5-6-3.4-11.4-5.2-17.1
	c-2.7-8.3-1.2-17.4-1.9-26.2c-0.3-3.3-0.8-6.5-1.4-9.7c-0.9-4.4-2.1-9.2-5.8-11.7C457,148,449.7,150.2,445.5,146.2z"/>
<path class="st9" d="M444.6,144.4c-3.3,9.7-2,20.6,1.4,30.3c0.8,2.4,1.8,4.9,1.4,7.4c-0.3,1.3-0.7,2.5-1.2,3.7
	c-1,2.9-1.1,6.1-0.5,9.1c0.1,0.9,0.5,1.8,1,2.5c0.3,0.3,0.6,0.7,0.9,1.1c1.3,2-1.2,4.5-0.9,6.8c0.2,2,2.2,3.1,3.6,4.5
	c3.9,4,3.2,10.5,2.2,16c4.8-0.4,8.9-4.3,13.7-4c3.2,0.3,6,2.4,7.1,5.4c-0.2-4.6,1.5-8.6,1.9-13.2c0.5-6-3.4-11.4-5.2-17.1
	c-2.7-8.3-1.2-17.4-1.9-26.2c-0.3-3.3-0.8-6.5-1.4-9.7c-0.9-4.4-2.1-9.2-5.8-11.7C456,146.1,448.8,148.4,444.6,144.4z"/>
<path class="st3" d="M537.2,146.2c3.3,9.7,2,20.6-1.4,30.3c-0.8,2.4-1.8,4.9-1.4,7.4c0.3,1.3,0.7,2.5,1.2,3.7c1,2.9,1.1,6.1,0.5,9.1
	c-0.1,0.9-0.5,1.8-1,2.5c-0.3,0.3-0.6,0.7-0.9,1.1c-1.3,2,1.2,4.5,0.9,6.8c-0.2,2-2.2,3.1-3.6,4.5c-3.9,4-3.2,10.5-2.2,16
	c-4.8-0.4-8.9-4.3-13.7-4c-3.2,0.3-6,2.4-7.1,5.4c0.2-4.6-1.5-8.6-1.9-13.2c-0.5-6,3.4-11.4,5.2-17.1c2.7-8.3,1.2-17.4,1.9-26.2
	c0.3-3.2,0.8-6.5,1.4-9.7c0.9-4.4,2.1-9.2,5.8-11.7C525.8,148,533,150.2,537.2,146.2z"/>
<path class="st9" d="M538.2,144.4c3.3,9.7,2,20.6-1.4,30.3c-0.8,2.4-1.8,4.9-1.4,7.4c0.3,1.3,0.7,2.5,1.2,3.7c1,2.9,1.1,6.1,0.5,9.1
	c-0.1,0.9-0.5,1.8-1,2.5c-0.3,0.3-0.6,0.7-0.9,1.1c-1.3,2,1.2,4.5,0.9,6.8c-0.2,2-2.2,3.1-3.6,4.5c-3.9,4-3.2,10.5-2.2,16
	c-4.8-0.4-8.9-4.3-13.7-4c-3.2,0.3-6,2.4-7.1,5.4c0.2-4.6-1.5-8.6-1.9-13.2c-0.5-6,3.4-11.4,5.2-17.1c2.7-8.3,1.2-17.4,1.9-26.2
	c0.3-3.2,0.8-6.5,1.4-9.7c0.9-4.4,2.1-9.2,5.8-11.7C526.7,146.1,534,148.4,538.2,144.4z"/>
<ellipse class="st1" cx="488.6" cy="78.9" rx="28.1" ry="18.7"/>
<path class="st7" d="M465.2,178c0-6.9,5.3-12.6,12.2-13.1c-0.3,0-0.6,0-0.9,0c-7.2,0-13.1,5.9-13.1,13.1c0,7.2,5.9,13.1,13.1,13.1
	c0.3,0,0.6,0,0.9,0C470.5,190.6,465.2,184.9,465.2,178z"/>
<ellipse class="st9" cx="475.5" cy="178" rx="10.3" ry="13.1"/>
<path class="st7" d="M518.5,178c0-6.9-5.3-12.6-12.2-13.1c0.3,0,0.6,0,0.9,0c7.2,0,13.1,5.9,13.1,13.1c0,7.2-5.9,13.1-13.1,13.1
	c-0.3,0-0.6,0-0.9,0C513.2,190.6,518.5,184.9,518.5,178z"/>
<ellipse class="st9" cx="508.2" cy="178" rx="10.3" ry="13.1"/>
<path class="st3" d="M488.6,95.8c-15,0-27.3-7.9-28.1-17.8c0,0.3,0,0.6,0,0.9c0,10.3,12.6,18.7,28.1,18.7c15.5,0,28.1-8.4,28.1-18.7
	c0-0.3,0-0.6,0-0.9C515.9,87.9,503.6,95.8,488.6,95.8z"/>
<path class="st0" d="M322.9,31.9l-14.5,9.2l8.8-16c-2.5-2-5.6-3.1-8.8-3.1h-0.2c-1,0-2-0.1-3-0.2l-4.9,3.1l2.1-3.8
	c-3.5-1.2-6.5-3.5-8.6-6.5l-8.8,5.6l5.6-10.1c-5.1-6.2-12.1-10-19.7-10c-9.2,0-17.3,5.5-22.6,13.9c-3.2,5.2-8.9,8.3-15,8h-0.5
	c-10.1,0-18.3,11.5-18.3,25.6s8.2,25.6,18.3,25.6c2.2,0,4.4-0.6,6.4-1.6c6.6-3.4,15.3-3.5,22.2-0.4c6,2.7,12.9,2.7,18.9,0
	c7-3,15.1-2.9,22,0.4c2,1,4.1,1.6,6.3,1.6c10.1,0,18.3-11.5,18.3-25.6C326.8,42.1,325.5,36.7,322.9,31.9z"/>
<path class="st10" d="M295.5,69.3c-5.3-1-10.8-0.4-15.7,1.7c-6,2.7-12.8,2.7-18.8,0c-7.1-3.1-15.2-3-22.2,0.4c-2,1-4.2,1.6-6.4,1.6
	c-9,0-16.5-9-18-21c1.8-1.3,3.3-3,4.5-4.8c5.3-8.5,13.4-13.9,22.6-13.9c9.2,0,17.2,5.4,22.5,13.8c3.2,5.2,8.9,8.3,14.9,8.2h0.2
	C286.3,55.3,292.5,61,295.5,69.3z"/>
<path class="st0" d="M818.9,192.3l-7.2,4.6l4.4-8c-1.2-1-2.8-1.5-4.4-1.6h-0.1c-0.5,0-1,0-1.5-0.1l-2.5,1.6l1-1.9
	c-1.7-0.6-3.2-1.8-4.3-3.3l-4.4,2.8l2.8-5c-2.4-3.1-6-4.9-9.9-5c-4.6,0-8.6,2.7-11.2,6.9c-1.6,2.6-4.5,4.1-7.5,4h-0.2
	c-5,0-9.1,5.7-9.1,12.8s4.1,12.7,9.1,12.7c1.1,0,2.2-0.3,3.2-0.8c3.5-1.7,7.5-1.8,11.1-0.2c3,1.3,6.4,1.3,9.4,0
	c3.5-1.5,7.5-1.4,11,0.2c1,0.5,2,0.8,3.1,0.8c5,0,9.1-5.7,9.1-12.8C820.8,197.4,820.2,194.7,818.9,192.3z"/>
<path class="st10" d="M805.3,211c-2.6-0.5-5.4-0.2-7.8,0.9c-1.5,0.7-3.1,1-4.7,1c-1.6,0-3.2-0.4-4.7-1c-3.5-1.6-7.6-1.5-11.1,0.2
	c-1,0.5-2.1,0.8-3.2,0.8c-4.5,0-8.2-4.5-9-10.5c0.9-0.7,1.7-1.5,2.2-2.4c2.6-4.2,6.7-6.9,11.2-6.9c4.5,0,8.6,2.7,11.2,6.9
	c1.6,2.6,4.4,4.1,7.5,4.1h0.1C800.7,204,803.8,206.8,805.3,211z"/>
<path class="st0" d="M670.3,85.7l11.6,7.4l-7.1-12.8c2-1.6,4.5-2.5,7-2.5h0.2c0.8,0,1.6-0.1,2.4-0.2l3.9,2.5l-1.7-3.1
	c2.8-1,5.2-2.8,6.9-5.3l7.1,4.5l-4.5-8.1c4.1-5,9.7-8,15.8-8c7.3,0,13.9,4.4,18.1,11.2c2.5,4.1,7.1,6.6,12,6.4h0.4
	c8.1,0,14.7,9.2,14.7,20.5s-6.6,20.5-14.7,20.5c-1.8,0-3.5-0.4-5.1-1.3c-5.6-2.7-12.1-2.9-17.8-0.4c-4.8,2.1-10.3,2.1-15.1,0
	c-5.6-2.4-12.1-2.3-17.6,0.3c-1.6,0.8-3.3,1.2-5.1,1.2c-8.1,0-14.7-9.2-14.7-20.5C667.2,93.8,668.2,89.6,670.3,85.7z"/>
<path class="st10" d="M692.2,115.7c4.2-0.8,8.6-0.3,12.6,1.4c4.8,2.1,10.3,2.1,15.1,0c5.7-2.5,12.2-2.4,17.8,0.3
	c1.6,0.8,3.3,1.3,5.1,1.3c7.2,0,13.2-7.2,14.4-16.8c-1.4-1.1-2.7-2.4-3.6-3.9c-4.2-6.8-10.8-11.2-18.1-11.2s-13.8,4.3-18,11
	c-2.6,4.1-7.1,6.6-12,6.5h-0.2C699.6,104.4,694.6,109,692.2,115.7z"/>
<path class="st11" d="M225.9,611.3c-3.9-7.1,0.5-15.9,5.6-22.3c5-6.4,11.2-13,11.1-21.1c-0.2-11.7-12.6-18.6-22.5-24.7
	c-7.3-4.6-14.1-10-20.2-16.2c-2.5-2.4-4.6-5.2-6.2-8.3c-2-4.6-2-9.8-1.9-14.8c0.4-16.6,1.3-33.3,2.5-49.9"/>
<path class="st12" d="M175.5,453.1c0.3-6.2,3.7-11.9,9.1-15l4.1,8l-0.1-9.7c1.9-0.6,4-0.8,6-0.7c10,0.5,17.8,9,17.4,19
	c-0.5,10-9,17.8-19,17.3C182.8,471.7,175,463.2,175.5,453.1z"/>
<path class="st12" d="M208,576.3c4.6,8.9,15.6,12.5,24.5,7.9c8.9-4.6,12.5-15.6,7.9-24.5c-4.6-8.9-15.6-12.5-24.5-7.9
	c-4,2.1-7.2,5.6-8.7,9.8l11.4,9.2l-12.5-2.9C205.9,570.8,206.6,573.7,208,576.3z"/>
<path class="st12" d="M217,540.9c10,0.5,18.6-7.3,19.1-17.3c0.4-8.5-5.1-16.1-13.3-18.4l0.1,7.5l-4.1-8.2h0
	c-10-0.7-18.7,6.9-19.4,16.9c-0.7,10,6.9,18.7,17,19.4C216.5,540.9,216.7,540.9,217,540.9L217,540.9z"/>
<path class="st12" d="M172.7,511.5c10,0.5,18.6-7.3,19-17.3c0.5-10-7.3-18.5-17.4-19c-3.4-0.2-6.8,0.6-9.7,2.3l3.2,8.8l-6.6-6.4
	c-3.6,3.2-5.7,7.8-5.9,12.6c-0.1,1.7,0.1,3.4,0.5,5C157.7,505.4,164.6,511.2,172.7,511.5z"/>
<path class="st3" d="M177.9,458c4.2,0.5,8.3,1.8,12.5,2c4.2,0.3,8.8-0.7,11.5-4c1.4-1.8,2.2-4,3.4-5.9c1.1-1.8,2.7-3.3,4.6-4.3
	c4.5,9,0.9,19.9-8,24.4c-9,4.5-19.9,0.9-24.5-8c-0.7-1.4-1.2-2.8-1.5-4.3C176.5,457.8,177.3,457.9,177.9,458z"/>
<path class="st3" d="M172.7,511.5c10.1,0.5,18.6-7.3,19-17.3c0.1-3-0.5-5.9-1.7-8.6c-1.4,1-2.7,2.2-3.7,3.7c-1.3,2-2.1,4.2-3.6,6
	c-2.8,3.3-7.7,4.4-12.1,4.2c-4.4-0.2-8.6-1.4-13-1.9c-0.6-0.1-1.2-0.1-1.9-0.1C157.7,505.4,164.6,511.2,172.7,511.5z"/>
<path class="st3" d="M217,540.9c10,0.5,18.6-7.3,19-17.3c0.1-2.9-0.4-5.7-1.6-8.3c-1.5,1-2.8,2.3-3.9,3.7c-1.4,2-2.3,4.3-3.9,6.1
	c-3.1,3.4-8.2,4.7-12.9,4.5c-4.5-0.1-8.9-1.2-13.3-1.5C202.7,535.5,209.3,540.6,217,540.9z"/>
<path class="st3" d="M208,576.3c4.6,8.9,15.6,12.4,24.5,7.9c8.3-4.2,12-14,8.7-22.7c-1.5,1-2.8,2.2-4,3.6c-1.7,2.1-2.9,4.5-4.9,6.5
	c-3.7,3.7-9.7,5.2-15.1,5.3C214.1,576.7,211,576.6,208,576.3z"/>
<path class="st11" d="M765.5,604.3c-2.8-5.3,0.4-11.7,4.1-16.4c3.7-4.7,8.3-9.6,8.2-15.6c-0.1-8.6-9.3-13.7-16.6-18.3
	c-5.4-3.4-10.4-7.4-14.9-12c-1.9-1.8-3.4-3.8-4.6-6.1c-1.5-3.4-1.5-7.2-1.4-10.9c0.3-12.3,0.9-24.6,1.9-36.9"/>
<path class="st12" d="M728.2,487.4c0.2-4.6,2.8-8.7,6.7-11l3,6l-0.1-7.2c1.4-0.4,2.9-0.6,4.4-0.5c7.4,0.3,13.2,6.6,12.9,14
	c-0.3,7.4-6.6,13.2-14,12.8C733.7,501.1,727.9,494.9,728.2,487.4C728.2,487.4,728.2,487.4,728.2,487.4L728.2,487.4z"/>
<path class="st12" d="M752.2,578.4c3.4,6.6,11.5,9.2,18.1,5.8c6.6-3.4,9.2-11.5,5.8-18.1c-3.4-6.6-11.5-9.2-18.1-5.8
	c-3,1.5-5.3,4.1-6.5,7.3l8.4,6.8l-9.2-2.1C750.7,574.4,751.2,576.5,752.2,578.4z"/>
<path class="st12" d="M758.9,552.2c7.4,0.3,13.7-5.4,14-12.8c0.1-2.1-0.3-4.2-1.2-6.1c-1.6-3.6-4.8-6.4-8.6-7.5l0.1,5.5l-3-6l0,0
	c-7.4-0.3-13.7,5.4-14.1,12.8C745.7,545.6,751.4,551.9,758.9,552.2L758.9,552.2z"/>
<path class="st12" d="M726.2,530.6c7.4,0.4,13.7-5.4,14.1-12.8c0.4-7.4-5.4-13.7-12.8-14.1c-2.5-0.1-5,0.5-7.2,1.7l2.4,6.5l-4.9-4.7
	c-2.6,2.4-4.2,5.7-4.3,9.3c-0.1,1.3,0,2.5,0.3,3.7C715.1,526.1,720.2,530.3,726.2,530.6z"/>
<path class="st3" d="M730,491c3.1,0.3,6.1,1.3,9.2,1.5c3.1,0.2,6.6-0.6,8.5-3c1.1-1.3,1.6-3,2.5-4.4c0.9-1.3,2-2.4,3.4-3.2
	c3.4,6.6,0.7,14.7-5.9,18.1c-2.1,1.1-4.4,1.6-6.7,1.4c-6.1-0.3-11.2-4.7-12.5-10.6C729,490.9,729.5,490.9,730,491z"/>
<path class="st3" d="M726.2,530.6c7.4,0.3,13.7-5.4,14.1-12.8c0.1-2.2-0.3-4.4-1.3-6.3c-1.1,0.7-2,1.6-2.7,2.7
	c-0.9,1.4-1.5,3.1-2.7,4.4c-2.1,2.5-5.7,3.3-8.9,3.1c-3.2-0.1-6.4-1.1-9.6-1.4c-0.4,0-0.9-0.1-1.4-0.1
	C715.1,526.1,720.2,530.3,726.2,530.6z"/>
<path class="st3" d="M758.9,552.2c7.4,0.3,13.7-5.4,14-12.8c0.1-2.1-0.3-4.2-1.2-6.1c-1.1,0.7-2,1.7-2.8,2.7c-1,1.5-1.7,3.2-2.9,4.5
	c-2.3,2.5-6.1,3.4-9.5,3.3c-3.4-0.1-6.6-0.9-9.8-1.1C748.3,548.2,753.2,552,758.9,552.2z"/>
<path class="st3" d="M752.2,578.4c3.4,6.6,11.5,9.2,18.1,5.7c6.1-3.1,8.8-10.3,6.4-16.7c-1.1,0.7-2.1,1.6-3,2.6
	c-1.3,1.6-2.1,3.3-3.6,4.8c-2.8,2.7-7.2,3.8-11.1,3.9C756.8,578.8,754.5,578.7,752.2,578.4z"/>
<path class="st11" d="M879.4,617.8c3.9-7.1-0.5-15.9-5.6-22.3c-5-6.4-11.2-13-11.1-21.1c0.2-11.7,12.6-18.6,22.5-24.7
	c7.3-4.6,14.1-10,20.2-16.2c2.5-2.4,4.6-5.2,6.2-8.3c2-4.6,2-9.8,1.9-14.8c-0.4-16.7-1.2-33.3-2.5-49.9"/>
<path class="st12" d="M929.9,459.7c-0.3-6.2-3.7-11.9-9.1-15l-4.1,8.1l0.1-9.8c-1.9-0.6-4-0.8-6-0.7c-10,0.5-17.8,9-17.3,19
	c0.5,10,9,17.8,19,17.3C922.6,478.2,930.3,469.7,929.9,459.7z"/>
<path class="st12" d="M897.4,582.8c-4.6,8.9-15.6,12.5-24.5,7.9c-8.9-4.6-12.5-15.6-7.9-24.5c4.6-8.9,15.6-12.5,24.5-7.9
	c4,2.1,7.2,5.6,8.7,9.8l-11.4,9.2l12.5-2.9C899.4,577.4,898.7,580.2,897.4,582.8z"/>
<path class="st12" d="M888.4,547.5c-10,0.5-18.6-7.3-19.1-17.3c-0.4-8.5,5.1-16.1,13.3-18.4l-0.1,7.5l4.2-8.2l0,0
	c10-0.7,18.7,6.9,19.4,16.9c0.7,10-6.9,18.7-17,19.4C888.9,547.4,888.7,547.5,888.4,547.5L888.4,547.5z"/>
<path class="st12" d="M932.6,518.1c-10,0.5-18.6-7.3-19-17.3c-0.5-10,7.3-18.5,17.4-19c3.4-0.2,6.8,0.6,9.7,2.3l-3.2,8.8l6.6-6.4
	c7.4,6.8,7.9,18.3,1.1,25.7C942,515.7,937.4,517.9,932.6,518.1z"/>
<path class="st3" d="M927.4,464.5c-4.2,0.5-8.3,1.8-12.5,2c-4.2,0.3-8.8-0.7-11.5-4c-1.4-1.8-2.2-4-3.4-5.9
	c-1.1-1.8-2.7-3.3-4.6-4.3c-4.5,9-0.9,19.9,8,24.4c9,4.5,19.9,0.9,24.5-8c0.7-1.4,1.2-2.8,1.5-4.3
	C928.8,464.4,928.1,464.4,927.4,464.5z"/>
<path class="st3" d="M932.6,518.1c-10.1,0.5-18.6-7.3-19-17.3c-0.1-3,0.5-5.9,1.7-8.6c1.5,1,2.7,2.2,3.7,3.7c1.3,2,2.1,4.2,3.6,6
	c2.8,3.3,7.7,4.4,12.1,4.2c4.4-0.2,8.6-1.4,13-1.9c0.6-0.1,1.2-0.1,1.9-0.1C947.7,512,940.8,517.7,932.6,518.1z"/>
<path class="st3" d="M888.4,547.5c-10,0.5-18.6-7.3-19-17.3c-0.1-2.9,0.4-5.7,1.6-8.3c1.5,1,2.8,2.3,3.9,3.7c1.4,2,2.3,4.3,3.9,6.1
	c3.1,3.4,8.2,4.7,12.9,4.5c4.5-0.1,8.9-1.2,13.3-1.5C902.7,542,896.1,547.1,888.4,547.5z"/>
<path class="st3" d="M897.4,582.8c-4.8,8.8-15.8,12.2-24.7,7.4c-8-4.3-11.6-13.7-8.5-22.2c1.5,1,2.8,2.2,4,3.6
	c1.7,2.1,2.9,4.5,4.9,6.5c3.7,3.7,9.7,5.2,15.1,5.3C891.3,583.3,894.4,583.1,897.4,582.8z"/>
<path class="st13" d="M197.7,605.9c0,0,14.4-0.4,18.7-3.5c4.4-3.1,22.1-6.8,23.2-1.9c1.1,4.9,21.6,24.6,5.4,24.7
	c-16.2,0.1-37.7-2.5-42-5.2C198.6,617.4,197.7,605.9,197.7,605.9z"/>
<path class="st14" d="M245.3,623.5c-16.2,0.1-37.7-2.5-42-5.2c-3.3-2-4.6-9.2-5-12.5h-0.5c0,0,0.9,11.6,5.2,14.2
	c4.3,2.6,25.8,5.3,42,5.2c4.7,0,6.3-1.7,6.2-4.2C250.5,622.6,248.7,623.5,245.3,623.5z"/>
<path class="st13" d="M748.2,604.1c0,0,8.4-0.3,10.9-2.1c2.5-1.8,12.9-3.9,13.5-1.1s12.6,14.3,3.1,14.4c-9.5,0.1-22-1.5-24.5-3
	C748.7,610.9,748.2,604.1,748.2,604.1z"/>
<path class="st14" d="M775.9,614.4c-9.5,0.1-22-1.5-24.5-3c-1.9-1.2-2.7-5.4-2.9-7.3h-0.2c0,0,0.5,6.8,3.1,8.3
	c2.5,1.5,15.1,3.1,24.5,3c2.7,0,3.7-1,3.6-2.4C779,613.8,778,614.4,775.9,614.4z"/>
<path class="st13" d="M851.9,609.6c0,0,14.4-0.4,18.7-3.5c4.4-3.1,22.1-6.8,23.2-1.9c1.1,4.9,21.6,24.6,5.4,24.7
	c-16.2,0.1-37.7-2.5-42-5.2C852.9,621.2,851.9,609.6,851.9,609.6z"/>
<path class="st14" d="M899.5,627.3c-16.2,0.1-37.7-2.5-42-5.2c-3.3-2-4.6-9.2-5-12.5h-0.5c0,0,0.9,11.6,5.2,14.2
	c4.3,2.6,25.8,5.3,42,5.2c4.7,0,6.3-1.7,6.2-4.2C904.8,626.3,903,627.2,899.5,627.3z"/>
</svg>
